<svg width="17" height="18" viewBox="0 0 17 18" fill="none" xmlns="http://www.w3.org/2000/svg">
<g clip-path="url(#clip0_1029_3068)">
<path d="M7.47263 17.5C7.41948 17.5 7.36684 17.4895 7.31773 17.4692C7.26862 17.4488 7.224 17.419 7.18642 17.3814C7.14883 17.3439 7.11902 17.2992 7.09868 17.2501C7.07834 17.201 7.06787 17.1484 7.06787 17.0952V8.37723C7.06791 8.29541 7.09272 8.21552 7.13904 8.14806C7.18536 8.08061 7.25102 8.02877 7.32737 7.99935L15.4226 4.88597C15.4839 4.86233 15.5501 4.85399 15.6153 4.86165C15.6806 4.8693 15.743 4.89274 15.7972 4.92993C15.8513 4.96711 15.8956 5.01693 15.9263 5.07507C15.9569 5.13322 15.9728 5.19794 15.9728 5.26365V13.3589C15.9728 13.4362 15.9507 13.512 15.909 13.5771C15.8673 13.6423 15.8079 13.6941 15.7376 13.7265L7.6422 17.4626C7.58908 17.4873 7.5312 17.5001 7.47263 17.5ZM7.87739 8.65531V16.4626L15.1633 13.1V5.85301L7.87739 8.65531Z" fill="#DE0000"/>
<path d="M7.47226 17.5C7.38668 17.5 7.30329 17.4729 7.23411 17.4225L0.384386 12.4409C0.332791 12.4033 0.290805 12.3541 0.261851 12.2972C0.232897 12.2403 0.217794 12.1774 0.217773 12.1136V3.3956C0.217781 3.32093 0.238444 3.24771 0.277474 3.18405C0.316505 3.12039 0.372384 3.06877 0.438929 3.0349C0.505475 3.00102 0.580094 2.98621 0.654532 2.99211C0.72897 2.99801 0.800327 3.02438 0.860709 3.06831L7.71041 8.04996C7.76201 8.08753 7.804 8.13676 7.83295 8.19364C7.8619 8.25052 7.87701 8.31343 7.87703 8.37725V17.0952C7.877 17.2026 7.83435 17.3055 7.75845 17.3814C7.68255 17.4573 7.57961 17.5 7.47226 17.5ZM1.0273 11.9075L7.0675 16.3003V8.58339L1.0273 4.1905V11.9075Z" fill="#DE0000"/>
<path d="M7.47227 8.78205C7.38668 8.78209 7.3033 8.75496 7.23411 8.70457L0.384388 3.72292C0.324263 3.67917 0.277352 3.6197 0.248801 3.55104C0.22025 3.48238 0.211163 3.40718 0.222537 3.3337C0.233911 3.26022 0.265306 3.19129 0.313278 3.13447C0.36125 3.07766 0.423945 3.03515 0.494483 3.01162L7.96695 0.520796C8.02158 0.502748 8.07942 0.496483 8.13665 0.502413C8.19389 0.508343 8.24921 0.526334 8.29898 0.555201L15.7717 4.91408C15.8376 4.95248 15.8913 5.00872 15.9266 5.07632C15.9619 5.14392 15.9774 5.22012 15.9713 5.29614C15.9652 5.37217 15.9377 5.44492 15.892 5.506C15.8464 5.56709 15.7844 5.61402 15.7132 5.64139L7.61752 8.75497C7.57119 8.77288 7.52194 8.78206 7.47227 8.78205ZM1.49669 3.53082L7.53235 7.92054L14.6356 5.1886L8.04936 1.34672L1.49669 3.53082Z" fill="#DE0000"/>
<path d="M11.8316 11.2749C11.7784 11.2749 11.7258 11.2644 11.6767 11.2441C11.6276 11.2238 11.5829 11.1939 11.5453 11.1563C11.5078 11.1188 11.4779 11.0741 11.4576 11.025C11.4373 10.9759 11.4268 10.9233 11.4268 10.8701V6.87822L4.7101 2.29145C4.66605 2.26154 4.62833 2.22323 4.59911 2.17872C4.56989 2.13422 4.54974 2.08438 4.53981 2.03207C4.52988 1.97976 4.53038 1.926 4.54126 1.87388C4.55214 1.82176 4.5732 1.7723 4.60323 1.72833C4.63326 1.68437 4.67167 1.64676 4.71627 1.61766C4.76086 1.58856 4.81075 1.56855 4.86309 1.55877C4.91543 1.54899 4.96918 1.54963 5.02127 1.56066C5.07336 1.57168 5.12276 1.59288 5.16664 1.62304L12.0597 6.33037C12.1141 6.36745 12.1587 6.41728 12.1895 6.47553C12.2203 6.53378 12.2364 6.59868 12.2364 6.66458V10.8701C12.2364 10.9233 12.2259 10.9759 12.2056 11.025C12.1852 11.0741 12.1554 11.1188 12.1178 11.1564C12.0802 11.1939 12.0356 11.2238 11.9865 11.2441C11.9374 11.2644 11.8847 11.2749 11.8316 11.2749Z" fill="#DE0000"/>
<path d="M3.73579 11.8956C3.64829 11.8957 3.56316 11.8672 3.49329 11.8146L2.24776 10.8806C2.20525 10.8487 2.16944 10.8087 2.14237 10.763C2.1153 10.7172 2.0975 10.6666 2.09 10.614C2.07484 10.5077 2.10251 10.3998 2.16693 10.3139C2.23135 10.2281 2.32724 10.1713 2.4335 10.1562C2.53977 10.141 2.6477 10.1687 2.73356 10.2331L3.97907 11.1671C4.04703 11.2181 4.09721 11.2892 4.12251 11.3703C4.14781 11.4515 4.14694 11.5385 4.12003 11.6191C4.09311 11.6997 4.04152 11.7697 3.97256 11.8194C3.90359 11.869 3.82076 11.8957 3.73579 11.8956Z" fill="#DE0000"/>
</g>
<defs>
<clipPath id="clip0_1029_3068">
<rect width="16.1905" height="17" fill="white" transform="translate(0 0.5)"/>
</clipPath>
</defs>
</svg>
