<svg width="400" height="320" viewBox="0 0 400 320" fill="none" xmlns="http://www.w3.org/2000/svg">
<rect width="400" height="320" fill="white"/>
<path d="M240.36 67.392C237.635 67.392 235.171 66.9253 232.968 65.992C230.803 65.0587 229.085 63.7147 227.816 61.96C226.547 60.2053 225.893 58.1333 225.856 55.744H234.256C234.368 57.3493 234.928 58.6187 235.936 59.552C236.981 60.4853 238.4 60.952 240.192 60.952C242.021 60.952 243.459 60.5227 244.504 59.664C245.549 58.768 246.072 57.6107 246.072 56.192C246.072 55.0347 245.717 54.0827 245.008 53.336C244.299 52.5893 243.403 52.0107 242.32 51.6C241.275 51.152 239.819 50.6667 237.952 50.144C235.413 49.3973 233.341 48.6693 231.736 47.96C230.168 47.2133 228.805 46.112 227.648 44.656C226.528 43.1627 225.968 41.184 225.968 38.72C225.968 36.4053 226.547 34.3893 227.704 32.672C228.861 30.9547 230.485 29.648 232.576 28.752C234.667 27.8187 237.056 27.352 239.744 27.352C243.776 27.352 247.043 28.3413 249.544 30.32C252.083 32.2613 253.483 34.9867 253.744 38.496H245.12C245.045 37.152 244.467 36.0507 243.384 35.192C242.339 34.296 240.939 33.848 239.184 33.848C237.653 33.848 236.421 34.24 235.488 35.024C234.592 35.808 234.144 36.9467 234.144 38.44C234.144 39.4853 234.48 40.3627 235.152 41.072C235.861 41.744 236.72 42.304 237.728 42.752C238.773 43.1627 240.229 43.648 242.096 44.208C244.635 44.9547 246.707 45.7013 248.312 46.448C249.917 47.1947 251.299 48.3147 252.456 49.808C253.613 51.3013 254.192 53.2613 254.192 55.688C254.192 57.7787 253.651 59.72 252.568 61.512C251.485 63.304 249.899 64.7413 247.808 65.824C245.717 66.8693 243.235 67.392 240.36 67.392ZM256.845 47.4C256.845 43.5547 257.704 40.12 259.421 37.096C261.176 34.0347 263.546 31.664 266.533 29.984C269.557 28.2667 272.936 27.408 276.669 27.408C281.037 27.408 284.864 28.528 288.149 30.768C291.434 33.008 293.73 36.1067 295.037 40.064H286.021C285.125 38.1973 283.856 36.7973 282.213 35.864C280.608 34.9307 278.741 34.464 276.613 34.464C274.336 34.464 272.301 35.0053 270.509 36.088C268.754 37.1333 267.373 38.6267 266.365 40.568C265.394 42.5093 264.909 44.7867 264.909 47.4C264.909 49.976 265.394 52.2533 266.365 54.232C267.373 56.1733 268.754 57.6853 270.509 58.768C272.301 59.8133 274.336 60.336 276.613 60.336C278.741 60.336 280.608 59.8693 282.213 58.936C283.856 57.9653 285.125 56.5467 286.021 54.68H295.037C293.73 58.6747 291.434 61.792 288.149 64.032C284.901 66.2347 281.074 67.336 276.669 67.336C272.936 67.336 269.557 66.496 266.533 64.816C263.546 63.0987 261.176 60.728 259.421 57.704C257.704 54.68 256.845 51.2453 256.845 47.4ZM307.333 27.912V67H299.493V27.912H307.333ZM339.439 27.912V34.24H329.023V67H321.183V34.24H310.767V27.912H339.439ZM366.888 59.552H351.32L348.744 67H340.512L354.568 27.856H363.696L377.752 67H369.464L366.888 59.552ZM364.76 53.28L359.104 36.928L353.448 53.28H364.76Z" fill="black"/>
<rect x="15" y="143" width="82" height="114" rx="41" fill="#D9D9D9"/>
<path opacity="0.42" d="M31.1937 217H81.8329C83.5924 217 85 215.461 85 213.509C85 212.571 84.6833 211.67 84.0499 210.995L71.3813 196.957C70.1496 195.606 68.1438 195.606 66.9121 196.957L62.7948 201.536L52.3784 190.013C51.1467 188.662 49.1409 188.662 47.9092 190.013L28.9063 211.07C27.6747 212.458 27.7099 214.673 28.9415 216.024C29.6102 216.625 30.3843 216.962 31.1937 217Z" fill="#676363"/>
<path opacity="0.42" d="M71.5 189C75.0899 189 78 185.642 78 181.5C78 177.358 75.0899 174 71.5 174C67.9101 174 65 177.358 65 181.5C65 185.642 67.9101 189 71.5 189Z" fill="#676363"/>
<rect x="109" y="154" width="83" height="114" rx="41.5" fill="#D9D9D9"/>
<path opacity="0.42" d="M125.194 228H175.833C177.592 228 179 226.461 179 224.509C179 223.571 178.683 222.67 178.05 221.995L165.381 207.957C164.15 206.606 162.144 206.606 160.912 207.957L156.795 212.536L146.378 201.013C145.147 199.662 143.141 199.662 141.909 201.013L122.906 222.07C121.675 223.458 121.71 225.673 122.942 227.024C123.61 227.625 124.384 227.962 125.194 228Z" fill="#676363"/>
<path opacity="0.42" d="M166 200C169.314 200 172 196.642 172 192.5C172 188.358 169.314 185 166 185C162.686 185 160 188.358 160 192.5C160 196.642 162.686 200 166 200Z" fill="#676363"/>
<rect x="203" y="132" width="83" height="114" rx="41.5" fill="#D9D9D9"/>
<path opacity="0.42" d="M219.194 206H269.833C271.592 206 273 204.461 273 202.509C273 201.571 272.683 200.67 272.05 199.995L259.381 185.957C258.15 184.606 256.144 184.606 254.912 185.957L250.795 190.536L240.378 179.013C239.147 177.662 237.141 177.662 235.909 179.013L216.906 200.07C215.675 201.458 215.71 203.673 216.942 205.024C217.61 205.625 218.384 205.962 219.194 206Z" fill="#676363"/>
<path opacity="0.42" d="M260.5 178C264.09 178 267 174.642 267 170.5C267 166.358 264.09 163 260.5 163C256.91 163 254 166.358 254 170.5C254 174.642 256.91 178 260.5 178Z" fill="#676363"/>
<rect x="298" y="143" width="82" height="114" rx="41" fill="#D9D9D9"/>
<path opacity="0.42" d="M313.194 217H363.833C365.592 217 367 215.461 367 213.509C367 212.571 366.683 211.67 366.05 210.995L353.381 196.957C352.15 195.606 350.144 195.606 348.912 196.957L344.795 201.536L334.378 190.013C333.147 188.662 331.141 188.662 329.909 190.013L310.906 211.07C309.675 212.458 309.71 214.673 310.942 216.024C311.61 216.625 312.384 216.962 313.194 217Z" fill="#676363"/>
<path opacity="0.42" d="M354.5 189C358.09 189 361 185.642 361 181.5C361 177.358 358.09 174 354.5 174C350.91 174 348 177.358 348 181.5C348 185.642 350.91 189 354.5 189Z" fill="#676363"/>
<rect x="18" y="89" width="111" height="12" rx="6" fill="#989595"/>
<rect x="192" y="89" width="183" height="6" rx="3" fill="#585858"/>
<rect x="192" y="98" width="183" height="6" rx="3" fill="#585858"/>
<rect x="192" y="108" width="183" height="5" rx="2.5" fill="#585858"/>
</svg>
