<svg width="400" height="320" viewBox="0 0 400 320" fill="none" xmlns="http://www.w3.org/2000/svg">
<rect width="400" height="320" fill="white"/>
<path d="M240.36 67.392C237.635 67.392 235.171 66.9253 232.968 65.992C230.803 65.0587 229.085 63.7147 227.816 61.96C226.547 60.2053 225.893 58.1333 225.856 55.744H234.256C234.368 57.3493 234.928 58.6187 235.936 59.552C236.981 60.4853 238.4 60.952 240.192 60.952C242.021 60.952 243.459 60.5227 244.504 59.664C245.549 58.768 246.072 57.6107 246.072 56.192C246.072 55.0347 245.717 54.0827 245.008 53.336C244.299 52.5893 243.403 52.0107 242.32 51.6C241.275 51.152 239.819 50.6667 237.952 50.144C235.413 49.3973 233.341 48.6693 231.736 47.96C230.168 47.2133 228.805 46.112 227.648 44.656C226.528 43.1627 225.968 41.184 225.968 38.72C225.968 36.4053 226.547 34.3893 227.704 32.672C228.861 30.9547 230.485 29.648 232.576 28.752C234.667 27.8187 237.056 27.352 239.744 27.352C243.776 27.352 247.043 28.3413 249.544 30.32C252.083 32.2613 253.483 34.9867 253.744 38.496H245.12C245.045 37.152 244.467 36.0507 243.384 35.192C242.339 34.296 240.939 33.848 239.184 33.848C237.653 33.848 236.421 34.24 235.488 35.024C234.592 35.808 234.144 36.9467 234.144 38.44C234.144 39.4853 234.48 40.3627 235.152 41.072C235.861 41.744 236.72 42.304 237.728 42.752C238.773 43.1627 240.229 43.648 242.096 44.208C244.635 44.9547 246.707 45.7013 248.312 46.448C249.917 47.1947 251.299 48.3147 252.456 49.808C253.613 51.3013 254.192 53.2613 254.192 55.688C254.192 57.7787 253.651 59.72 252.568 61.512C251.485 63.304 249.899 64.7413 247.808 65.824C245.717 66.8693 243.235 67.392 240.36 67.392ZM256.845 47.4C256.845 43.5547 257.704 40.12 259.421 37.096C261.176 34.0347 263.546 31.664 266.533 29.984C269.557 28.2667 272.936 27.408 276.669 27.408C281.037 27.408 284.864 28.528 288.149 30.768C291.434 33.008 293.73 36.1067 295.037 40.064H286.021C285.125 38.1973 283.856 36.7973 282.213 35.864C280.608 34.9307 278.741 34.464 276.613 34.464C274.336 34.464 272.301 35.0053 270.509 36.088C268.754 37.1333 267.373 38.6267 266.365 40.568C265.394 42.5093 264.909 44.7867 264.909 47.4C264.909 49.976 265.394 52.2533 266.365 54.232C267.373 56.1733 268.754 57.6853 270.509 58.768C272.301 59.8133 274.336 60.336 276.613 60.336C278.741 60.336 280.608 59.8693 282.213 58.936C283.856 57.9653 285.125 56.5467 286.021 54.68H295.037C293.73 58.6747 291.434 61.792 288.149 64.032C284.901 66.2347 281.074 67.336 276.669 67.336C272.936 67.336 269.557 66.496 266.533 64.816C263.546 63.0987 261.176 60.728 259.421 57.704C257.704 54.68 256.845 51.2453 256.845 47.4ZM307.333 27.912V67H299.493V27.912H307.333ZM339.439 27.912V34.24H329.023V67H321.183V34.24H310.767V27.912H339.439ZM366.888 59.552H351.32L348.744 67H340.512L354.568 27.856H363.696L377.752 67H369.464L366.888 59.552ZM364.76 53.28L359.104 36.928L353.448 53.28H364.76Z" fill="black"/>
<rect x="17" y="146" width="82" height="65" fill="#D9D9D9"/>
<rect x="17" y="221" width="53" height="7" rx="3.5" fill="#989595"/>
<rect x="17" y="235" width="70" height="6" rx="3" fill="#585858"/>
<rect x="17" y="248" width="70" height="7" rx="3.5" fill="#585858"/>
<g opacity="0.6">
<path opacity="0.42" d="M32.0342 199.49H83.7201C85.516 199.49 86.9528 197.969 86.9528 196.041C86.9528 195.114 86.6295 194.224 85.983 193.556L73.0525 179.686C71.7954 178.351 69.7481 178.351 68.4909 179.686L64.2885 184.211L53.6568 172.826C52.3997 171.49 50.3523 171.49 49.0952 172.826L29.6995 193.63C28.4424 195.002 28.4783 197.19 29.7354 198.525C30.4179 199.119 31.2081 199.452 32.0342 199.49Z" fill="#676363"/>
<path opacity="0.42" d="M73.887 171.824C77.4269 171.824 80.2965 168.696 80.2965 164.836C80.2965 160.977 77.4269 157.849 73.887 157.849C70.3472 157.849 67.4775 160.977 67.4775 164.836C67.4775 168.696 70.3472 171.824 73.887 171.824Z" fill="#676363"/>
</g>
<rect x="112" y="146" width="81" height="65" fill="#D9D9D9"/>
<rect x="112" y="221" width="53" height="7" rx="3.5" fill="#989595"/>
<rect x="112" y="235" width="70" height="6" rx="3" fill="#585858"/>
<rect x="112" y="248" width="70" height="7" rx="3.5" fill="#585858"/>
<rect x="206" y="221" width="53" height="7" rx="3.5" fill="#989595"/>
<rect x="206" y="235" width="70" height="6" rx="3" fill="#585858"/>
<rect x="206" y="248" width="70" height="7" rx="3.5" fill="#585858"/>
<rect x="302" y="221" width="53" height="7" rx="3.5" fill="#989595"/>
<rect x="302" y="235" width="70" height="6" rx="3" fill="#585858"/>
<rect x="302" y="248" width="70" height="7" rx="3.5" fill="#585858"/>
<g opacity="0.6">
<path opacity="0.42" d="M126.748 199.49H178.434C180.23 199.49 181.667 197.969 181.667 196.041C181.667 195.114 181.343 194.224 180.697 193.556L167.766 179.686C166.509 178.351 164.462 178.351 163.205 179.686L159.002 184.211L148.371 172.826C147.114 171.49 145.066 171.49 143.809 172.826L124.413 193.63C123.156 195.002 123.192 197.19 124.449 198.525C125.132 199.119 125.922 199.452 126.748 199.49Z" fill="#676363"/>
<path opacity="0.42" d="M168.601 171.824C172.141 171.824 175.01 168.696 175.01 164.836C175.01 160.977 172.141 157.849 168.601 157.849C165.061 157.849 162.191 160.977 162.191 164.836C162.191 168.696 165.061 171.824 168.601 171.824Z" fill="#676363"/>
</g>
<rect x="206" y="146" width="82" height="65" fill="#D9D9D9"/>
<g opacity="0.6">
<path opacity="0.42" d="M221.462 199.49H273.148C274.944 199.49 276.381 197.969 276.381 196.041C276.381 195.114 276.057 194.224 275.411 193.556L262.48 179.686C261.223 178.351 259.176 178.351 257.919 179.686L253.716 184.211L243.085 172.826C241.827 171.49 239.78 171.49 238.523 172.826L219.127 193.63C217.87 195.002 217.906 197.19 219.163 198.525C219.846 199.119 220.636 199.452 221.462 199.49Z" fill="#676363"/>
<path opacity="0.42" d="M263.316 171.824C266.856 171.824 269.725 168.696 269.725 164.836C269.725 160.977 266.856 157.849 263.316 157.849C259.776 157.849 256.906 160.977 256.906 164.836C256.906 168.696 259.776 171.824 263.316 171.824Z" fill="#676363"/>
</g>
<rect x="301" y="146" width="82" height="65" fill="#D9D9D9"/>
<g opacity="0.6">
<path opacity="0.42" d="M316.177 199.49H367.863C369.659 199.49 371.095 197.969 371.095 196.041C371.095 195.114 370.772 194.224 370.126 193.556L357.195 179.686C355.938 178.351 353.891 178.351 352.634 179.686L348.431 184.211L337.799 172.826C336.542 171.49 334.495 171.49 333.238 172.826L313.842 193.63C312.585 195.002 312.621 197.19 313.878 198.525C314.56 199.119 315.351 199.452 316.177 199.49Z" fill="#676363"/>
<path opacity="0.42" d="M358.03 171.824C361.569 171.824 364.439 168.696 364.439 164.836C364.439 160.977 361.569 157.849 358.03 157.849C354.49 157.849 351.62 160.977 351.62 164.836C351.62 168.696 354.49 171.824 358.03 171.824Z" fill="#676363"/>
</g>
<rect x="149" y="102" width="101" height="9" rx="4.5" fill="#989595"/>
<rect x="133" y="119" width="133" height="9" rx="4.5" fill="#585858"/>
</svg>
