<svg width="400" height="320" viewBox="0 0 400 320" fill="none" xmlns="http://www.w3.org/2000/svg">
<rect width="400" height="320" fill="white"/>
<path d="M240.36 67.392C237.635 67.392 235.171 66.9253 232.968 65.992C230.803 65.0587 229.085 63.7147 227.816 61.96C226.547 60.2053 225.893 58.1333 225.856 55.744H234.256C234.368 57.3493 234.928 58.6187 235.936 59.552C236.981 60.4853 238.4 60.952 240.192 60.952C242.021 60.952 243.459 60.5227 244.504 59.664C245.549 58.768 246.072 57.6107 246.072 56.192C246.072 55.0347 245.717 54.0827 245.008 53.336C244.299 52.5893 243.403 52.0107 242.32 51.6C241.275 51.152 239.819 50.6667 237.952 50.144C235.413 49.3973 233.341 48.6693 231.736 47.96C230.168 47.2133 228.805 46.112 227.648 44.656C226.528 43.1627 225.968 41.184 225.968 38.72C225.968 36.4053 226.547 34.3893 227.704 32.672C228.861 30.9547 230.485 29.648 232.576 28.752C234.667 27.8187 237.056 27.352 239.744 27.352C243.776 27.352 247.043 28.3413 249.544 30.32C252.083 32.2613 253.483 34.9867 253.744 38.496H245.12C245.045 37.152 244.467 36.0507 243.384 35.192C242.339 34.296 240.939 33.848 239.184 33.848C237.653 33.848 236.421 34.24 235.488 35.024C234.592 35.808 234.144 36.9467 234.144 38.44C234.144 39.4853 234.48 40.3627 235.152 41.072C235.861 41.744 236.72 42.304 237.728 42.752C238.773 43.1627 240.229 43.648 242.096 44.208C244.635 44.9547 246.707 45.7013 248.312 46.448C249.917 47.1947 251.299 48.3147 252.456 49.808C253.613 51.3013 254.192 53.2613 254.192 55.688C254.192 57.7787 253.651 59.72 252.568 61.512C251.485 63.304 249.899 64.7413 247.808 65.824C245.717 66.8693 243.235 67.392 240.36 67.392ZM256.845 47.4C256.845 43.5547 257.704 40.12 259.421 37.096C261.176 34.0347 263.546 31.664 266.533 29.984C269.557 28.2667 272.936 27.408 276.669 27.408C281.037 27.408 284.864 28.528 288.149 30.768C291.434 33.008 293.73 36.1067 295.037 40.064H286.021C285.125 38.1973 283.856 36.7973 282.213 35.864C280.608 34.9307 278.741 34.464 276.613 34.464C274.336 34.464 272.301 35.0053 270.509 36.088C268.754 37.1333 267.373 38.6267 266.365 40.568C265.394 42.5093 264.909 44.7867 264.909 47.4C264.909 49.976 265.394 52.2533 266.365 54.232C267.373 56.1733 268.754 57.6853 270.509 58.768C272.301 59.8133 274.336 60.336 276.613 60.336C278.741 60.336 280.608 59.8693 282.213 58.936C283.856 57.9653 285.125 56.5467 286.021 54.68H295.037C293.73 58.6747 291.434 61.792 288.149 64.032C284.901 66.2347 281.074 67.336 276.669 67.336C272.936 67.336 269.557 66.496 266.533 64.816C263.546 63.0987 261.176 60.728 259.421 57.704C257.704 54.68 256.845 51.2453 256.845 47.4ZM307.333 27.912V67H299.493V27.912H307.333ZM339.439 27.912V34.24H329.023V67H321.183V34.24H310.767V27.912H339.439ZM366.888 59.552H351.32L348.744 67H340.512L354.568 27.856H363.696L377.752 67H369.464L366.888 59.552ZM364.76 53.28L359.104 36.928L353.448 53.28H364.76Z" fill="black"/>
<rect x="14" y="137" width="88" height="79" fill="#D9D9D9"/>
<rect x="30" y="201" width="57" height="4" rx="2" fill="#989595"/>
<rect x="20" y="209" width="75" height="3" rx="1.5" fill="#585858"/>
<g opacity="0.6">
<path opacity="0.42" d="M30.2906 194.103H85.4688C87.3861 194.103 88.9199 192.48 88.9199 190.422C88.9199 189.432 88.5748 188.482 87.8846 187.769L74.0804 172.962C72.7383 171.537 70.5527 171.537 69.2106 172.962L64.7243 177.792L53.3742 165.638C52.0321 164.213 49.8464 164.213 48.5044 165.638L27.7981 187.848C26.4561 189.313 26.4944 191.649 27.8365 193.074C28.565 193.708 29.4086 194.064 30.2906 194.103Z" fill="#676363"/>
<path opacity="0.42" d="M74.9715 164.569C78.7505 164.569 81.814 161.229 81.814 157.109C81.814 152.989 78.7505 149.649 74.9715 149.649C71.1924 149.649 68.1289 152.989 68.1289 157.109C68.1289 161.229 71.1924 164.569 74.9715 164.569Z" fill="#676363"/>
</g>
<rect x="108" y="137" width="88" height="79" fill="#D9D9D9"/>
<rect x="124" y="201" width="57" height="4" rx="2" fill="#989595"/>
<rect x="114" y="209" width="75" height="3" rx="1.5" fill="#585858"/>
<g opacity="0.6">
<path opacity="0.42" d="M124.291 194.103H179.469C181.386 194.103 182.92 192.48 182.92 190.422C182.92 189.432 182.575 188.482 181.885 187.769L168.08 172.962C166.738 171.537 164.553 171.537 163.211 172.962L158.724 177.792L147.374 165.638C146.032 164.213 143.846 164.213 142.504 165.638L121.798 187.848C120.456 189.313 120.494 191.649 121.836 193.074C122.565 193.708 123.409 194.064 124.291 194.103Z" fill="#676363"/>
<path opacity="0.42" d="M168.971 164.569C172.75 164.569 175.814 161.229 175.814 157.109C175.814 152.989 172.75 149.649 168.971 149.649C165.192 149.649 162.129 152.989 162.129 157.109C162.129 161.229 165.192 164.569 168.971 164.569Z" fill="#676363"/>
</g>
<rect x="203" y="137" width="88" height="79" fill="#D9D9D9"/>
<rect x="219" y="201" width="57" height="4" rx="2" fill="#989595"/>
<rect x="209" y="209" width="75" height="3" rx="1.5" fill="#585858"/>
<g opacity="0.6">
<path opacity="0.42" d="M219.291 194.103H274.469C276.386 194.103 277.92 192.48 277.92 190.422C277.92 189.432 277.575 188.482 276.885 187.769L263.08 172.962C261.738 171.537 259.553 171.537 258.211 172.962L253.724 177.792L242.374 165.638C241.032 164.213 238.846 164.213 237.504 165.638L216.798 187.848C215.456 189.313 215.494 191.649 216.836 193.074C217.565 193.708 218.409 194.064 219.291 194.103Z" fill="#676363"/>
<path opacity="0.42" d="M263.971 164.569C267.75 164.569 270.814 161.229 270.814 157.109C270.814 152.989 267.75 149.649 263.971 149.649C260.192 149.649 257.129 152.989 257.129 157.109C257.129 161.229 260.192 164.569 263.971 164.569Z" fill="#676363"/>
</g>
<rect x="297" y="137" width="88" height="79" fill="#D9D9D9"/>
<rect x="313" y="201" width="57" height="4" rx="2" fill="#989595"/>
<rect x="303" y="209" width="75" height="3" rx="1.5" fill="#585858"/>
<g opacity="0.6">
<path opacity="0.42" d="M313.291 194.103H368.469C370.386 194.103 371.92 192.48 371.92 190.422C371.92 189.432 371.575 188.482 370.885 187.769L357.08 172.962C355.738 171.537 353.553 171.537 352.211 172.962L347.724 177.792L336.374 165.638C335.032 164.213 332.846 164.213 331.504 165.638L310.798 187.848C309.456 189.313 309.494 191.649 310.836 193.074C311.565 193.708 312.409 194.064 313.291 194.103Z" fill="#676363"/>
<path opacity="0.42" d="M357.971 164.569C361.75 164.569 364.814 161.229 364.814 157.109C364.814 152.989 361.75 149.649 357.971 149.649C354.192 149.649 351.129 152.989 351.129 157.109C351.129 161.229 354.192 164.569 357.971 164.569Z" fill="#676363"/>
</g>
</svg>
