<svg width="159" height="80" viewBox="0 0 159 80" fill="none" xmlns="http://www.w3.org/2000/svg">
<rect width="159" height="80" fill="white"/>
<path d="M117.34 20.098C116.659 20.098 116.043 19.9813 115.492 19.748C114.951 19.5147 114.521 19.1787 114.204 18.74C113.887 18.3013 113.723 17.7833 113.714 17.186H115.814C115.842 17.5873 115.982 17.9047 116.234 18.138C116.495 18.3713 116.85 18.488 117.298 18.488C117.755 18.488 118.115 18.3807 118.376 18.166C118.637 17.942 118.768 17.6527 118.768 17.298C118.768 17.0087 118.679 16.7707 118.502 16.584C118.325 16.3973 118.101 16.2527 117.83 16.15C117.569 16.038 117.205 15.9167 116.738 15.786C116.103 15.5993 115.585 15.4173 115.184 15.24C114.792 15.0533 114.451 14.778 114.162 14.414C113.882 14.0407 113.742 13.546 113.742 12.93C113.742 12.3513 113.887 11.8473 114.176 11.418C114.465 10.9887 114.871 10.662 115.394 10.438C115.917 10.2047 116.514 10.088 117.186 10.088C118.194 10.088 119.011 10.3353 119.636 10.83C120.271 11.3153 120.621 11.9967 120.686 12.874H118.53C118.511 12.538 118.367 12.2627 118.096 12.048C117.835 11.824 117.485 11.712 117.046 11.712C116.663 11.712 116.355 11.81 116.122 12.006C115.898 12.202 115.786 12.4867 115.786 12.86C115.786 13.1213 115.87 13.3407 116.038 13.518C116.215 13.686 116.43 13.826 116.682 13.938C116.943 14.0407 117.307 14.162 117.774 14.302C118.409 14.4887 118.927 14.6753 119.328 14.862C119.729 15.0487 120.075 15.3287 120.364 15.702C120.653 16.0753 120.798 16.5653 120.798 17.172C120.798 17.6947 120.663 18.18 120.392 18.628C120.121 19.076 119.725 19.4353 119.202 19.706C118.679 19.9673 118.059 20.098 117.34 20.098ZM121.461 15.1C121.461 14.1387 121.676 13.28 122.105 12.524C122.544 11.7587 123.137 11.166 123.883 10.746C124.639 10.3167 125.484 10.102 126.417 10.102C127.509 10.102 128.466 10.382 129.287 10.942C130.109 11.502 130.683 12.2767 131.009 13.266H128.755C128.531 12.7993 128.214 12.4493 127.803 12.216C127.402 11.9827 126.935 11.866 126.403 11.866C125.834 11.866 125.325 12.0013 124.877 12.272C124.439 12.5333 124.093 12.9067 123.841 13.392C123.599 13.8773 123.477 14.4467 123.477 15.1C123.477 15.744 123.599 16.3133 123.841 16.808C124.093 17.2933 124.439 17.6713 124.877 17.942C125.325 18.2033 125.834 18.334 126.403 18.334C126.935 18.334 127.402 18.2173 127.803 17.984C128.214 17.7413 128.531 17.3867 128.755 16.92H131.009C130.683 17.9187 130.109 18.698 129.287 19.258C128.475 19.8087 127.519 20.084 126.417 20.084C125.484 20.084 124.639 19.874 123.883 19.454C123.137 19.0247 122.544 18.432 122.105 17.676C121.676 16.92 121.461 16.0613 121.461 15.1ZM134.083 10.228V20H132.123V10.228H134.083ZM142.11 10.228V11.81H139.506V20H137.546V11.81H134.942V10.228H142.11ZM148.972 18.138H145.08L144.436 20H142.378L145.892 10.214H148.174L151.688 20H149.616L148.972 18.138ZM148.44 16.57L147.026 12.482L145.612 16.57H148.44Z" fill="black"/>
<rect x="26" y="33" width="108" height="34" rx="17" fill="#C6C6C6"/>
<path d="M58.03 55.091C57.3973 55.091 56.8253 54.9827 56.314 54.766C55.8113 54.5493 55.4127 54.2373 55.118 53.83C54.8233 53.4227 54.6717 52.9417 54.663 52.387H56.613C56.639 52.7597 56.769 53.0543 57.003 53.271C57.2457 53.4877 57.575 53.596 57.991 53.596C58.4157 53.596 58.7493 53.4963 58.992 53.297C59.2347 53.089 59.356 52.8203 59.356 52.491C59.356 52.2223 59.2737 52.0013 59.109 51.828C58.9443 51.6547 58.7363 51.5203 58.485 51.425C58.2423 51.321 57.9043 51.2083 57.471 51.087C56.8817 50.9137 56.4007 50.7447 56.028 50.58C55.664 50.4067 55.3477 50.151 55.079 49.813C54.819 49.4663 54.689 49.007 54.689 48.435C54.689 47.8977 54.8233 47.4297 55.092 47.031C55.3607 46.6323 55.7377 46.329 56.223 46.121C56.7083 45.9043 57.263 45.796 57.887 45.796C58.823 45.796 59.5813 46.0257 60.162 46.485C60.7513 46.9357 61.0763 47.5683 61.137 48.383H59.135C59.1177 48.071 58.9833 47.8153 58.732 47.616C58.4893 47.408 58.1643 47.304 57.757 47.304C57.4017 47.304 57.1157 47.395 56.899 47.577C56.691 47.759 56.587 48.0233 56.587 48.37C56.587 48.6127 56.665 48.8163 56.821 48.981C56.9857 49.137 57.185 49.267 57.419 49.371C57.6617 49.4663 57.9997 49.579 58.433 49.709C59.0223 49.8823 59.5033 50.0557 59.876 50.229C60.2487 50.4023 60.5693 50.6623 60.838 51.009C61.1067 51.3557 61.241 51.8107 61.241 52.374C61.241 52.8593 61.1153 53.31 60.864 53.726C60.6127 54.142 60.2443 54.4757 59.759 54.727C59.2737 54.9697 58.6973 55.091 58.03 55.091ZM64.4179 49.293V52.777C64.4179 53.0197 64.4742 53.1973 64.5869 53.31C64.7082 53.414 64.9075 53.466 65.1849 53.466H66.0299V55H64.8859C63.3519 55 62.5849 54.2547 62.5849 52.764V49.293H61.7269V47.798H62.5849V46.017H64.4179V47.798H66.0299V49.293H64.4179ZM73.7089 47.798L69.2499 58.406H67.3129L68.8729 54.818L65.9869 47.798H68.0279L69.8869 52.829L71.7719 47.798H73.7089ZM75.99 45.38V55H74.17V45.38H75.99ZM83.9632 51.243C83.9632 51.503 83.9458 51.737 83.9112 51.945H78.6462C78.6895 52.465 78.8715 52.8723 79.1922 53.167C79.5128 53.4617 79.9072 53.609 80.3752 53.609C81.0512 53.609 81.5322 53.3187 81.8182 52.738H83.7812C83.5732 53.4313 83.1745 54.0033 82.5852 54.454C81.9958 54.896 81.2722 55.117 80.4142 55.117C79.7208 55.117 79.0968 54.9653 78.5422 54.662C77.9962 54.35 77.5672 53.9123 77.2552 53.349C76.9518 52.7857 76.8002 52.1357 76.8002 51.399C76.8002 50.6537 76.9518 49.9993 77.2552 49.436C77.5585 48.8727 77.9832 48.4393 78.5292 48.136C79.0752 47.8327 79.7035 47.681 80.4142 47.681C81.0988 47.681 81.7098 47.8283 82.2472 48.123C82.7932 48.4177 83.2135 48.838 83.5082 49.384C83.8115 49.9213 83.9632 50.541 83.9632 51.243ZM82.0782 50.723C82.0695 50.255 81.9005 49.8823 81.5712 49.605C81.2418 49.319 80.8388 49.176 80.3622 49.176C79.9115 49.176 79.5302 49.3147 79.2182 49.592C78.9148 49.8607 78.7285 50.2377 78.6592 50.723H82.0782ZM87.7133 52.946C88.5453 52.2527 89.2083 51.6763 89.7023 51.217C90.1963 50.749 90.6079 50.2637 90.9373 49.761C91.2666 49.2583 91.4313 48.7643 91.4313 48.279C91.4313 47.837 91.3273 47.4903 91.1193 47.239C90.9113 46.9877 90.5906 46.862 90.1573 46.862C89.7239 46.862 89.3903 47.0093 89.1563 47.304C88.9223 47.59 88.8009 47.9843 88.7923 48.487H87.0243C87.0589 47.447 87.3666 46.6583 87.9473 46.121C88.5366 45.5837 89.2819 45.315 90.1833 45.315C91.1713 45.315 91.9296 45.5793 92.4583 46.108C92.9869 46.628 93.2513 47.317 93.2513 48.175C93.2513 48.851 93.0693 49.4967 92.7053 50.112C92.3413 50.7273 91.9253 51.2647 91.4573 51.724C90.9893 52.1747 90.3783 52.7207 89.6243 53.362H93.4593V54.87H87.0373V53.518L87.7133 52.946Z" fill="#686868"/>
<path d="M103 46L107 50.3548L103 55" stroke="#686868"/>
</svg>
