<svg width="159" height="80" viewBox="0 0 159 80" fill="none" xmlns="http://www.w3.org/2000/svg">
<rect width="159" height="80" fill="white"/>
<path d="M117.34 20.098C116.659 20.098 116.043 19.9813 115.492 19.748C114.951 19.5147 114.521 19.1787 114.204 18.74C113.887 18.3013 113.723 17.7833 113.714 17.186H115.814C115.842 17.5873 115.982 17.9047 116.234 18.138C116.495 18.3713 116.85 18.488 117.298 18.488C117.755 18.488 118.115 18.3807 118.376 18.166C118.637 17.942 118.768 17.6527 118.768 17.298C118.768 17.0087 118.679 16.7707 118.502 16.584C118.325 16.3973 118.101 16.2527 117.83 16.15C117.569 16.038 117.205 15.9167 116.738 15.786C116.103 15.5993 115.585 15.4173 115.184 15.24C114.792 15.0533 114.451 14.778 114.162 14.414C113.882 14.0407 113.742 13.546 113.742 12.93C113.742 12.3513 113.887 11.8473 114.176 11.418C114.465 10.9887 114.871 10.662 115.394 10.438C115.917 10.2047 116.514 10.088 117.186 10.088C118.194 10.088 119.011 10.3353 119.636 10.83C120.271 11.3153 120.621 11.9967 120.686 12.874H118.53C118.511 12.538 118.367 12.2627 118.096 12.048C117.835 11.824 117.485 11.712 117.046 11.712C116.663 11.712 116.355 11.81 116.122 12.006C115.898 12.202 115.786 12.4867 115.786 12.86C115.786 13.1213 115.87 13.3407 116.038 13.518C116.215 13.686 116.43 13.826 116.682 13.938C116.943 14.0407 117.307 14.162 117.774 14.302C118.409 14.4887 118.927 14.6753 119.328 14.862C119.729 15.0487 120.075 15.3287 120.364 15.702C120.653 16.0753 120.798 16.5653 120.798 17.172C120.798 17.6947 120.663 18.18 120.392 18.628C120.121 19.076 119.725 19.4353 119.202 19.706C118.679 19.9673 118.059 20.098 117.34 20.098ZM121.461 15.1C121.461 14.1387 121.676 13.28 122.105 12.524C122.544 11.7587 123.137 11.166 123.883 10.746C124.639 10.3167 125.484 10.102 126.417 10.102C127.509 10.102 128.466 10.382 129.287 10.942C130.109 11.502 130.683 12.2767 131.009 13.266H128.755C128.531 12.7993 128.214 12.4493 127.803 12.216C127.402 11.9827 126.935 11.866 126.403 11.866C125.834 11.866 125.325 12.0013 124.877 12.272C124.439 12.5333 124.093 12.9067 123.841 13.392C123.599 13.8773 123.477 14.4467 123.477 15.1C123.477 15.744 123.599 16.3133 123.841 16.808C124.093 17.2933 124.439 17.6713 124.877 17.942C125.325 18.2033 125.834 18.334 126.403 18.334C126.935 18.334 127.402 18.2173 127.803 17.984C128.214 17.7413 128.531 17.3867 128.755 16.92H131.009C130.683 17.9187 130.109 18.698 129.287 19.258C128.475 19.8087 127.519 20.084 126.417 20.084C125.484 20.084 124.639 19.874 123.883 19.454C123.137 19.0247 122.544 18.432 122.105 17.676C121.676 16.92 121.461 16.0613 121.461 15.1ZM134.083 10.228V20H132.123V10.228H134.083ZM142.11 10.228V11.81H139.506V20H137.546V11.81H134.942V10.228H142.11ZM148.972 18.138H145.08L144.436 20H142.378L145.892 10.214H148.174L151.688 20H149.616L148.972 18.138ZM148.44 16.57L147.026 12.482L145.612 16.57H148.44Z" fill="black"/>
<rect x="26" y="33" width="108" height="34" rx="7" fill="#C6C6C6"/>
<path d="M65.03 55.091C64.3973 55.091 63.8253 54.9827 63.314 54.766C62.8113 54.5493 62.4127 54.2373 62.118 53.83C61.8233 53.4227 61.6717 52.9417 61.663 52.387H63.613C63.639 52.7597 63.769 53.0543 64.003 53.271C64.2457 53.4877 64.575 53.596 64.991 53.596C65.4157 53.596 65.7493 53.4963 65.992 53.297C66.2347 53.089 66.356 52.8203 66.356 52.491C66.356 52.2223 66.2737 52.0013 66.109 51.828C65.9443 51.6547 65.7363 51.5203 65.485 51.425C65.2423 51.321 64.9043 51.2083 64.471 51.087C63.8817 50.9137 63.4007 50.7447 63.028 50.58C62.664 50.4067 62.3477 50.151 62.079 49.813C61.819 49.4663 61.689 49.007 61.689 48.435C61.689 47.8977 61.8233 47.4297 62.092 47.031C62.3607 46.6323 62.7377 46.329 63.223 46.121C63.7083 45.9043 64.263 45.796 64.887 45.796C65.823 45.796 66.5813 46.0257 67.162 46.485C67.7513 46.9357 68.0763 47.5683 68.137 48.383H66.135C66.1177 48.071 65.9833 47.8153 65.732 47.616C65.4893 47.408 65.1643 47.304 64.757 47.304C64.4017 47.304 64.1157 47.395 63.899 47.577C63.691 47.759 63.587 48.0233 63.587 48.37C63.587 48.6127 63.665 48.8163 63.821 48.981C63.9857 49.137 64.185 49.267 64.419 49.371C64.6617 49.4663 64.9997 49.579 65.433 49.709C66.0223 49.8823 66.5033 50.0557 66.876 50.229C67.2487 50.4023 67.5693 50.6623 67.838 51.009C68.1067 51.3557 68.241 51.8107 68.241 52.374C68.241 52.8593 68.1153 53.31 67.864 53.726C67.6127 54.142 67.2443 54.4757 66.759 54.727C66.2737 54.9697 65.6973 55.091 65.03 55.091ZM71.4179 49.293V52.777C71.4179 53.0197 71.4742 53.1973 71.5869 53.31C71.7082 53.414 71.9075 53.466 72.1849 53.466H73.0299V55H71.8859C70.3519 55 69.5849 54.2547 69.5849 52.764V49.293H68.7269V47.798H69.5849V46.017H71.4179V47.798H73.0299V49.293H71.4179ZM80.7089 47.798L76.2499 58.406H74.3129L75.8729 54.818L72.9869 47.798H75.0279L76.8869 52.829L78.7719 47.798H80.7089ZM82.99 45.38V55H81.17V45.38H82.99ZM90.9632 51.243C90.9632 51.503 90.9458 51.737 90.9112 51.945H85.6462C85.6895 52.465 85.8715 52.8723 86.1922 53.167C86.5128 53.4617 86.9072 53.609 87.3752 53.609C88.0512 53.609 88.5322 53.3187 88.8182 52.738H90.7812C90.5732 53.4313 90.1745 54.0033 89.5852 54.454C88.9958 54.896 88.2722 55.117 87.4142 55.117C86.7208 55.117 86.0968 54.9653 85.5422 54.662C84.9962 54.35 84.5672 53.9123 84.2552 53.349C83.9518 52.7857 83.8002 52.1357 83.8002 51.399C83.8002 50.6537 83.9518 49.9993 84.2552 49.436C84.5585 48.8727 84.9832 48.4393 85.5292 48.136C86.0752 47.8327 86.7035 47.681 87.4142 47.681C88.0988 47.681 88.7098 47.8283 89.2472 48.123C89.7932 48.4177 90.2135 48.838 90.5082 49.384C90.8115 49.9213 90.9632 50.541 90.9632 51.243ZM89.0782 50.723C89.0695 50.255 88.9005 49.8823 88.5712 49.605C88.2418 49.319 87.8388 49.176 87.3622 49.176C86.9115 49.176 86.5302 49.3147 86.2182 49.592C85.9148 49.8607 85.7285 50.2377 85.6592 50.723H89.0782ZM93.9203 47.2V45.523H97.0533V55H95.1813V47.2H93.9203Z" fill="#686868"/>
</svg>
