<svg width="400" height="320" viewBox="0 0 400 320" fill="none" xmlns="http://www.w3.org/2000/svg">
<rect width="400" height="320" fill="white"/>
<path d="M240.36 67.392C237.635 67.392 235.171 66.9253 232.968 65.992C230.803 65.0587 229.085 63.7147 227.816 61.96C226.547 60.2053 225.893 58.1333 225.856 55.744H234.256C234.368 57.3493 234.928 58.6187 235.936 59.552C236.981 60.4853 238.4 60.952 240.192 60.952C242.021 60.952 243.459 60.5227 244.504 59.664C245.549 58.768 246.072 57.6107 246.072 56.192C246.072 55.0347 245.717 54.0827 245.008 53.336C244.299 52.5893 243.403 52.0107 242.32 51.6C241.275 51.152 239.819 50.6667 237.952 50.144C235.413 49.3973 233.341 48.6693 231.736 47.96C230.168 47.2133 228.805 46.112 227.648 44.656C226.528 43.1627 225.968 41.184 225.968 38.72C225.968 36.4053 226.547 34.3893 227.704 32.672C228.861 30.9547 230.485 29.648 232.576 28.752C234.667 27.8187 237.056 27.352 239.744 27.352C243.776 27.352 247.043 28.3413 249.544 30.32C252.083 32.2613 253.483 34.9867 253.744 38.496H245.12C245.045 37.152 244.467 36.0507 243.384 35.192C242.339 34.296 240.939 33.848 239.184 33.848C237.653 33.848 236.421 34.24 235.488 35.024C234.592 35.808 234.144 36.9467 234.144 38.44C234.144 39.4853 234.48 40.3627 235.152 41.072C235.861 41.744 236.72 42.304 237.728 42.752C238.773 43.1627 240.229 43.648 242.096 44.208C244.635 44.9547 246.707 45.7013 248.312 46.448C249.917 47.1947 251.299 48.3147 252.456 49.808C253.613 51.3013 254.192 53.2613 254.192 55.688C254.192 57.7787 253.651 59.72 252.568 61.512C251.485 63.304 249.899 64.7413 247.808 65.824C245.717 66.8693 243.235 67.392 240.36 67.392ZM256.845 47.4C256.845 43.5547 257.704 40.12 259.421 37.096C261.176 34.0347 263.546 31.664 266.533 29.984C269.557 28.2667 272.936 27.408 276.669 27.408C281.037 27.408 284.864 28.528 288.149 30.768C291.434 33.008 293.73 36.1067 295.037 40.064H286.021C285.125 38.1973 283.856 36.7973 282.213 35.864C280.608 34.9307 278.741 34.464 276.613 34.464C274.336 34.464 272.301 35.0053 270.509 36.088C268.754 37.1333 267.373 38.6267 266.365 40.568C265.394 42.5093 264.909 44.7867 264.909 47.4C264.909 49.976 265.394 52.2533 266.365 54.232C267.373 56.1733 268.754 57.6853 270.509 58.768C272.301 59.8133 274.336 60.336 276.613 60.336C278.741 60.336 280.608 59.8693 282.213 58.936C283.856 57.9653 285.125 56.5467 286.021 54.68H295.037C293.73 58.6747 291.434 61.792 288.149 64.032C284.901 66.2347 281.074 67.336 276.669 67.336C272.936 67.336 269.557 66.496 266.533 64.816C263.546 63.0987 261.176 60.728 259.421 57.704C257.704 54.68 256.845 51.2453 256.845 47.4ZM307.333 27.912V67H299.493V27.912H307.333ZM339.439 27.912V34.24H329.023V67H321.183V34.24H310.767V27.912H339.439ZM366.888 59.552H351.32L348.744 67H340.512L354.568 27.856H363.696L377.752 67H369.464L366.888 59.552ZM364.76 53.28L359.104 36.928L353.448 53.28H364.76Z" fill="black"/>
<rect x="11" y="146" width="90" height="71" fill="#D9D9D9"/>
<rect x="26" y="175" width="58" height="15" rx="7.5" fill="#242424"/>
<g opacity="0.6">
<path opacity="0.42" d="M27.422 204.427H83.879C85.8407 204.427 87.41 202.766 87.41 200.66C87.41 199.647 87.0569 198.675 86.3507 197.946L72.2266 182.795C70.8535 181.337 68.6171 181.337 67.244 182.795L62.6537 187.737L51.0405 175.301C49.6674 173.843 47.4311 173.843 46.0579 175.301L24.8718 198.027C23.4986 199.525 23.5379 201.915 24.911 203.374C25.6565 204.022 26.5196 204.386 27.422 204.427Z" fill="#676363" fill-opacity="0.5"/>
<path opacity="0.42" d="M73.1378 174.208C77.0045 174.208 80.139 170.79 80.139 166.575C80.139 162.36 77.0045 158.942 73.1378 158.942C69.2712 158.942 66.1367 162.36 66.1367 166.575C66.1367 170.79 69.2712 174.208 73.1378 174.208Z" fill="#676363" fill-opacity="0.5"/>
</g>
<rect x="107" y="146" width="90" height="71" fill="#D9D9D9"/>
<rect x="122" y="175" width="58" height="15" rx="7.5" fill="#242424"/>
<g opacity="0.6">
<path opacity="0.42" d="M123.422 204.427H179.879C181.841 204.427 183.41 202.766 183.41 200.66C183.41 199.647 183.057 198.675 182.351 197.946L168.227 182.795C166.853 181.337 164.617 181.337 163.244 182.795L158.654 187.737L147.041 175.301C145.667 173.843 143.431 173.843 142.058 175.301L120.872 198.027C119.499 199.525 119.538 201.915 120.911 203.374C121.656 204.022 122.52 204.386 123.422 204.427Z" fill="#676363" fill-opacity="0.5"/>
<path opacity="0.42" d="M169.138 174.208C173.004 174.208 176.139 170.79 176.139 166.575C176.139 162.36 173.004 158.942 169.138 158.942C165.271 158.942 162.137 162.36 162.137 166.575C162.137 170.79 165.271 174.208 169.138 174.208Z" fill="#676363" fill-opacity="0.5"/>
</g>
<rect x="203" y="146" width="90" height="71" fill="#D9D9D9"/>
<rect x="218" y="175" width="58" height="15" rx="7.5" fill="#242424"/>
<g opacity="0.6">
<path opacity="0.42" d="M219.422 204.427H275.879C277.841 204.427 279.41 202.766 279.41 200.66C279.41 199.647 279.057 198.675 278.351 197.946L264.227 182.795C262.853 181.337 260.617 181.337 259.244 182.795L254.654 187.737L243.041 175.301C241.667 173.843 239.431 173.843 238.058 175.301L216.872 198.027C215.499 199.525 215.538 201.915 216.911 203.374C217.656 204.022 218.52 204.386 219.422 204.427Z" fill="#676363" fill-opacity="0.5"/>
<path opacity="0.42" d="M265.138 174.208C269.004 174.208 272.139 170.79 272.139 166.575C272.139 162.36 269.004 158.942 265.138 158.942C261.271 158.942 258.137 162.36 258.137 166.575C258.137 170.79 261.271 174.208 265.138 174.208Z" fill="#676363" fill-opacity="0.5"/>
</g>
<rect x="299" y="146" width="90" height="71" fill="#D9D9D9"/>
<rect x="314" y="175" width="58" height="15" rx="7.5" fill="#242424"/>
<g opacity="0.6">
<path opacity="0.42" d="M315.422 204.427H371.879C373.841 204.427 375.41 202.766 375.41 200.66C375.41 199.647 375.057 198.675 374.351 197.946L360.227 182.795C358.853 181.337 356.617 181.337 355.244 182.795L350.654 187.737L339.041 175.301C337.667 173.843 335.431 173.843 334.058 175.301L312.872 198.027C311.499 199.525 311.538 201.915 312.911 203.374C313.656 204.022 314.52 204.386 315.422 204.427Z" fill="#676363" fill-opacity="0.5"/>
<path opacity="0.42" d="M361.138 174.208C365.004 174.208 368.139 170.79 368.139 166.575C368.139 162.36 365.004 158.942 361.138 158.942C357.271 158.942 354.137 162.36 354.137 166.575C354.137 170.79 357.271 174.208 361.138 174.208Z" fill="#676363" fill-opacity="0.5"/>
</g>
</svg>
