<svg width="400" height="320" viewBox="0 0 400 320" fill="none" xmlns="http://www.w3.org/2000/svg">
<rect width="400" height="320" fill="white"/>
<path d="M240.36 67.392C237.635 67.392 235.171 66.9253 232.968 65.992C230.803 65.0587 229.085 63.7147 227.816 61.96C226.547 60.2053 225.893 58.1333 225.856 55.744H234.256C234.368 57.3493 234.928 58.6187 235.936 59.552C236.981 60.4853 238.4 60.952 240.192 60.952C242.021 60.952 243.459 60.5227 244.504 59.664C245.549 58.768 246.072 57.6107 246.072 56.192C246.072 55.0347 245.717 54.0827 245.008 53.336C244.299 52.5893 243.403 52.0107 242.32 51.6C241.275 51.152 239.819 50.6667 237.952 50.144C235.413 49.3973 233.341 48.6693 231.736 47.96C230.168 47.2133 228.805 46.112 227.648 44.656C226.528 43.1627 225.968 41.184 225.968 38.72C225.968 36.4053 226.547 34.3893 227.704 32.672C228.861 30.9547 230.485 29.648 232.576 28.752C234.667 27.8187 237.056 27.352 239.744 27.352C243.776 27.352 247.043 28.3413 249.544 30.32C252.083 32.2613 253.483 34.9867 253.744 38.496H245.12C245.045 37.152 244.467 36.0507 243.384 35.192C242.339 34.296 240.939 33.848 239.184 33.848C237.653 33.848 236.421 34.24 235.488 35.024C234.592 35.808 234.144 36.9467 234.144 38.44C234.144 39.4853 234.48 40.3627 235.152 41.072C235.861 41.744 236.72 42.304 237.728 42.752C238.773 43.1627 240.229 43.648 242.096 44.208C244.635 44.9547 246.707 45.7013 248.312 46.448C249.917 47.1947 251.299 48.3147 252.456 49.808C253.613 51.3013 254.192 53.2613 254.192 55.688C254.192 57.7787 253.651 59.72 252.568 61.512C251.485 63.304 249.899 64.7413 247.808 65.824C245.717 66.8693 243.235 67.392 240.36 67.392ZM256.845 47.4C256.845 43.5547 257.704 40.12 259.421 37.096C261.176 34.0347 263.546 31.664 266.533 29.984C269.557 28.2667 272.936 27.408 276.669 27.408C281.037 27.408 284.864 28.528 288.149 30.768C291.434 33.008 293.73 36.1067 295.037 40.064H286.021C285.125 38.1973 283.856 36.7973 282.213 35.864C280.608 34.9307 278.741 34.464 276.613 34.464C274.336 34.464 272.301 35.0053 270.509 36.088C268.754 37.1333 267.373 38.6267 266.365 40.568C265.394 42.5093 264.909 44.7867 264.909 47.4C264.909 49.976 265.394 52.2533 266.365 54.232C267.373 56.1733 268.754 57.6853 270.509 58.768C272.301 59.8133 274.336 60.336 276.613 60.336C278.741 60.336 280.608 59.8693 282.213 58.936C283.856 57.9653 285.125 56.5467 286.021 54.68H295.037C293.73 58.6747 291.434 61.792 288.149 64.032C284.901 66.2347 281.074 67.336 276.669 67.336C272.936 67.336 269.557 66.496 266.533 64.816C263.546 63.0987 261.176 60.728 259.421 57.704C257.704 54.68 256.845 51.2453 256.845 47.4ZM307.333 27.912V67H299.493V27.912H307.333ZM339.439 27.912V34.24H329.023V67H321.183V34.24H310.767V27.912H339.439ZM366.888 59.552H351.32L348.744 67H340.512L354.568 27.856H363.696L377.752 67H369.464L366.888 59.552ZM364.76 53.28L359.104 36.928L353.448 53.28H364.76Z" fill="black"/>
<rect x="15" y="102" width="79" height="138" fill="#D9D9D9"/>
<rect x="105.5" y="101.5" width="65" height="66" stroke="#DBDBDB"/>
<g opacity="0.6">
<path opacity="0.42" d="M118.409 136.777H156.611C157.938 136.777 159 135.653 159 134.228C159 133.543 158.761 132.885 158.283 132.391L148.726 122.14C147.797 121.153 146.284 121.153 145.355 122.14L142.249 125.484L134.391 117.069C133.462 116.083 131.948 116.083 131.019 117.069L116.684 132.446C115.755 133.46 115.781 135.077 116.71 136.064C117.215 136.503 117.799 136.749 118.409 136.777Z" fill="#676363"/>
<path opacity="0.42" d="M149.344 116.329C151.96 116.329 154.081 114.017 154.081 111.165C154.081 108.312 151.96 106 149.344 106C146.727 106 144.606 108.312 144.606 111.165C144.606 114.017 146.727 116.329 149.344 116.329Z" fill="#676363"/>
</g>
<g opacity="0.6">
<path opacity="0.42" d="M27.4444 191H82.0589C83.9565 191 85.4746 189.393 85.4746 187.356C85.4746 186.376 85.133 185.435 84.4499 184.73L70.7868 170.075C69.4584 168.664 67.2951 168.664 65.9668 170.075L61.5263 174.855L50.2922 162.825C48.9638 161.414 46.8005 161.414 45.4721 162.825L24.9775 184.809C23.6491 186.258 23.6871 188.57 25.0154 189.981C25.7366 190.608 26.5715 190.961 27.4444 191Z" fill="#676363"/>
<path opacity="0.42" d="M71.6691 161.767C75.4095 161.767 78.4417 158.461 78.4417 154.384C78.4417 150.306 75.4095 147 71.6691 147C67.9287 147 64.8965 150.306 64.8965 154.384C64.8965 158.461 67.9287 161.767 71.6691 161.767Z" fill="#676363"/>
</g>
<rect x="112" y="144" width="41" height="3" rx="1.5" fill="#989595"/>
<rect x="112" y="150" width="55" height="3" rx="1.5" fill="#585858"/>
<rect x="112" y="156" width="55" height="8" rx="4" fill="#585858"/>
<rect x="177.5" y="101.5" width="65" height="66" stroke="#DBDBDB"/>
<g opacity="0.6">
<path opacity="0.42" d="M190.409 136.777H228.611C229.938 136.777 231 135.653 231 134.228C231 133.543 230.761 132.885 230.283 132.391L220.726 122.14C219.797 121.153 218.284 121.153 217.355 122.14L214.249 125.484L206.391 117.069C205.462 116.083 203.948 116.083 203.019 117.069L188.684 132.446C187.755 133.46 187.781 135.077 188.71 136.064C189.215 136.503 189.799 136.749 190.409 136.777Z" fill="#676363"/>
<path opacity="0.42" d="M221.344 116.329C223.96 116.329 226.081 114.017 226.081 111.165C226.081 108.312 223.96 106 221.344 106C218.727 106 216.606 108.312 216.606 111.165C216.606 114.017 218.727 116.329 221.344 116.329Z" fill="#676363"/>
</g>
<rect x="184" y="144" width="41" height="3" rx="1.5" fill="#989595"/>
<rect x="184" y="150" width="55" height="3" rx="1.5" fill="#585858"/>
<rect x="184" y="156" width="55" height="8" rx="4" fill="#585858"/>
<rect x="249.5" y="101.5" width="65" height="66" stroke="#DBDBDB"/>
<g opacity="0.6">
<path opacity="0.42" d="M262.409 136.777H300.611C301.938 136.777 303 135.653 303 134.228C303 133.543 302.761 132.885 302.283 132.391L292.726 122.14C291.797 121.153 290.284 121.153 289.355 122.14L286.249 125.484L278.391 117.069C277.462 116.083 275.948 116.083 275.019 117.069L260.684 132.446C259.755 133.46 259.781 135.077 260.71 136.064C261.215 136.503 261.799 136.749 262.409 136.777Z" fill="#676363"/>
<path opacity="0.42" d="M293.344 116.329C295.96 116.329 298.081 114.017 298.081 111.165C298.081 108.312 295.96 106 293.344 106C290.727 106 288.606 108.312 288.606 111.165C288.606 114.017 290.727 116.329 293.344 116.329Z" fill="#676363"/>
</g>
<rect x="256" y="144" width="41" height="3" rx="1.5" fill="#989595"/>
<rect x="256" y="150" width="55" height="3" rx="1.5" fill="#585858"/>
<rect x="256" y="156" width="55" height="8" rx="4" fill="#585858"/>
<rect x="321.5" y="101.5" width="65" height="66" stroke="#DBDBDB"/>
<g opacity="0.6">
<path opacity="0.42" d="M334.409 136.777H372.611C373.938 136.777 375 135.653 375 134.228C375 133.543 374.761 132.885 374.283 132.391L364.726 122.14C363.797 121.153 362.284 121.153 361.355 122.14L358.249 125.484L350.391 117.069C349.462 116.083 347.948 116.083 347.019 117.069L332.684 132.446C331.755 133.46 331.781 135.077 332.71 136.064C333.215 136.503 333.799 136.749 334.409 136.777Z" fill="#676363"/>
<path opacity="0.42" d="M365.344 116.329C367.96 116.329 370.081 114.017 370.081 111.165C370.081 108.312 367.96 106 365.344 106C362.727 106 360.606 108.312 360.606 111.165C360.606 114.017 362.727 116.329 365.344 116.329Z" fill="#676363"/>
</g>
<rect x="328" y="144" width="41" height="3" rx="1.5" fill="#989595"/>
<rect x="328" y="150" width="55" height="3" rx="1.5" fill="#585858"/>
<rect x="328" y="156" width="55" height="8" rx="4" fill="#585858"/>
<rect x="105.5" y="174.5" width="65" height="66" stroke="#DBDBDB"/>
<g opacity="0.6">
<path opacity="0.42" d="M118.409 209.777H156.611C157.938 209.777 159 208.653 159 207.228C159 206.542 158.761 205.885 158.283 205.391L148.726 195.14C147.797 194.153 146.284 194.153 145.355 195.14L142.249 198.484L134.391 190.069C133.462 189.082 131.948 189.082 131.019 190.069L116.684 205.446C115.755 206.46 115.781 208.077 116.71 209.064C117.215 209.503 117.799 209.749 118.409 209.777Z" fill="#676363"/>
<path opacity="0.42" d="M149.344 189.329C151.96 189.329 154.081 187.017 154.081 184.165C154.081 181.312 151.96 179 149.344 179C146.727 179 144.606 181.312 144.606 184.165C144.606 187.017 146.727 189.329 149.344 189.329Z" fill="#676363"/>
</g>
<rect x="112" y="217" width="41" height="3" rx="1.5" fill="#989595"/>
<rect x="112" y="223" width="55" height="3" rx="1.5" fill="#585858"/>
<rect x="112" y="229" width="55" height="8" rx="4" fill="#585858"/>
<rect x="177.5" y="174.5" width="65" height="66" stroke="#DBDBDB"/>
<g opacity="0.6">
<path opacity="0.42" d="M190.409 209.777H228.611C229.938 209.777 231 208.653 231 207.228C231 206.542 230.761 205.885 230.283 205.391L220.726 195.14C219.797 194.153 218.284 194.153 217.355 195.14L214.249 198.484L206.391 190.069C205.462 189.082 203.948 189.082 203.019 190.069L188.684 205.446C187.755 206.46 187.781 208.077 188.71 209.064C189.215 209.503 189.799 209.749 190.409 209.777Z" fill="#676363"/>
<path opacity="0.42" d="M221.344 189.329C223.96 189.329 226.081 187.017 226.081 184.165C226.081 181.312 223.96 179 221.344 179C218.727 179 216.606 181.312 216.606 184.165C216.606 187.017 218.727 189.329 221.344 189.329Z" fill="#676363"/>
</g>
<rect x="184" y="217" width="41" height="3" rx="1.5" fill="#989595"/>
<rect x="184" y="223" width="55" height="3" rx="1.5" fill="#585858"/>
<rect x="184" y="229" width="55" height="8" rx="4" fill="#585858"/>
<rect x="249.5" y="174.5" width="65" height="66" stroke="#DBDBDB"/>
<g opacity="0.6">
<path opacity="0.42" d="M262.409 209.777H300.611C301.938 209.777 303 208.653 303 207.228C303 206.542 302.761 205.885 302.283 205.391L292.726 195.14C291.797 194.153 290.284 194.153 289.355 195.14L286.249 198.484L278.391 190.069C277.462 189.082 275.948 189.082 275.019 190.069L260.684 205.446C259.755 206.46 259.781 208.077 260.71 209.064C261.215 209.503 261.799 209.749 262.409 209.777Z" fill="#676363"/>
<path opacity="0.42" d="M293.344 189.329C295.96 189.329 298.081 187.017 298.081 184.165C298.081 181.312 295.96 179 293.344 179C290.727 179 288.606 181.312 288.606 184.165C288.606 187.017 290.727 189.329 293.344 189.329Z" fill="#676363"/>
</g>
<rect x="256" y="217" width="41" height="3" rx="1.5" fill="#989595"/>
<rect x="256" y="223" width="55" height="3" rx="1.5" fill="#585858"/>
<rect x="256" y="229" width="55" height="8" rx="4" fill="#585858"/>
<rect x="321.5" y="174.5" width="65" height="66" stroke="#DBDBDB"/>
<g opacity="0.6">
<path opacity="0.42" d="M334.409 209.777H372.611C373.938 209.777 375 208.653 375 207.228C375 206.542 374.761 205.885 374.283 205.391L364.726 195.14C363.797 194.153 362.284 194.153 361.355 195.14L358.249 198.484L350.391 190.069C349.462 189.082 347.948 189.082 347.019 190.069L332.684 205.446C331.755 206.46 331.781 208.077 332.71 209.064C333.215 209.503 333.799 209.749 334.409 209.777Z" fill="#676363"/>
<path opacity="0.42" d="M365.344 189.329C367.96 189.329 370.081 187.017 370.081 184.165C370.081 181.312 367.96 179 365.344 179C362.727 179 360.606 181.312 360.606 184.165C360.606 187.017 362.727 189.329 365.344 189.329Z" fill="#676363"/>
</g>
<rect x="328" y="217" width="41" height="3" rx="1.5" fill="#989595"/>
<rect x="328" y="223" width="55" height="3" rx="1.5" fill="#585858"/>
<rect x="328" y="229" width="55" height="8" rx="4" fill="#585858"/>
</svg>
