<svg width="400" height="320" viewBox="0 0 400 320" fill="none" xmlns="http://www.w3.org/2000/svg">
<rect width="400" height="320" fill="white"/>
<path d="M240.36 67.392C237.635 67.392 235.171 66.9253 232.968 65.992C230.803 65.0587 229.085 63.7147 227.816 61.96C226.547 60.2053 225.893 58.1333 225.856 55.744H234.256C234.368 57.3493 234.928 58.6187 235.936 59.552C236.981 60.4853 238.4 60.952 240.192 60.952C242.021 60.952 243.459 60.5227 244.504 59.664C245.549 58.768 246.072 57.6107 246.072 56.192C246.072 55.0347 245.717 54.0827 245.008 53.336C244.299 52.5893 243.403 52.0107 242.32 51.6C241.275 51.152 239.819 50.6667 237.952 50.144C235.413 49.3973 233.341 48.6693 231.736 47.96C230.168 47.2133 228.805 46.112 227.648 44.656C226.528 43.1627 225.968 41.184 225.968 38.72C225.968 36.4053 226.547 34.3893 227.704 32.672C228.861 30.9547 230.485 29.648 232.576 28.752C234.667 27.8187 237.056 27.352 239.744 27.352C243.776 27.352 247.043 28.3413 249.544 30.32C252.083 32.2613 253.483 34.9867 253.744 38.496H245.12C245.045 37.152 244.467 36.0507 243.384 35.192C242.339 34.296 240.939 33.848 239.184 33.848C237.653 33.848 236.421 34.24 235.488 35.024C234.592 35.808 234.144 36.9467 234.144 38.44C234.144 39.4853 234.48 40.3627 235.152 41.072C235.861 41.744 236.72 42.304 237.728 42.752C238.773 43.1627 240.229 43.648 242.096 44.208C244.635 44.9547 246.707 45.7013 248.312 46.448C249.917 47.1947 251.299 48.3147 252.456 49.808C253.613 51.3013 254.192 53.2613 254.192 55.688C254.192 57.7787 253.651 59.72 252.568 61.512C251.485 63.304 249.899 64.7413 247.808 65.824C245.717 66.8693 243.235 67.392 240.36 67.392ZM256.845 47.4C256.845 43.5547 257.704 40.12 259.421 37.096C261.176 34.0347 263.546 31.664 266.533 29.984C269.557 28.2667 272.936 27.408 276.669 27.408C281.037 27.408 284.864 28.528 288.149 30.768C291.434 33.008 293.73 36.1067 295.037 40.064H286.021C285.125 38.1973 283.856 36.7973 282.213 35.864C280.608 34.9307 278.741 34.464 276.613 34.464C274.336 34.464 272.301 35.0053 270.509 36.088C268.754 37.1333 267.373 38.6267 266.365 40.568C265.394 42.5093 264.909 44.7867 264.909 47.4C264.909 49.976 265.394 52.2533 266.365 54.232C267.373 56.1733 268.754 57.6853 270.509 58.768C272.301 59.8133 274.336 60.336 276.613 60.336C278.741 60.336 280.608 59.8693 282.213 58.936C283.856 57.9653 285.125 56.5467 286.021 54.68H295.037C293.73 58.6747 291.434 61.792 288.149 64.032C284.901 66.2347 281.074 67.336 276.669 67.336C272.936 67.336 269.557 66.496 266.533 64.816C263.546 63.0987 261.176 60.728 259.421 57.704C257.704 54.68 256.845 51.2453 256.845 47.4ZM307.333 27.912V67H299.493V27.912H307.333ZM339.439 27.912V34.24H329.023V67H321.183V34.24H310.767V27.912H339.439ZM366.888 59.552H351.32L348.744 67H340.512L354.568 27.856H363.696L377.752 67H369.464L366.888 59.552ZM364.76 53.28L359.104 36.928L353.448 53.28H364.76Z" fill="black"/>
<rect x="12" y="138" width="142" height="85" fill="#D9D9D9"/>
<path d="M34.3615 234.354C34.5567 234.158 34.5567 233.842 34.3615 233.646L31.1795 230.464C30.9842 230.269 30.6676 230.269 30.4724 230.464C30.2771 230.66 30.2771 230.976 30.4724 231.172L33.3008 234L30.4724 236.828C30.2771 237.024 30.2771 237.34 30.4724 237.536C30.6676 237.731 30.9842 237.731 31.1795 237.536L34.3615 234.354ZM34.0078 234V234.5H34.0079V234V233.5H34.0078V234Z" fill="#2A2A2A"/>
<path d="M14.6473 233.646C14.4521 233.842 14.4521 234.158 14.6473 234.354L17.8293 237.536C18.0246 237.731 18.3411 237.731 18.5364 237.536C18.7317 237.34 18.7317 237.024 18.5364 236.828L15.708 234L18.5364 231.172C18.7317 230.976 18.7317 230.66 18.5364 230.464C18.3411 230.269 18.0246 230.269 17.8293 230.464L14.6473 233.646ZM15.001 234V233.5H15.0009V234V234.5H15.001V234Z" fill="#2A2A2A"/>
<rect x="21" y="152" width="97" height="4" rx="2" fill="#585858"/>
<rect x="21" y="160" width="97" height="4" rx="2" fill="#585858"/>
<rect x="21" y="168" width="97" height="4" rx="2" fill="#585858"/>
<rect x="21" y="176" width="97" height="4" rx="2" fill="#585858"/>
<rect x="21" y="183" width="97" height="4" rx="2" fill="#585858"/>
<rect x="21" y="191" width="97" height="4" rx="2" fill="#585858"/>
<rect x="21" y="206" width="23" height="3" rx="1.5" fill="#585858"/>
<rect x="132" y="157" width="44" height="44" rx="22" fill="#C2C2C2"/>
<g opacity="0.6">
<path opacity="0.42" d="M140.701 186.733H167.677C168.614 186.733 169.364 185.939 169.364 184.933C169.364 184.449 169.195 183.984 168.858 183.636L162.109 176.397C161.453 175.7 160.385 175.7 159.729 176.397L157.535 178.759L151.986 172.817C151.33 172.12 150.262 172.12 149.606 172.817L139.483 183.675C138.827 184.391 138.845 185.533 139.502 186.23C139.858 186.539 140.27 186.714 140.701 186.733Z" fill="#676363"/>
<path opacity="0.42" d="M162.544 172.294C164.392 172.294 165.89 170.661 165.89 168.647C165.89 166.633 164.392 165 162.544 165C160.697 165 159.199 166.633 159.199 168.647C159.199 170.661 160.697 172.294 162.544 172.294Z" fill="#676363"/>
</g>
<rect x="196" y="136" width="43" height="42" rx="7" fill="#D9D9D9"/>
<g opacity="0.6">
<path opacity="0.42" d="M203.876 168.183H230.852C231.789 168.183 232.539 167.389 232.539 166.383C232.539 165.899 232.37 165.434 232.033 165.086L225.284 157.847C224.628 157.15 223.56 157.15 222.903 157.847L220.71 160.209L215.161 154.266C214.505 153.57 213.437 153.57 212.781 154.266L202.658 165.125C202.002 165.841 202.02 166.983 202.676 167.68C203.033 167.989 203.445 168.163 203.876 168.183Z" fill="#676363"/>
<path opacity="0.42" d="M225.72 153.744C227.568 153.744 229.065 152.111 229.065 150.097C229.065 148.083 227.568 146.45 225.72 146.45C223.873 146.45 222.375 148.083 222.375 150.097C222.375 152.111 223.873 153.744 225.72 153.744Z" fill="#676363"/>
</g>
<rect x="244" y="136" width="43" height="42" rx="7" fill="#D9D9D9"/>
<g opacity="0.6">
<path opacity="0.42" d="M251.876 168.183H278.852C279.789 168.183 280.539 167.389 280.539 166.383C280.539 165.899 280.37 165.434 280.033 165.086L273.284 157.847C272.628 157.15 271.56 157.15 270.903 157.847L268.71 160.209L263.161 154.266C262.505 153.57 261.437 153.57 260.781 154.266L250.658 165.125C250.002 165.841 250.02 166.983 250.676 167.68C251.033 167.989 251.445 168.163 251.876 168.183Z" fill="#676363"/>
<path opacity="0.42" d="M273.72 153.744C275.568 153.744 277.065 152.111 277.065 150.097C277.065 148.083 275.568 146.45 273.72 146.45C271.873 146.45 270.375 148.083 270.375 150.097C270.375 152.111 271.873 153.744 273.72 153.744Z" fill="#676363"/>
</g>
<rect x="292" y="136" width="43" height="42" rx="7" fill="#D9D9D9"/>
<g opacity="0.6">
<path opacity="0.42" d="M299.876 168.183H326.852C327.789 168.183 328.539 167.389 328.539 166.383C328.539 165.899 328.37 165.434 328.033 165.086L321.284 157.847C320.628 157.15 319.56 157.15 318.903 157.847L316.71 160.209L311.161 154.266C310.505 153.57 309.437 153.57 308.781 154.266L298.658 165.125C298.002 165.841 298.02 166.983 298.676 167.68C299.033 167.989 299.445 168.163 299.876 168.183Z" fill="#676363"/>
<path opacity="0.42" d="M321.72 153.744C323.568 153.744 325.065 152.111 325.065 150.097C325.065 148.083 323.568 146.45 321.72 146.45C319.873 146.45 318.375 148.083 318.375 150.097C318.375 152.111 319.873 153.744 321.72 153.744Z" fill="#676363"/>
</g>
<rect x="196" y="181" width="43" height="42" rx="7" fill="#D9D9D9"/>
<g opacity="0.6">
<path opacity="0.42" d="M203.876 213.183H230.852C231.789 213.183 232.539 212.389 232.539 211.383C232.539 210.899 232.37 210.434 232.033 210.086L225.284 202.847C224.628 202.15 223.56 202.15 222.903 202.847L220.71 205.209L215.161 199.266C214.505 198.57 213.437 198.57 212.781 199.266L202.658 210.125C202.002 210.841 202.02 211.983 202.676 212.68C203.033 212.989 203.445 213.163 203.876 213.183Z" fill="#676363"/>
<path opacity="0.42" d="M225.72 198.744C227.568 198.744 229.065 197.111 229.065 195.097C229.065 193.083 227.568 191.45 225.72 191.45C223.873 191.45 222.375 193.083 222.375 195.097C222.375 197.111 223.873 198.744 225.72 198.744Z" fill="#676363"/>
</g>
<rect x="244" y="181" width="43" height="42" rx="7" fill="#D9D9D9"/>
<g opacity="0.6">
<path opacity="0.42" d="M251.876 213.183H278.852C279.789 213.183 280.539 212.389 280.539 211.383C280.539 210.899 280.37 210.434 280.033 210.086L273.284 202.847C272.628 202.15 271.56 202.15 270.903 202.847L268.71 205.209L263.161 199.266C262.505 198.57 261.437 198.57 260.781 199.266L250.658 210.125C250.002 210.841 250.02 211.983 250.676 212.68C251.033 212.989 251.445 213.163 251.876 213.183Z" fill="#676363"/>
<path opacity="0.42" d="M273.72 198.744C275.568 198.744 277.065 197.111 277.065 195.097C277.065 193.083 275.568 191.45 273.72 191.45C271.873 191.45 270.375 193.083 270.375 195.097C270.375 197.111 271.873 198.744 273.72 198.744Z" fill="#676363"/>
</g>
<rect x="292" y="181" width="43" height="42" rx="7" fill="#D9D9D9"/>
<g opacity="0.6">
<path opacity="0.42" d="M299.876 213.183H326.852C327.789 213.183 328.539 212.389 328.539 211.383C328.539 210.899 328.37 210.434 328.033 210.086L321.284 202.847C320.628 202.15 319.56 202.15 318.903 202.847L316.71 205.209L311.161 199.266C310.505 198.57 309.437 198.57 308.781 199.266L298.658 210.125C298.002 210.841 298.02 211.983 298.676 212.68C299.033 212.989 299.445 213.163 299.876 213.183Z" fill="#676363"/>
<path opacity="0.42" d="M321.72 198.744C323.568 198.744 325.065 197.111 325.065 195.097C325.065 193.083 323.568 191.45 321.72 191.45C319.873 191.45 318.375 193.083 318.375 195.097C318.375 197.111 319.873 198.744 321.72 198.744Z" fill="#676363"/>
</g>
<rect x="340" y="135" width="43" height="42" rx="7" fill="#D9D9D9"/>
<g opacity="0.6">
<path opacity="0.42" d="M347.876 167.183H374.852C375.789 167.183 376.539 166.389 376.539 165.383C376.539 164.899 376.37 164.434 376.033 164.086L369.284 156.847C368.628 156.15 367.56 156.15 366.903 156.847L364.71 159.209L359.161 153.266C358.505 152.57 357.437 152.57 356.781 153.266L346.658 164.125C346.002 164.841 346.02 165.983 346.676 166.68C347.033 166.989 347.445 167.163 347.876 167.183Z" fill="#676363"/>
<path opacity="0.42" d="M369.72 152.744C371.568 152.744 373.065 151.111 373.065 149.097C373.065 147.083 371.568 145.45 369.72 145.45C367.873 145.45 366.375 147.083 366.375 149.097C366.375 151.111 367.873 152.744 369.72 152.744Z" fill="#676363"/>
</g>
<rect x="12" y="117" width="79" height="7" rx="3.5" fill="#989595"/>
<rect x="196" y="117" width="79" height="7" rx="3.5" fill="#989595"/>
</svg>
