<svg width="165" height="80" viewBox="0 0 165 80" fill="none" xmlns="http://www.w3.org/2000/svg">
<rect width="165" height="80" fill="white"/>
<path d="M122.305 17.098C121.623 17.098 121.007 16.9813 120.457 16.748C119.915 16.5147 119.486 16.1787 119.169 15.74C118.851 15.3013 118.688 14.7833 118.679 14.186H120.779C120.807 14.5873 120.947 14.9047 121.199 15.138C121.46 15.3713 121.815 15.488 122.263 15.488C122.72 15.488 123.079 15.3807 123.341 15.166C123.602 14.942 123.733 14.6527 123.733 14.298C123.733 14.0087 123.644 13.7707 123.467 13.584C123.289 13.3973 123.065 13.2527 122.795 13.15C122.533 13.038 122.169 12.9167 121.703 12.786C121.068 12.5993 120.55 12.4173 120.149 12.24C119.757 12.0533 119.416 11.778 119.127 11.414C118.847 11.0407 118.707 10.546 118.707 9.93C118.707 9.35133 118.851 8.84733 119.141 8.418C119.43 7.98867 119.836 7.662 120.359 7.438C120.881 7.20467 121.479 7.088 122.151 7.088C123.159 7.088 123.975 7.33533 124.601 7.83C125.235 8.31533 125.585 8.99667 125.651 9.874H123.495C123.476 9.538 123.331 9.26267 123.061 9.048C122.799 8.824 122.449 8.712 122.011 8.712C121.628 8.712 121.32 8.81 121.087 9.006C120.863 9.202 120.751 9.48667 120.751 9.86C120.751 10.1213 120.835 10.3407 121.003 10.518C121.18 10.686 121.395 10.826 121.647 10.938C121.908 11.0407 122.272 11.162 122.739 11.302C123.373 11.4887 123.891 11.6753 124.293 11.862C124.694 12.0487 125.039 12.3287 125.329 12.702C125.618 13.0753 125.763 13.5653 125.763 14.172C125.763 14.6947 125.627 15.18 125.357 15.628C125.086 16.076 124.689 16.4353 124.167 16.706C123.644 16.9673 123.023 17.098 122.305 17.098ZM126.426 12.1C126.426 11.1387 126.641 10.28 127.07 9.524C127.509 8.75867 128.101 8.166 128.848 7.746C129.604 7.31667 130.449 7.102 131.382 7.102C132.474 7.102 133.431 7.382 134.252 7.942C135.073 8.502 135.647 9.27667 135.974 10.266H133.72C133.496 9.79933 133.179 9.44933 132.768 9.216C132.367 8.98267 131.9 8.866 131.368 8.866C130.799 8.866 130.29 9.00133 129.842 9.272C129.403 9.53333 129.058 9.90667 128.806 10.392C128.563 10.8773 128.442 11.4467 128.442 12.1C128.442 12.744 128.563 13.3133 128.806 13.808C129.058 14.2933 129.403 14.6713 129.842 14.942C130.29 15.2033 130.799 15.334 131.368 15.334C131.9 15.334 132.367 15.2173 132.768 14.984C133.179 14.7413 133.496 14.3867 133.72 13.92H135.974C135.647 14.9187 135.073 15.698 134.252 16.258C133.44 16.8087 132.483 17.084 131.382 17.084C130.449 17.084 129.604 16.874 128.848 16.454C128.101 16.0247 127.509 15.432 127.07 14.676C126.641 13.92 126.426 13.0613 126.426 12.1ZM139.048 7.228V17H137.088V7.228H139.048ZM147.074 7.228V8.81H144.47V17H142.51V8.81H139.906V7.228H147.074ZM153.937 15.138H150.045L149.401 17H147.343L150.857 7.214H153.139L156.653 17H154.581L153.937 15.138ZM153.405 13.57L151.991 9.482L150.577 13.57H153.405Z" fill="black"/>
<rect x="7" y="45" width="148" height="9" rx="4.5" fill="black"/>
<rect x="15" y="49" width="10" height="1" rx="0.5" fill="white"/>
<rect x="28" y="49" width="11" height="1" rx="0.5" fill="white"/>
<rect x="41" y="49" width="11" height="1" rx="0.5" fill="white"/>
<rect x="55" y="49" width="10" height="1" rx="0.5" fill="white"/>
<rect x="68" y="49" width="11" height="1" rx="0.5" fill="white"/>
<rect x="81" y="49" width="11" height="1" rx="0.5" fill="white"/>
<rect x="95" y="49" width="11" height="1" rx="0.5" fill="white"/>
<rect x="108" y="49" width="11" height="1" rx="0.5" fill="white"/>
<path d="M73.5939 41.223H75.2039V42H72.6139V37.114H73.5939V41.223ZM77.8148 42.049C77.3575 42.049 76.9375 41.9417 76.5548 41.727C76.1722 41.5123 75.8688 41.216 75.6448 40.838C75.4208 40.4553 75.3088 40.0237 75.3088 39.543C75.3088 39.067 75.4208 38.64 75.6448 38.262C75.8688 37.8793 76.1722 37.5807 76.5548 37.366C76.9375 37.1513 77.3575 37.044 77.8148 37.044C78.2768 37.044 78.6968 37.1513 79.0748 37.366C79.4575 37.5807 79.7585 37.8793 79.9778 38.262C80.2018 38.64 80.3138 39.067 80.3138 39.543C80.3138 40.0237 80.2018 40.4553 79.9778 40.838C79.7585 41.216 79.4575 41.5123 79.0748 41.727C78.6922 41.9417 78.2722 42.049 77.8148 42.049ZM77.8148 41.174C78.1088 41.174 78.3678 41.1087 78.5918 40.978C78.8158 40.8427 78.9908 40.6513 79.1168 40.404C79.2428 40.1567 79.3058 39.8697 79.3058 39.543C79.3058 39.2163 79.2428 38.9317 79.1168 38.689C78.9908 38.4417 78.8158 38.2527 78.5918 38.122C78.3678 37.9913 78.1088 37.926 77.8148 37.926C77.5208 37.926 77.2595 37.9913 77.0308 38.122C76.8068 38.2527 76.6318 38.4417 76.5058 38.689C76.3798 38.9317 76.3168 39.2163 76.3168 39.543C76.3168 39.8697 76.3798 40.1567 76.5058 40.404C76.6318 40.6513 76.8068 40.8427 77.0308 40.978C77.2595 41.1087 77.5208 41.174 77.8148 41.174ZM84.1649 38.584C84.0529 38.3787 83.8989 38.2223 83.7029 38.115C83.5069 38.0077 83.2783 37.954 83.0169 37.954C82.7276 37.954 82.4709 38.0193 82.2469 38.15C82.0229 38.2807 81.8479 38.4673 81.7219 38.71C81.5959 38.9527 81.5329 39.2327 81.5329 39.55C81.5329 39.8767 81.5959 40.1613 81.7219 40.404C81.8526 40.6467 82.0323 40.8333 82.2609 40.964C82.4896 41.0947 82.7556 41.16 83.0589 41.16C83.4323 41.16 83.7379 41.062 83.9759 40.866C84.2139 40.6653 84.3703 40.3877 84.4449 40.033H82.7649V39.284H85.4109V40.138C85.3456 40.4787 85.2056 40.7937 84.9909 41.083C84.7763 41.3723 84.4986 41.6057 84.1579 41.783C83.8219 41.9557 83.4439 42.042 83.0239 42.042C82.5526 42.042 82.1256 41.937 81.7429 41.727C81.3649 41.5123 81.0663 41.216 80.8469 40.838C80.6323 40.46 80.5249 40.0307 80.5249 39.55C80.5249 39.0693 80.6323 38.64 80.8469 38.262C81.0663 37.8793 81.3649 37.583 81.7429 37.373C82.1256 37.1583 82.5503 37.051 83.0169 37.051C83.5676 37.051 84.0459 37.1863 84.4519 37.457C84.8579 37.723 85.1379 38.0987 85.2919 38.584H84.1649ZM88.124 42.049C87.6666 42.049 87.2466 41.9417 86.864 41.727C86.4813 41.5123 86.178 41.216 85.954 40.838C85.73 40.4553 85.618 40.0237 85.618 39.543C85.618 39.067 85.73 38.64 85.954 38.262C86.178 37.8793 86.4813 37.5807 86.864 37.366C87.2466 37.1513 87.6666 37.044 88.124 37.044C88.586 37.044 89.006 37.1513 89.384 37.366C89.7666 37.5807 90.0676 37.8793 90.287 38.262C90.511 38.64 90.623 39.067 90.623 39.543C90.623 40.0237 90.511 40.4553 90.287 40.838C90.0676 41.216 89.7666 41.5123 89.384 41.727C89.0013 41.9417 88.5813 42.049 88.124 42.049ZM88.124 41.174C88.418 41.174 88.677 41.1087 88.901 40.978C89.125 40.8427 89.3 40.6513 89.426 40.404C89.552 40.1567 89.615 39.8697 89.615 39.543C89.615 39.2163 89.552 38.9317 89.426 38.689C89.3 38.4417 89.125 38.2527 88.901 38.122C88.677 37.9913 88.418 37.926 88.124 37.926C87.83 37.926 87.5686 37.9913 87.34 38.122C87.116 38.2527 86.941 38.4417 86.815 38.689C86.689 38.9317 86.626 39.2163 86.626 39.543C86.626 39.8697 86.689 40.1567 86.815 40.404C86.941 40.6513 87.116 40.8427 87.34 40.978C87.5686 41.1087 87.83 41.174 88.124 41.174Z" fill="black"/>
<path d="M149.85 40.25C149.85 39.4216 150.521 38.75 151.35 38.75H153.3C154.128 38.75 154.8 39.4216 154.8 40.25V40.25C154.8 41.0784 154.128 41.75 153.3 41.75H151.35C150.521 41.75 149.85 41.0784 149.85 40.25V40.25Z" fill="black"/>
<path d="M140.363 40.25C140.363 39.4216 141.035 38.75 141.863 38.75H143.813C144.642 38.75 145.313 39.4216 145.313 40.25V40.25C145.313 41.0784 144.642 41.75 143.813 41.75H141.863C141.035 41.75 140.363 41.0784 140.363 40.25V40.25Z" fill="black"/>
<path d="M8 40.5C8 39.6716 8.67157 39 9.5 39H11.45C12.2784 39 12.95 39.6716 12.95 40.5V40.5C12.95 41.3284 12.2784 42 11.45 42H9.5C8.67157 42 8 41.3284 8 40.5V40.5Z" fill="black"/>
<rect x="7" y="25" width="148" height="8" fill="#D9D9D9"/>
<rect x="9" y="27" width="20.8071" height="4" fill="black"/>
<rect x="32.9121" y="27" width="20.8071" height="4" fill="black"/>
</svg>
