<svg width="400" height="320" viewBox="0 0 400 320" fill="none" xmlns="http://www.w3.org/2000/svg">
<rect width="400" height="320" fill="white"/>
<path d="M240.36 67.392C237.635 67.392 235.171 66.9253 232.968 65.992C230.803 65.0587 229.085 63.7147 227.816 61.96C226.547 60.2053 225.893 58.1333 225.856 55.744H234.256C234.368 57.3493 234.928 58.6187 235.936 59.552C236.981 60.4853 238.4 60.952 240.192 60.952C242.021 60.952 243.459 60.5227 244.504 59.664C245.549 58.768 246.072 57.6107 246.072 56.192C246.072 55.0347 245.717 54.0827 245.008 53.336C244.299 52.5893 243.403 52.0107 242.32 51.6C241.275 51.152 239.819 50.6667 237.952 50.144C235.413 49.3973 233.341 48.6693 231.736 47.96C230.168 47.2133 228.805 46.112 227.648 44.656C226.528 43.1627 225.968 41.184 225.968 38.72C225.968 36.4053 226.547 34.3893 227.704 32.672C228.861 30.9547 230.485 29.648 232.576 28.752C234.667 27.8187 237.056 27.352 239.744 27.352C243.776 27.352 247.043 28.3413 249.544 30.32C252.083 32.2613 253.483 34.9867 253.744 38.496H245.12C245.045 37.152 244.467 36.0507 243.384 35.192C242.339 34.296 240.939 33.848 239.184 33.848C237.653 33.848 236.421 34.24 235.488 35.024C234.592 35.808 234.144 36.9467 234.144 38.44C234.144 39.4853 234.48 40.3627 235.152 41.072C235.861 41.744 236.72 42.304 237.728 42.752C238.773 43.1627 240.229 43.648 242.096 44.208C244.635 44.9547 246.707 45.7013 248.312 46.448C249.917 47.1947 251.299 48.3147 252.456 49.808C253.613 51.3013 254.192 53.2613 254.192 55.688C254.192 57.7787 253.651 59.72 252.568 61.512C251.485 63.304 249.899 64.7413 247.808 65.824C245.717 66.8693 243.235 67.392 240.36 67.392ZM256.845 47.4C256.845 43.5547 257.704 40.12 259.421 37.096C261.176 34.0347 263.546 31.664 266.533 29.984C269.557 28.2667 272.936 27.408 276.669 27.408C281.037 27.408 284.864 28.528 288.149 30.768C291.434 33.008 293.73 36.1067 295.037 40.064H286.021C285.125 38.1973 283.856 36.7973 282.213 35.864C280.608 34.9307 278.741 34.464 276.613 34.464C274.336 34.464 272.301 35.0053 270.509 36.088C268.754 37.1333 267.373 38.6267 266.365 40.568C265.394 42.5093 264.909 44.7867 264.909 47.4C264.909 49.976 265.394 52.2533 266.365 54.232C267.373 56.1733 268.754 57.6853 270.509 58.768C272.301 59.8133 274.336 60.336 276.613 60.336C278.741 60.336 280.608 59.8693 282.213 58.936C283.856 57.9653 285.125 56.5467 286.021 54.68H295.037C293.73 58.6747 291.434 61.792 288.149 64.032C284.901 66.2347 281.074 67.336 276.669 67.336C272.936 67.336 269.557 66.496 266.533 64.816C263.546 63.0987 261.176 60.728 259.421 57.704C257.704 54.68 256.845 51.2453 256.845 47.4ZM307.333 27.912V67H299.493V27.912H307.333ZM339.439 27.912V34.24H329.023V67H321.183V34.24H310.767V27.912H339.439ZM366.888 59.552H351.32L348.744 67H340.512L354.568 27.856H363.696L377.752 67H369.464L366.888 59.552ZM364.76 53.28L359.104 36.928L353.448 53.28H364.76Z" fill="black"/>
<rect x="19" y="94" width="91" height="85" fill="#F0F0F0"/>
<path opacity="0.42" d="M33.9221 155H96.1105C98.2713 155 100 153.146 100 150.794C100 149.663 99.6111 148.578 98.8332 147.764L83.2753 130.849C81.7627 129.221 79.2993 129.221 77.7868 130.849L72.7305 136.367L59.9384 122.483C58.4258 120.855 55.9625 120.855 54.4499 122.483L31.1131 147.854C29.6005 149.528 29.6437 152.196 31.1563 153.824C31.9774 154.548 32.9281 154.955 33.9221 155Z" fill="#676363"/>
<path opacity="0.42" d="M84.0218 121.262C88.2239 121.262 91.6305 117.397 91.6305 112.631C91.6305 107.864 88.2239 104 84.0218 104C79.8196 104 76.4131 107.864 76.4131 112.631C76.4131 117.397 79.8196 121.262 84.0218 121.262Z" fill="#676363"/>
<rect x="19" y="179" width="91" height="84" fill="#686868"/>
<rect x="26" y="214" width="53.4329" height="7" rx="3.5" fill="#989595"/>
<rect x="26" y="248" width="27" height="3" rx="1.5" fill="#989595"/>
<path opacity="0.42" d="M35.8142 204C41.2345 204 45.6284 199.971 45.6284 195C45.6284 190.029 41.2345 186 35.8142 186C30.394 186 26 190.029 26 195C26 199.971 30.394 204 35.8142 204Z" fill="white"/>
<rect x="110" y="94" width="90" height="85" fill="#686868"/>
<rect x="116" y="130" width="53.4329" height="7" rx="3.5" fill="#989595"/>
<rect x="116" y="164" width="27" height="3" rx="1.5" fill="#989595"/>
<path opacity="0.42" d="M125.814 120C131.234 120 135.628 115.971 135.628 111C135.628 106.029 131.234 102 125.814 102C120.394 102 116 106.029 116 111C116 115.971 120.394 120 125.814 120Z" fill="white"/>
<rect x="110" y="179" width="90" height="84" fill="#F0F0F0"/>
<path opacity="0.42" d="M123.922 240H186.111C188.271 240 190 238.146 190 235.794C190 234.663 189.611 233.578 188.833 232.764L173.275 215.849C171.763 214.221 169.299 214.221 167.787 215.849L162.73 221.367L149.938 207.483C148.426 205.855 145.962 205.855 144.45 207.483L121.113 232.854C119.6 234.528 119.644 237.196 121.156 238.824C121.977 239.548 122.928 239.955 123.922 240Z" fill="#676363"/>
<path opacity="0.42" d="M174.022 206.262C178.224 206.262 181.63 202.397 181.63 197.631C181.63 192.864 178.224 189 174.022 189C169.82 189 166.413 192.864 166.413 197.631C166.413 202.397 169.82 206.262 174.022 206.262Z" fill="#676363"/>
<rect x="200" y="94" width="91" height="85" fill="#F0F0F0"/>
<path opacity="0.42" d="M214.922 155H277.111C279.271 155 281 153.146 281 150.794C281 149.663 280.611 148.578 279.833 147.764L264.275 130.849C262.763 129.221 260.299 129.221 258.787 130.849L253.73 136.367L240.938 122.483C239.426 120.855 236.962 120.855 235.45 122.483L212.113 147.854C210.6 149.528 210.644 152.196 212.156 153.824C212.977 154.548 213.928 154.955 214.922 155Z" fill="#676363"/>
<path opacity="0.42" d="M265.022 121.262C269.224 121.262 272.63 117.397 272.63 112.631C272.63 107.864 269.224 104 265.022 104C260.82 104 257.413 107.864 257.413 112.631C257.413 117.397 260.82 121.262 265.022 121.262Z" fill="#676363"/>
<rect x="200" y="179" width="91" height="84" fill="#686868"/>
<rect x="208" y="214" width="53.4329" height="7" rx="3.5" fill="#989595"/>
<rect x="208" y="248" width="27" height="3" rx="1.5" fill="#989595"/>
<path opacity="0.42" d="M217.814 204C223.234 204 227.628 199.971 227.628 195C227.628 190.029 223.234 186 217.814 186C212.394 186 208 190.029 208 195C208 199.971 212.394 204 217.814 204Z" fill="white"/>
<rect x="291" y="94" width="90" height="85" fill="#686868"/>
<rect x="299" y="130" width="53.4329" height="7" rx="3.5" fill="#989595"/>
<rect x="299" y="164" width="27" height="3" rx="1.5" fill="#989595"/>
<path opacity="0.42" d="M308.814 120C314.234 120 318.628 115.971 318.628 111C318.628 106.029 314.234 102 308.814 102C303.394 102 299 106.029 299 111C299 115.971 303.394 120 308.814 120Z" fill="white"/>
<rect x="291" y="179" width="90" height="84" fill="#F0F0F0"/>
<path opacity="0.42" d="M304.922 246H367.111C369.271 246 371 244.146 371 241.794C371 240.663 370.611 239.578 369.833 238.764L354.275 221.849C352.763 220.221 350.299 220.221 348.787 221.849L343.73 227.367L330.938 213.483C329.426 211.855 326.962 211.855 325.45 213.483L302.113 238.854C300.6 240.528 300.644 243.196 302.156 244.824C302.977 245.548 303.928 245.955 304.922 246Z" fill="#676363"/>
<path opacity="0.42" d="M355.022 212.262C359.224 212.262 362.63 208.397 362.63 203.631C362.63 198.864 359.224 195 355.022 195C350.82 195 347.413 198.864 347.413 203.631C347.413 208.397 350.82 212.262 355.022 212.262Z" fill="#676363"/>
</svg>
