<svg width="400" height="320" viewBox="0 0 400 320" fill="none" xmlns="http://www.w3.org/2000/svg">
<rect width="400" height="320" fill="white"/>
<path d="M240.36 67.392C237.635 67.392 235.171 66.9253 232.968 65.992C230.803 65.0587 229.085 63.7147 227.816 61.96C226.547 60.2053 225.893 58.1333 225.856 55.744H234.256C234.368 57.3493 234.928 58.6187 235.936 59.552C236.981 60.4853 238.4 60.952 240.192 60.952C242.021 60.952 243.459 60.5227 244.504 59.664C245.549 58.768 246.072 57.6107 246.072 56.192C246.072 55.0347 245.717 54.0827 245.008 53.336C244.299 52.5893 243.403 52.0107 242.32 51.6C241.275 51.152 239.819 50.6667 237.952 50.144C235.413 49.3973 233.341 48.6693 231.736 47.96C230.168 47.2133 228.805 46.112 227.648 44.656C226.528 43.1627 225.968 41.184 225.968 38.72C225.968 36.4053 226.547 34.3893 227.704 32.672C228.861 30.9547 230.485 29.648 232.576 28.752C234.667 27.8187 237.056 27.352 239.744 27.352C243.776 27.352 247.043 28.3413 249.544 30.32C252.083 32.2613 253.483 34.9867 253.744 38.496H245.12C245.045 37.152 244.467 36.0507 243.384 35.192C242.339 34.296 240.939 33.848 239.184 33.848C237.653 33.848 236.421 34.24 235.488 35.024C234.592 35.808 234.144 36.9467 234.144 38.44C234.144 39.4853 234.48 40.3627 235.152 41.072C235.861 41.744 236.72 42.304 237.728 42.752C238.773 43.1627 240.229 43.648 242.096 44.208C244.635 44.9547 246.707 45.7013 248.312 46.448C249.917 47.1947 251.299 48.3147 252.456 49.808C253.613 51.3013 254.192 53.2613 254.192 55.688C254.192 57.7787 253.651 59.72 252.568 61.512C251.485 63.304 249.899 64.7413 247.808 65.824C245.717 66.8693 243.235 67.392 240.36 67.392ZM256.845 47.4C256.845 43.5547 257.704 40.12 259.421 37.096C261.176 34.0347 263.546 31.664 266.533 29.984C269.557 28.2667 272.936 27.408 276.669 27.408C281.037 27.408 284.864 28.528 288.149 30.768C291.434 33.008 293.73 36.1067 295.037 40.064H286.021C285.125 38.1973 283.856 36.7973 282.213 35.864C280.608 34.9307 278.741 34.464 276.613 34.464C274.336 34.464 272.301 35.0053 270.509 36.088C268.754 37.1333 267.373 38.6267 266.365 40.568C265.394 42.5093 264.909 44.7867 264.909 47.4C264.909 49.976 265.394 52.2533 266.365 54.232C267.373 56.1733 268.754 57.6853 270.509 58.768C272.301 59.8133 274.336 60.336 276.613 60.336C278.741 60.336 280.608 59.8693 282.213 58.936C283.856 57.9653 285.125 56.5467 286.021 54.68H295.037C293.73 58.6747 291.434 61.792 288.149 64.032C284.901 66.2347 281.074 67.336 276.669 67.336C272.936 67.336 269.557 66.496 266.533 64.816C263.546 63.0987 261.176 60.728 259.421 57.704C257.704 54.68 256.845 51.2453 256.845 47.4ZM307.333 27.912V67H299.493V27.912H307.333ZM339.439 27.912V34.24H329.023V67H321.183V34.24H310.767V27.912H339.439ZM366.888 59.552H351.32L348.744 67H340.512L354.568 27.856H363.696L377.752 67H369.464L366.888 59.552ZM364.76 53.28L359.104 36.928L353.448 53.28H364.76Z" fill="black"/>
<rect x="24" y="139" width="82" height="76" fill="#D9D9D9"/>
<rect x="31" y="180" width="70" height="15" rx="2" fill="#D3D1D1"/>
<rect x="49" y="193" width="34" height="3" rx="1.5" fill="#989595"/>
<rect x="45" y="185" width="40" height="5" rx="2.5" fill="#726C6C"/>
<g opacity="0.3">
<path opacity="0.42" d="M42.053 185H90.4614C92.1434 185 93.4891 183.576 93.4891 181.77C93.4891 180.902 93.1863 180.068 92.5808 179.443L80.4703 166.453C79.2929 165.202 77.3754 165.202 76.1979 166.453L72.262 170.69L62.3045 160.027C61.1271 158.777 59.2096 158.777 58.0322 160.027L39.8664 179.512C38.689 180.797 38.7226 182.847 39.9001 184.097C40.5392 184.653 41.2793 184.965 42.053 185Z" fill="#676363"/>
<path opacity="0.42" d="M81.2521 159.089C84.5674 159.089 87.2551 156.159 87.2551 152.545C87.2551 148.93 84.5674 146 81.2521 146C77.9367 146 75.249 148.93 75.249 152.545C75.249 156.159 77.9367 159.089 81.2521 159.089Z" fill="#676363"/>
</g>
<rect x="114" y="139" width="82" height="76" fill="#D9D9D9"/>
<rect x="121" y="180" width="70" height="15" rx="2" fill="#D3D1D1"/>
<rect x="139" y="193" width="34" height="3" rx="1.5" fill="#989595"/>
<rect x="135" y="185" width="40" height="5" rx="2.5" fill="#726C6C"/>
<g opacity="0.3">
<path opacity="0.42" d="M132.053 185H180.461C182.143 185 183.489 183.576 183.489 181.77C183.489 180.902 183.186 180.068 182.581 179.443L170.47 166.453C169.293 165.202 167.375 165.202 166.198 166.453L162.262 170.69L152.304 160.027C151.127 158.777 149.21 158.777 148.032 160.027L129.866 179.512C128.689 180.797 128.723 182.847 129.9 184.097C130.539 184.653 131.279 184.965 132.053 185Z" fill="#676363"/>
<path opacity="0.42" d="M171.252 159.089C174.567 159.089 177.255 156.159 177.255 152.545C177.255 148.93 174.567 146 171.252 146C167.937 146 165.249 148.93 165.249 152.545C165.249 156.159 167.937 159.089 171.252 159.089Z" fill="#676363"/>
</g>
<path opacity="0.42" d="M144 210C146.209 210 148 208.209 148 206C148 203.791 146.209 202 144 202C141.791 202 140 203.791 140 206C140 208.209 141.791 210 144 210Z" fill="#8C8C8C"/>
<path opacity="0.42" d="M157 210C159.209 210 161 208.209 161 206C161 203.791 159.209 202 157 202C154.791 202 153 203.791 153 206C153 208.209 154.791 210 157 210Z" fill="#8C8C8C"/>
<path opacity="0.42" d="M168 210C170.209 210 172 208.209 172 206C172 203.791 170.209 202 168 202C165.791 202 164 203.791 164 206C164 208.209 165.791 210 168 210Z" fill="#8C8C8C"/>
<rect x="204" y="139" width="82" height="76" fill="#D9D9D9"/>
<rect x="211" y="180" width="70" height="15" rx="2" fill="#D3D1D1"/>
<rect x="229" y="193" width="34" height="3" rx="1.5" fill="#989595"/>
<rect x="225" y="185" width="40" height="5" rx="2.5" fill="#726C6C"/>
<g opacity="0.3">
<path opacity="0.42" d="M222.053 185H270.461C272.143 185 273.489 183.576 273.489 181.77C273.489 180.902 273.186 180.068 272.581 179.443L260.47 166.453C259.293 165.202 257.375 165.202 256.198 166.453L252.262 170.69L242.304 160.027C241.127 158.777 239.21 158.777 238.032 160.027L219.866 179.512C218.689 180.797 218.723 182.847 219.9 184.097C220.539 184.653 221.279 184.965 222.053 185Z" fill="#676363"/>
<path opacity="0.42" d="M261.252 159.089C264.567 159.089 267.255 156.159 267.255 152.545C267.255 148.93 264.567 146 261.252 146C257.937 146 255.249 148.93 255.249 152.545C255.249 156.159 257.937 159.089 261.252 159.089Z" fill="#676363"/>
</g>
<path opacity="0.42" d="M234 210C236.209 210 238 208.209 238 206C238 203.791 236.209 202 234 202C231.791 202 230 203.791 230 206C230 208.209 231.791 210 234 210Z" fill="#8C8C8C"/>
<path opacity="0.42" d="M247 210C249.209 210 251 208.209 251 206C251 203.791 249.209 202 247 202C244.791 202 243 203.791 243 206C243 208.209 244.791 210 247 210Z" fill="#8C8C8C"/>
<path opacity="0.42" d="M258 210C260.209 210 262 208.209 262 206C262 203.791 260.209 202 258 202C255.791 202 254 203.791 254 206C254 208.209 255.791 210 258 210Z" fill="#8C8C8C"/>
<rect x="294" y="139" width="82" height="76" fill="#D9D9D9"/>
<rect x="301" y="180" width="70" height="15" rx="2" fill="#D3D1D1"/>
<rect x="319" y="193" width="34" height="3" rx="1.5" fill="#989595"/>
<rect x="315" y="185" width="40" height="5" rx="2.5" fill="#726C6C"/>
<g opacity="0.3">
<path opacity="0.42" d="M312.053 185H360.461C362.143 185 363.489 183.576 363.489 181.77C363.489 180.902 363.186 180.068 362.581 179.443L350.47 166.453C349.293 165.202 347.375 165.202 346.198 166.453L342.262 170.69L332.304 160.027C331.127 158.777 329.21 158.777 328.032 160.027L309.866 179.512C308.689 180.797 308.723 182.847 309.9 184.097C310.539 184.653 311.279 184.965 312.053 185Z" fill="#676363"/>
<path opacity="0.42" d="M351.252 159.089C354.567 159.089 357.255 156.159 357.255 152.545C357.255 148.93 354.567 146 351.252 146C347.937 146 345.249 148.93 345.249 152.545C345.249 156.159 347.937 159.089 351.252 159.089Z" fill="#676363"/>
</g>
<path opacity="0.42" d="M324 210C326.209 210 328 208.209 328 206C328 203.791 326.209 202 324 202C321.791 202 320 203.791 320 206C320 208.209 321.791 210 324 210Z" fill="#8C8C8C"/>
<path opacity="0.42" d="M337 210C339.209 210 341 208.209 341 206C341 203.791 339.209 202 337 202C334.791 202 333 203.791 333 206C333 208.209 334.791 210 337 210Z" fill="#8C8C8C"/>
<path opacity="0.42" d="M348 210C350.209 210 352 208.209 352 206C352 203.791 350.209 202 348 202C345.791 202 344 203.791 344 206C344 208.209 345.791 210 348 210Z" fill="#8C8C8C"/>
<path opacity="0.42" d="M53 210C55.2091 210 57 208.209 57 206C57 203.791 55.2091 202 53 202C50.7909 202 49 203.791 49 206C49 208.209 50.7909 210 53 210Z" fill="#8C8C8C"/>
<path opacity="0.42" d="M66 210C68.2091 210 70 208.209 70 206C70 203.791 68.2091 202 66 202C63.7909 202 62 203.791 62 206C62 208.209 63.7909 210 66 210Z" fill="#8C8C8C"/>
<path opacity="0.42" d="M77 210C79.2091 210 81 208.209 81 206C81 203.791 79.2091 202 77 202C74.7909 202 73 203.791 73 206C73 208.209 74.7909 210 77 210Z" fill="#8C8C8C"/>
</svg>
