<svg width="400" height="320" viewBox="0 0 400 320" fill="none" xmlns="http://www.w3.org/2000/svg">
<rect width="400" height="320" fill="white"/>
<path d="M240.36 67.392C237.635 67.392 235.171 66.9253 232.968 65.992C230.803 65.0587 229.085 63.7147 227.816 61.96C226.547 60.2053 225.893 58.1333 225.856 55.744H234.256C234.368 57.3493 234.928 58.6187 235.936 59.552C236.981 60.4853 238.4 60.952 240.192 60.952C242.021 60.952 243.459 60.5227 244.504 59.664C245.549 58.768 246.072 57.6107 246.072 56.192C246.072 55.0347 245.717 54.0827 245.008 53.336C244.299 52.5893 243.403 52.0107 242.32 51.6C241.275 51.152 239.819 50.6667 237.952 50.144C235.413 49.3973 233.341 48.6693 231.736 47.96C230.168 47.2133 228.805 46.112 227.648 44.656C226.528 43.1627 225.968 41.184 225.968 38.72C225.968 36.4053 226.547 34.3893 227.704 32.672C228.861 30.9547 230.485 29.648 232.576 28.752C234.667 27.8187 237.056 27.352 239.744 27.352C243.776 27.352 247.043 28.3413 249.544 30.32C252.083 32.2613 253.483 34.9867 253.744 38.496H245.12C245.045 37.152 244.467 36.0507 243.384 35.192C242.339 34.296 240.939 33.848 239.184 33.848C237.653 33.848 236.421 34.24 235.488 35.024C234.592 35.808 234.144 36.9467 234.144 38.44C234.144 39.4853 234.48 40.3627 235.152 41.072C235.861 41.744 236.72 42.304 237.728 42.752C238.773 43.1627 240.229 43.648 242.096 44.208C244.635 44.9547 246.707 45.7013 248.312 46.448C249.917 47.1947 251.299 48.3147 252.456 49.808C253.613 51.3013 254.192 53.2613 254.192 55.688C254.192 57.7787 253.651 59.72 252.568 61.512C251.485 63.304 249.899 64.7413 247.808 65.824C245.717 66.8693 243.235 67.392 240.36 67.392ZM256.845 47.4C256.845 43.5547 257.704 40.12 259.421 37.096C261.176 34.0347 263.546 31.664 266.533 29.984C269.557 28.2667 272.936 27.408 276.669 27.408C281.037 27.408 284.864 28.528 288.149 30.768C291.434 33.008 293.73 36.1067 295.037 40.064H286.021C285.125 38.1973 283.856 36.7973 282.213 35.864C280.608 34.9307 278.741 34.464 276.613 34.464C274.336 34.464 272.301 35.0053 270.509 36.088C268.754 37.1333 267.373 38.6267 266.365 40.568C265.394 42.5093 264.909 44.7867 264.909 47.4C264.909 49.976 265.394 52.2533 266.365 54.232C267.373 56.1733 268.754 57.6853 270.509 58.768C272.301 59.8133 274.336 60.336 276.613 60.336C278.741 60.336 280.608 59.8693 282.213 58.936C283.856 57.9653 285.125 56.5467 286.021 54.68H295.037C293.73 58.6747 291.434 61.792 288.149 64.032C284.901 66.2347 281.074 67.336 276.669 67.336C272.936 67.336 269.557 66.496 266.533 64.816C263.546 63.0987 261.176 60.728 259.421 57.704C257.704 54.68 256.845 51.2453 256.845 47.4ZM307.333 27.912V67H299.493V27.912H307.333ZM339.439 27.912V34.24H329.023V67H321.183V34.24H310.767V27.912H339.439ZM366.888 59.552H351.32L348.744 67H340.512L354.568 27.856H363.696L377.752 67H369.464L366.888 59.552ZM364.76 53.28L359.104 36.928L353.448 53.28H364.76Z" fill="black"/>
<path d="M240.36 67.392C237.635 67.392 235.171 66.9253 232.968 65.992C230.803 65.0587 229.085 63.7147 227.816 61.96C226.547 60.2053 225.893 58.1333 225.856 55.744H234.256C234.368 57.3493 234.928 58.6187 235.936 59.552C236.981 60.4853 238.4 60.952 240.192 60.952C242.021 60.952 243.459 60.5227 244.504 59.664C245.549 58.768 246.072 57.6107 246.072 56.192C246.072 55.0347 245.717 54.0827 245.008 53.336C244.299 52.5893 243.403 52.0107 242.32 51.6C241.275 51.152 239.819 50.6667 237.952 50.144C235.413 49.3973 233.341 48.6693 231.736 47.96C230.168 47.2133 228.805 46.112 227.648 44.656C226.528 43.1627 225.968 41.184 225.968 38.72C225.968 36.4053 226.547 34.3893 227.704 32.672C228.861 30.9547 230.485 29.648 232.576 28.752C234.667 27.8187 237.056 27.352 239.744 27.352C243.776 27.352 247.043 28.3413 249.544 30.32C252.083 32.2613 253.483 34.9867 253.744 38.496H245.12C245.045 37.152 244.467 36.0507 243.384 35.192C242.339 34.296 240.939 33.848 239.184 33.848C237.653 33.848 236.421 34.24 235.488 35.024C234.592 35.808 234.144 36.9467 234.144 38.44C234.144 39.4853 234.48 40.3627 235.152 41.072C235.861 41.744 236.72 42.304 237.728 42.752C238.773 43.1627 240.229 43.648 242.096 44.208C244.635 44.9547 246.707 45.7013 248.312 46.448C249.917 47.1947 251.299 48.3147 252.456 49.808C253.613 51.3013 254.192 53.2613 254.192 55.688C254.192 57.7787 253.651 59.72 252.568 61.512C251.485 63.304 249.899 64.7413 247.808 65.824C245.717 66.8693 243.235 67.392 240.36 67.392ZM256.845 47.4C256.845 43.5547 257.704 40.12 259.421 37.096C261.176 34.0347 263.546 31.664 266.533 29.984C269.557 28.2667 272.936 27.408 276.669 27.408C281.037 27.408 284.864 28.528 288.149 30.768C291.434 33.008 293.73 36.1067 295.037 40.064H286.021C285.125 38.1973 283.856 36.7973 282.213 35.864C280.608 34.9307 278.741 34.464 276.613 34.464C274.336 34.464 272.301 35.0053 270.509 36.088C268.754 37.1333 267.373 38.6267 266.365 40.568C265.394 42.5093 264.909 44.7867 264.909 47.4C264.909 49.976 265.394 52.2533 266.365 54.232C267.373 56.1733 268.754 57.6853 270.509 58.768C272.301 59.8133 274.336 60.336 276.613 60.336C278.741 60.336 280.608 59.8693 282.213 58.936C283.856 57.9653 285.125 56.5467 286.021 54.68H295.037C293.73 58.6747 291.434 61.792 288.149 64.032C284.901 66.2347 281.074 67.336 276.669 67.336C272.936 67.336 269.557 66.496 266.533 64.816C263.546 63.0987 261.176 60.728 259.421 57.704C257.704 54.68 256.845 51.2453 256.845 47.4ZM307.333 27.912V67H299.493V27.912H307.333ZM339.439 27.912V34.24H329.023V67H321.183V34.24H310.767V27.912H339.439ZM366.888 59.552H351.32L348.744 67H340.512L354.568 27.856H363.696L377.752 67H369.464L366.888 59.552ZM364.76 53.28L359.104 36.928L353.448 53.28H364.76Z" fill="black"/>
<rect x="22" y="139" width="82" height="76" fill="#D9D9D9"/>
<rect x="29" y="180" width="70" height="15" rx="2" fill="#D3D1D1"/>
<rect x="47" y="193" width="34" height="3" rx="1.5" fill="#989595"/>
<rect x="43" y="185" width="40" height="5" rx="2.5" fill="#726C6C"/>
<g opacity="0.3">
<path opacity="0.42" d="M40.053 185H88.4614C90.1434 185 91.489 183.576 91.489 181.77C91.489 180.902 91.1863 180.068 90.5808 179.443L78.4703 166.453C77.2928 165.202 75.3754 165.202 74.1979 166.453L70.262 170.69L60.3045 160.027C59.1271 158.777 57.2096 158.777 56.0322 160.027L37.8664 179.512C36.689 180.797 36.7226 182.847 37.9001 184.097C38.5392 184.653 39.2793 184.965 40.053 185Z" fill="#676363"/>
<path opacity="0.42" d="M79.2521 159.089C82.5674 159.089 85.2551 156.159 85.2551 152.545C85.2551 148.93 82.5674 146 79.2521 146C75.9367 146 73.249 148.93 73.249 152.545C73.249 156.159 75.9367 159.089 79.2521 159.089Z" fill="#676363"/>
</g>
<path opacity="0.42" d="M53 210C55.2091 210 57 208.209 57 206C57 203.791 55.2091 202 53 202C50.7909 202 49 203.791 49 206C49 208.209 50.7909 210 53 210Z" fill="#8C8C8C"/>
<path opacity="0.42" d="M64 210C66.2091 210 68 208.209 68 206C68 203.791 66.2091 202 64 202C61.7909 202 60 203.791 60 206C60 208.209 61.7909 210 64 210Z" fill="#8C8C8C"/>
<path opacity="0.42" d="M75 210C77.2091 210 79 208.209 79 206C79 203.791 77.2091 202 75 202C72.7909 202 71 203.791 71 206C71 208.209 72.7909 210 75 210Z" fill="#8C8C8C"/>
<rect x="112" y="139" width="82" height="76" fill="#D9D9D9"/>
<rect x="119" y="180" width="70" height="15" rx="2" fill="#D3D1D1"/>
<rect x="137" y="193" width="34" height="3" rx="1.5" fill="#989595"/>
<rect x="133" y="185" width="40" height="5" rx="2.5" fill="#726C6C"/>
<path opacity="0.42" d="M130.053 185H178.461C180.143 185 181.489 183.576 181.489 181.77C181.489 180.902 181.186 180.068 180.581 179.443L168.47 166.453C167.293 165.202 165.375 165.202 164.198 166.453L160.262 170.69L150.304 160.027C149.127 158.777 147.21 158.777 146.032 160.027L127.866 179.512C126.689 180.797 126.723 182.847 127.9 184.097C128.539 184.653 129.279 184.965 130.053 185Z" fill="#676363"/>
<path opacity="0.42" d="M169.252 159.089C172.567 159.089 175.255 156.159 175.255 152.545C175.255 148.93 172.567 146 169.252 146C165.937 146 163.249 148.93 163.249 152.545C163.249 156.159 165.937 159.089 169.252 159.089Z" fill="#676363"/>
<path opacity="0.42" d="M143 210C145.209 210 147 208.209 147 206C147 203.791 145.209 202 143 202C140.791 202 139 203.791 139 206C139 208.209 140.791 210 143 210Z" fill="#8C8C8C"/>
<path opacity="0.42" d="M154 210C156.209 210 158 208.209 158 206C158 203.791 156.209 202 154 202C151.791 202 150 203.791 150 206C150 208.209 151.791 210 154 210Z" fill="#8C8C8C"/>
<path opacity="0.42" d="M165 210C167.209 210 169 208.209 169 206C169 203.791 167.209 202 165 202C162.791 202 161 203.791 161 206C161 208.209 162.791 210 165 210Z" fill="#8C8C8C"/>
<rect x="203" y="139" width="82" height="76" fill="#D9D9D9"/>
<rect x="210" y="180" width="70" height="15" rx="2" fill="#D3D1D1"/>
<rect x="228" y="193" width="34" height="3" rx="1.5" fill="#989595"/>
<rect x="224" y="185" width="40" height="5" rx="2.5" fill="#726C6C"/>
<path opacity="0.42" d="M221.053 185H269.461C271.143 185 272.489 183.576 272.489 181.77C272.489 180.902 272.186 180.068 271.581 179.443L259.47 166.453C258.293 165.202 256.375 165.202 255.198 166.453L251.262 170.69L241.304 160.027C240.127 158.777 238.21 158.777 237.032 160.027L218.866 179.512C217.689 180.797 217.723 182.847 218.9 184.097C219.539 184.653 220.279 184.965 221.053 185Z" fill="#676363"/>
<path opacity="0.42" d="M260.252 159.089C263.567 159.089 266.255 156.159 266.255 152.545C266.255 148.93 263.567 146 260.252 146C256.937 146 254.249 148.93 254.249 152.545C254.249 156.159 256.937 159.089 260.252 159.089Z" fill="#676363"/>
<path opacity="0.42" d="M234 210C236.209 210 238 208.209 238 206C238 203.791 236.209 202 234 202C231.791 202 230 203.791 230 206C230 208.209 231.791 210 234 210Z" fill="#8C8C8C"/>
<path opacity="0.42" d="M245 210C247.209 210 249 208.209 249 206C249 203.791 247.209 202 245 202C242.791 202 241 203.791 241 206C241 208.209 242.791 210 245 210Z" fill="#8C8C8C"/>
<path opacity="0.42" d="M256 210C258.209 210 260 208.209 260 206C260 203.791 258.209 202 256 202C253.791 202 252 203.791 252 206C252 208.209 253.791 210 256 210Z" fill="#8C8C8C"/>
<rect x="294" y="139" width="82" height="76" fill="#D9D9D9"/>
<rect x="301" y="180" width="70" height="15" rx="2" fill="#D3D1D1"/>
<rect x="319" y="193" width="34" height="3" rx="1.5" fill="#989595"/>
<rect x="315" y="185" width="40" height="5" rx="2.5" fill="#726C6C"/>
<path opacity="0.42" d="M312.053 185H360.461C362.143 185 363.489 183.576 363.489 181.77C363.489 180.902 363.186 180.068 362.581 179.443L350.47 166.453C349.293 165.202 347.375 165.202 346.198 166.453L342.262 170.69L332.304 160.027C331.127 158.777 329.21 158.777 328.032 160.027L309.866 179.512C308.689 180.797 308.723 182.847 309.9 184.097C310.539 184.653 311.279 184.965 312.053 185Z" fill="#676363"/>
<path opacity="0.42" d="M351.252 159.089C354.567 159.089 357.255 156.159 357.255 152.545C357.255 148.93 354.567 146 351.252 146C347.937 146 345.249 148.93 345.249 152.545C345.249 156.159 347.937 159.089 351.252 159.089Z" fill="#676363"/>
<path opacity="0.42" d="M325 210C327.209 210 329 208.209 329 206C329 203.791 327.209 202 325 202C322.791 202 321 203.791 321 206C321 208.209 322.791 210 325 210Z" fill="#8C8C8C"/>
<path opacity="0.42" d="M336 210C338.209 210 340 208.209 340 206C340 203.791 338.209 202 336 202C333.791 202 332 203.791 332 206C332 208.209 333.791 210 336 210Z" fill="#8C8C8C"/>
<path opacity="0.42" d="M347 210C349.209 210 351 208.209 351 206C351 203.791 349.209 202 347 202C344.791 202 343 203.791 343 206C343 208.209 344.791 210 347 210Z" fill="#8C8C8C"/>
</svg>
