<svg width="400" height="320" viewBox="0 0 400 320" fill="none" xmlns="http://www.w3.org/2000/svg">
<rect width="400" height="320" fill="white"/>
<path d="M240.36 67.392C237.635 67.392 235.171 66.9253 232.968 65.992C230.803 65.0587 229.085 63.7147 227.816 61.96C226.547 60.2053 225.893 58.1333 225.856 55.744H234.256C234.368 57.3493 234.928 58.6187 235.936 59.552C236.981 60.4853 238.4 60.952 240.192 60.952C242.021 60.952 243.459 60.5227 244.504 59.664C245.549 58.768 246.072 57.6107 246.072 56.192C246.072 55.0347 245.717 54.0827 245.008 53.336C244.299 52.5893 243.403 52.0107 242.32 51.6C241.275 51.152 239.819 50.6667 237.952 50.144C235.413 49.3973 233.341 48.6693 231.736 47.96C230.168 47.2133 228.805 46.112 227.648 44.656C226.528 43.1627 225.968 41.184 225.968 38.72C225.968 36.4053 226.547 34.3893 227.704 32.672C228.861 30.9547 230.485 29.648 232.576 28.752C234.667 27.8187 237.056 27.352 239.744 27.352C243.776 27.352 247.043 28.3413 249.544 30.32C252.083 32.2613 253.483 34.9867 253.744 38.496H245.12C245.045 37.152 244.467 36.0507 243.384 35.192C242.339 34.296 240.939 33.848 239.184 33.848C237.653 33.848 236.421 34.24 235.488 35.024C234.592 35.808 234.144 36.9467 234.144 38.44C234.144 39.4853 234.48 40.3627 235.152 41.072C235.861 41.744 236.72 42.304 237.728 42.752C238.773 43.1627 240.229 43.648 242.096 44.208C244.635 44.9547 246.707 45.7013 248.312 46.448C249.917 47.1947 251.299 48.3147 252.456 49.808C253.613 51.3013 254.192 53.2613 254.192 55.688C254.192 57.7787 253.651 59.72 252.568 61.512C251.485 63.304 249.899 64.7413 247.808 65.824C245.717 66.8693 243.235 67.392 240.36 67.392ZM256.845 47.4C256.845 43.5547 257.704 40.12 259.421 37.096C261.176 34.0347 263.546 31.664 266.533 29.984C269.557 28.2667 272.936 27.408 276.669 27.408C281.037 27.408 284.864 28.528 288.149 30.768C291.434 33.008 293.73 36.1067 295.037 40.064H286.021C285.125 38.1973 283.856 36.7973 282.213 35.864C280.608 34.9307 278.741 34.464 276.613 34.464C274.336 34.464 272.301 35.0053 270.509 36.088C268.754 37.1333 267.373 38.6267 266.365 40.568C265.394 42.5093 264.909 44.7867 264.909 47.4C264.909 49.976 265.394 52.2533 266.365 54.232C267.373 56.1733 268.754 57.6853 270.509 58.768C272.301 59.8133 274.336 60.336 276.613 60.336C278.741 60.336 280.608 59.8693 282.213 58.936C283.856 57.9653 285.125 56.5467 286.021 54.68H295.037C293.73 58.6747 291.434 61.792 288.149 64.032C284.901 66.2347 281.074 67.336 276.669 67.336C272.936 67.336 269.557 66.496 266.533 64.816C263.546 63.0987 261.176 60.728 259.421 57.704C257.704 54.68 256.845 51.2453 256.845 47.4ZM307.333 27.912V67H299.493V27.912H307.333ZM339.439 27.912V34.24H329.023V67H321.183V34.24H310.767V27.912H339.439ZM366.888 59.552H351.32L348.744 67H340.512L354.568 27.856H363.696L377.752 67H369.464L366.888 59.552ZM364.76 53.28L359.104 36.928L353.448 53.28H364.76Z" fill="black"/>
<rect x="10" y="127" width="85" height="84" rx="42" fill="#D9D9D9"/>
<g opacity="0.6">
<path opacity="0.42" d="M25.3688 190.726H78.7845C80.6404 190.726 82.1252 189.155 82.1252 187.162C82.1252 186.204 81.7912 185.284 81.123 184.594L67.7598 170.26C66.4606 168.881 64.3448 168.881 63.0456 170.26L58.7026 174.936L47.715 163.17C46.4159 161.79 44.3 161.79 43.0008 163.17L22.956 184.671C21.6568 186.089 21.694 188.35 22.9932 189.73C23.6984 190.343 24.5151 190.688 25.3688 190.726Z" fill="#676363"/>
<path opacity="0.42" d="M68.622 162.136C72.2803 162.136 75.246 158.902 75.246 154.914C75.246 150.926 72.2803 147.693 68.622 147.693C64.9637 147.693 61.998 150.926 61.998 154.914C61.998 158.902 64.9637 162.136 68.622 162.136Z" fill="#676363"/>
</g>
<rect x="33" y="220" width="39.9737" height="5.38017" rx="2.69008" fill="#989595"/>
<rect x="28" y="230" width="49" height="4" rx="2" fill="#585858"/>
<rect x="108" y="127" width="85" height="84" rx="42" fill="#D9D9D9"/>
<g opacity="0.6">
<path opacity="0.42" d="M123.369 190.726H176.784C178.64 190.726 180.125 189.155 180.125 187.162C180.125 186.204 179.791 185.284 179.123 184.594L165.76 170.26C164.461 168.881 162.345 168.881 161.046 170.26L156.703 174.936L145.715 163.17C144.416 161.79 142.3 161.79 141.001 163.17L120.956 184.671C119.657 186.089 119.694 188.35 120.993 189.73C121.698 190.343 122.515 190.688 123.369 190.726Z" fill="#676363"/>
<path opacity="0.42" d="M166.622 162.136C170.28 162.136 173.246 158.902 173.246 154.914C173.246 150.926 170.28 147.693 166.622 147.693C162.964 147.693 159.998 150.926 159.998 154.914C159.998 158.902 162.964 162.136 166.622 162.136Z" fill="#676363"/>
</g>
<rect x="131" y="220" width="39.9737" height="5.38017" rx="2.69008" fill="#989595"/>
<rect x="126" y="230" width="49" height="4" rx="2" fill="#585858"/>
<rect x="206" y="127" width="85" height="84" rx="42" fill="#D9D9D9"/>
<g opacity="0.6">
<path opacity="0.42" d="M221.369 190.726H274.784C276.64 190.726 278.125 189.155 278.125 187.162C278.125 186.204 277.791 185.284 277.123 184.594L263.76 170.26C262.461 168.881 260.345 168.881 259.046 170.26L254.703 174.936L243.715 163.17C242.416 161.79 240.3 161.79 239.001 163.17L218.956 184.671C217.657 186.089 217.694 188.35 218.993 189.73C219.698 190.343 220.515 190.688 221.369 190.726Z" fill="#676363"/>
<path opacity="0.42" d="M264.622 162.136C268.28 162.136 271.246 158.902 271.246 154.914C271.246 150.926 268.28 147.693 264.622 147.693C260.964 147.693 257.998 150.926 257.998 154.914C257.998 158.902 260.964 162.136 264.622 162.136Z" fill="#676363"/>
</g>
<rect x="229" y="220" width="39.9737" height="5.38017" rx="2.69008" fill="#989595"/>
<rect x="224" y="230" width="49" height="4" rx="2" fill="#585858"/>
<rect x="304" y="127" width="85" height="84" rx="42" fill="#D9D9D9"/>
<g opacity="0.6">
<path opacity="0.42" d="M319.369 190.726H372.784C374.64 190.726 376.125 189.155 376.125 187.162C376.125 186.204 375.791 185.284 375.123 184.594L361.76 170.26C360.461 168.881 358.345 168.881 357.046 170.26L352.703 174.936L341.715 163.17C340.416 161.79 338.3 161.79 337.001 163.17L316.956 184.671C315.657 186.089 315.694 188.35 316.993 189.73C317.698 190.343 318.515 190.688 319.369 190.726Z" fill="#676363"/>
<path opacity="0.42" d="M362.622 162.136C366.28 162.136 369.246 158.902 369.246 154.914C369.246 150.926 366.28 147.693 362.622 147.693C358.964 147.693 355.998 150.926 355.998 154.914C355.998 158.902 358.964 162.136 362.622 162.136Z" fill="#676363"/>
</g>
<rect x="327" y="220" width="39.9737" height="5.38017" rx="2.69008" fill="#989595"/>
<rect x="322" y="230" width="49" height="4" rx="2" fill="#585858"/>
</svg>
