<svg width="400" height="320" viewBox="0 0 400 320" fill="none" xmlns="http://www.w3.org/2000/svg">
<rect width="400" height="320" fill="white"/>
<rect x="27" y="89" width="171" height="102" fill="#686868"/>
<path opacity="0.42" d="M66.8696 174.954H152.008C154.967 174.954 157.333 172.377 157.333 169.109C157.333 167.538 156.801 166.029 155.736 164.898L134.436 141.393C132.366 139.131 128.993 139.131 126.922 141.393L120 149.061L102.487 129.767C100.416 127.504 97.0439 127.504 94.9731 129.767L63.0238 165.024C60.953 167.349 61.0122 171.057 63.083 173.32C64.2071 174.325 65.5088 174.891 66.8696 174.954Z" fill="#AEADAD"/>
<path opacity="0.42" d="M136.25 128.07C142.072 128.07 146.791 122.822 146.791 116.349C146.791 109.876 142.072 104.628 136.25 104.628C130.428 104.628 125.708 109.876 125.708 116.349C125.708 122.822 130.428 128.07 136.25 128.07Z" fill="#AEADAD"/>
<rect x="205" y="89" width="81" height="102" fill="#686868"/>
<path opacity="0.42" d="M221.914 155H268.111C269.716 155 271 153.571 271 151.759C271 150.887 270.711 150.051 270.133 149.424L258.576 136.389C257.452 135.134 255.622 135.134 254.499 136.389L250.743 140.641L241.24 129.941C240.116 128.686 238.286 128.686 237.163 129.941L219.827 149.493C218.703 150.783 218.735 152.839 219.859 154.094C220.469 154.651 221.175 154.965 221.914 155Z" fill="#AEADAD"/>
<path opacity="0.42" d="M260 129C263.314 129 266 126.09 266 122.5C266 118.91 263.314 116 260 116C256.686 116 254 118.91 254 122.5C254 126.09 256.686 129 260 129Z" fill="#AEADAD"/>
<rect x="292" y="89" width="80" height="102" fill="#686868"/>
<path opacity="0.42" d="M307.97 155H355.055C356.691 155 358 153.571 358 151.759C358 150.887 357.706 150.051 357.117 149.424L345.337 136.389C344.192 135.134 342.327 135.134 341.181 136.389L337.353 140.641L327.668 129.941C326.522 128.686 324.657 128.686 323.512 129.941L305.843 149.493C304.698 150.783 304.73 152.839 305.875 154.094C306.497 154.651 307.217 154.965 307.97 155Z" fill="#AEADAD"/>
<path opacity="0.42" d="M346 129C349.314 129 352 126.09 352 122.5C352 118.91 349.314 116 346 116C342.686 116 340 118.91 340 122.5C340 126.09 342.686 129 346 129Z" fill="#AEADAD"/>
<rect x="27" y="196" width="82" height="102" fill="#686868"/>
<path opacity="0.42" d="M43.9696 263H91.0551C92.6912 263 94 261.516 94 259.634C94 258.729 93.7055 257.861 93.1165 257.209L81.337 243.673C80.1917 242.37 78.3266 242.37 77.1814 243.673L73.3531 248.088L63.6676 236.977C62.5224 235.674 60.6573 235.674 59.5121 236.977L41.8427 257.282C40.6975 258.621 40.7302 260.756 41.8755 262.059C42.4972 262.638 43.217 262.964 43.9696 263Z" fill="#AEADAD"/>
<path opacity="0.42" d="M82.5 236C85.5376 236 88 233.314 88 230C88 226.686 85.5376 224 82.5 224C79.4624 224 77 226.686 77 230C77 233.314 79.4624 236 82.5 236Z" fill="#AEADAD"/>
<rect x="115" y="196" width="83" height="102" fill="#686868"/>
<path opacity="0.42" d="M132.914 263H179.111C180.716 263 182 261.516 182 259.634C182 258.729 181.711 257.861 181.133 257.209L169.576 243.673C168.452 242.37 166.622 242.37 165.499 243.673L161.743 248.088L152.24 236.977C151.116 235.674 149.286 235.674 148.163 236.977L130.827 257.282C129.703 258.621 129.735 260.756 130.859 262.059C131.469 262.638 132.175 262.964 132.914 263Z" fill="#AEADAD"/>
<path opacity="0.42" d="M171 236C174.314 236 177 233.314 177 230C177 226.686 174.314 224 171 224C167.686 224 165 226.686 165 230C165 233.314 167.686 236 171 236Z" fill="#AEADAD"/>
<rect x="205" y="196" width="167" height="103" fill="#686868"/>
<path opacity="0.42" d="M241.379 282H326.666C329.629 282 332 279.472 332 276.265C332 274.724 331.467 273.244 330.4 272.134L309.063 249.072C306.989 246.853 303.611 246.853 301.536 249.072L294.602 256.595L277.058 237.665C274.984 235.445 271.606 235.445 269.531 237.665L237.526 272.257C235.452 274.539 235.511 278.177 237.586 280.397C238.712 281.383 240.016 281.938 241.379 282Z" fill="#AEADAD"/>
<path opacity="0.42" d="M310.5 236C316.299 236 321 230.627 321 224C321 217.373 316.299 212 310.5 212C304.701 212 300 217.373 300 224C300 230.627 304.701 236 310.5 236Z" fill="#AEADAD"/>
<path d="M240.36 67.392C237.635 67.392 235.171 66.9253 232.968 65.992C230.803 65.0587 229.085 63.7147 227.816 61.96C226.547 60.2053 225.893 58.1333 225.856 55.744H234.256C234.368 57.3493 234.928 58.6187 235.936 59.552C236.981 60.4853 238.4 60.952 240.192 60.952C242.021 60.952 243.459 60.5227 244.504 59.664C245.549 58.768 246.072 57.6107 246.072 56.192C246.072 55.0347 245.717 54.0827 245.008 53.336C244.299 52.5893 243.403 52.0107 242.32 51.6C241.275 51.152 239.819 50.6667 237.952 50.144C235.413 49.3973 233.341 48.6693 231.736 47.96C230.168 47.2133 228.805 46.112 227.648 44.656C226.528 43.1627 225.968 41.184 225.968 38.72C225.968 36.4053 226.547 34.3893 227.704 32.672C228.861 30.9547 230.485 29.648 232.576 28.752C234.667 27.8187 237.056 27.352 239.744 27.352C243.776 27.352 247.043 28.3413 249.544 30.32C252.083 32.2613 253.483 34.9867 253.744 38.496H245.12C245.045 37.152 244.467 36.0507 243.384 35.192C242.339 34.296 240.939 33.848 239.184 33.848C237.653 33.848 236.421 34.24 235.488 35.024C234.592 35.808 234.144 36.9467 234.144 38.44C234.144 39.4853 234.48 40.3627 235.152 41.072C235.861 41.744 236.72 42.304 237.728 42.752C238.773 43.1627 240.229 43.648 242.096 44.208C244.635 44.9547 246.707 45.7013 248.312 46.448C249.917 47.1947 251.299 48.3147 252.456 49.808C253.613 51.3013 254.192 53.2613 254.192 55.688C254.192 57.7787 253.651 59.72 252.568 61.512C251.485 63.304 249.899 64.7413 247.808 65.824C245.717 66.8693 243.235 67.392 240.36 67.392ZM256.845 47.4C256.845 43.5547 257.704 40.12 259.421 37.096C261.176 34.0347 263.546 31.664 266.533 29.984C269.557 28.2667 272.936 27.408 276.669 27.408C281.037 27.408 284.864 28.528 288.149 30.768C291.434 33.008 293.73 36.1067 295.037 40.064H286.021C285.125 38.1973 283.856 36.7973 282.213 35.864C280.608 34.9307 278.741 34.464 276.613 34.464C274.336 34.464 272.301 35.0053 270.509 36.088C268.754 37.1333 267.373 38.6267 266.365 40.568C265.394 42.5093 264.909 44.7867 264.909 47.4C264.909 49.976 265.394 52.2533 266.365 54.232C267.373 56.1733 268.754 57.6853 270.509 58.768C272.301 59.8133 274.336 60.336 276.613 60.336C278.741 60.336 280.608 59.8693 282.213 58.936C283.856 57.9653 285.125 56.5467 286.021 54.68H295.037C293.73 58.6747 291.434 61.792 288.149 64.032C284.901 66.2347 281.074 67.336 276.669 67.336C272.936 67.336 269.557 66.496 266.533 64.816C263.546 63.0987 261.176 60.728 259.421 57.704C257.704 54.68 256.845 51.2453 256.845 47.4ZM307.333 27.912V67H299.493V27.912H307.333ZM339.439 27.912V34.24H329.023V67H321.183V34.24H310.767V27.912H339.439ZM366.888 59.552H351.32L348.744 67H340.512L354.568 27.856H363.696L377.752 67H369.464L366.888 59.552ZM364.76 53.28L359.104 36.928L353.448 53.28H364.76Z" fill="black"/>
</svg>
