<svg width="400" height="320" viewBox="0 0 400 320" fill="none" xmlns="http://www.w3.org/2000/svg">
<rect width="400" height="320" fill="white"/>
<path d="M240.36 67.392C237.635 67.392 235.171 66.9253 232.968 65.992C230.803 65.0587 229.085 63.7147 227.816 61.96C226.547 60.2053 225.893 58.1333 225.856 55.744H234.256C234.368 57.3493 234.928 58.6187 235.936 59.552C236.981 60.4853 238.4 60.952 240.192 60.952C242.021 60.952 243.459 60.5227 244.504 59.664C245.549 58.768 246.072 57.6107 246.072 56.192C246.072 55.0347 245.717 54.0827 245.008 53.336C244.299 52.5893 243.403 52.0107 242.32 51.6C241.275 51.152 239.819 50.6667 237.952 50.144C235.413 49.3973 233.341 48.6693 231.736 47.96C230.168 47.2133 228.805 46.112 227.648 44.656C226.528 43.1627 225.968 41.184 225.968 38.72C225.968 36.4053 226.547 34.3893 227.704 32.672C228.861 30.9547 230.485 29.648 232.576 28.752C234.667 27.8187 237.056 27.352 239.744 27.352C243.776 27.352 247.043 28.3413 249.544 30.32C252.083 32.2613 253.483 34.9867 253.744 38.496H245.12C245.045 37.152 244.467 36.0507 243.384 35.192C242.339 34.296 240.939 33.848 239.184 33.848C237.653 33.848 236.421 34.24 235.488 35.024C234.592 35.808 234.144 36.9467 234.144 38.44C234.144 39.4853 234.48 40.3627 235.152 41.072C235.861 41.744 236.72 42.304 237.728 42.752C238.773 43.1627 240.229 43.648 242.096 44.208C244.635 44.9547 246.707 45.7013 248.312 46.448C249.917 47.1947 251.299 48.3147 252.456 49.808C253.613 51.3013 254.192 53.2613 254.192 55.688C254.192 57.7787 253.651 59.72 252.568 61.512C251.485 63.304 249.899 64.7413 247.808 65.824C245.717 66.8693 243.235 67.392 240.36 67.392ZM256.845 47.4C256.845 43.5547 257.704 40.12 259.421 37.096C261.176 34.0347 263.546 31.664 266.533 29.984C269.557 28.2667 272.936 27.408 276.669 27.408C281.037 27.408 284.864 28.528 288.149 30.768C291.434 33.008 293.73 36.1067 295.037 40.064H286.021C285.125 38.1973 283.856 36.7973 282.213 35.864C280.608 34.9307 278.741 34.464 276.613 34.464C274.336 34.464 272.301 35.0053 270.509 36.088C268.754 37.1333 267.373 38.6267 266.365 40.568C265.394 42.5093 264.909 44.7867 264.909 47.4C264.909 49.976 265.394 52.2533 266.365 54.232C267.373 56.1733 268.754 57.6853 270.509 58.768C272.301 59.8133 274.336 60.336 276.613 60.336C278.741 60.336 280.608 59.8693 282.213 58.936C283.856 57.9653 285.125 56.5467 286.021 54.68H295.037C293.73 58.6747 291.434 61.792 288.149 64.032C284.901 66.2347 281.074 67.336 276.669 67.336C272.936 67.336 269.557 66.496 266.533 64.816C263.546 63.0987 261.176 60.728 259.421 57.704C257.704 54.68 256.845 51.2453 256.845 47.4ZM307.333 27.912V67H299.493V27.912H307.333ZM339.439 27.912V34.24H329.023V67H321.183V34.24H310.767V27.912H339.439ZM366.888 59.552H351.32L348.744 67H340.512L354.568 27.856H363.696L377.752 67H369.464L366.888 59.552ZM364.76 53.28L359.104 36.928L353.448 53.28H364.76Z" fill="black"/>
<rect x="160" y="104" width="102" height="22" rx="11" fill="#989595"/>
<rect x="164" y="109" width="45" height="13" rx="6.5" fill="#585858"/>
<rect x="212" y="112" width="45" height="5" rx="2.5" fill="#ADADAD"/>
<rect x="16" y="143" width="86" height="127" fill="#686868"/>
<rect x="24" y="183" width="69" height="5" rx="2.5" fill="#585858"/>
<rect x="24" y="193" width="69" height="5" rx="2.5" fill="#585858"/>
<rect x="24" y="205" width="69" height="5" rx="2.5" fill="#585858"/>
<rect x="24" y="215" width="69" height="5" rx="2.5" fill="#585858"/>
<rect x="22" y="153" width="26" height="5" rx="2.5" fill="#989595"/>
<path d="M93.34 162.98C93.34 163.673 93.16 164.327 92.8 164.94C92.4533 165.54 91.9333 166.04 91.24 166.44C90.56 166.827 89.7533 167.053 88.82 167.12V168.74H87.54V167.1C86.2067 166.98 85.1333 166.58 84.32 165.9C83.5067 165.207 83.0867 164.273 83.06 163.1H86.06C86.14 164.06 86.6333 164.64 87.54 164.84V161.02C86.58 160.78 85.8067 160.54 85.22 160.3C84.6333 160.06 84.1267 159.673 83.7 159.14C83.2733 158.607 83.06 157.88 83.06 156.96C83.06 155.8 83.4733 154.853 84.3 154.12C85.14 153.387 86.22 152.967 87.54 152.86V151.24H88.82V152.86C90.1 152.967 91.12 153.353 91.88 154.02C92.6533 154.687 93.0867 155.607 93.18 156.78H90.16C90.12 156.393 89.98 156.06 89.74 155.78C89.5133 155.487 89.2067 155.28 88.82 155.16V158.94C89.82 159.193 90.6067 159.44 91.18 159.68C91.7667 159.907 92.2733 160.287 92.7 160.82C93.1267 161.34 93.34 162.06 93.34 162.98ZM85.98 156.82C85.98 157.26 86.1133 157.62 86.38 157.9C86.6467 158.167 87.0333 158.387 87.54 158.56V155.1C87.06 155.167 86.68 155.347 86.4 155.64C86.12 155.933 85.98 156.327 85.98 156.82ZM88.82 164.88C89.3267 164.787 89.72 164.58 90 164.26C90.2933 163.94 90.44 163.553 90.44 163.1C90.44 162.66 90.3 162.307 90.02 162.04C89.74 161.773 89.34 161.553 88.82 161.38V164.88Z" fill="white"/>
<rect x="22" y="161" width="35" height="5" rx="2.5" fill="#585858"/>
<rect x="22" y="175" width="73" height="1" rx="0.5" fill="#585858"/>
<rect x="26" y="251" width="65" height="12" rx="6" fill="#464646"/>
<rect x="114" y="143" width="86" height="127" fill="#686868"/>
<rect x="122" y="183" width="69" height="5" rx="2.5" fill="#585858"/>
<rect x="122" y="193" width="69" height="5" rx="2.5" fill="#585858"/>
<rect x="122" y="205" width="69" height="5" rx="2.5" fill="#585858"/>
<rect x="122" y="215" width="69" height="5" rx="2.5" fill="#585858"/>
<rect x="120" y="153" width="26" height="5" rx="2.5" fill="#989595"/>
<path d="M191.34 162.98C191.34 163.673 191.16 164.327 190.8 164.94C190.453 165.54 189.933 166.04 189.24 166.44C188.56 166.827 187.753 167.053 186.82 167.12V168.74H185.54V167.1C184.207 166.98 183.133 166.58 182.32 165.9C181.507 165.207 181.087 164.273 181.06 163.1H184.06C184.14 164.06 184.633 164.64 185.54 164.84V161.02C184.58 160.78 183.807 160.54 183.22 160.3C182.633 160.06 182.127 159.673 181.7 159.14C181.273 158.607 181.06 157.88 181.06 156.96C181.06 155.8 181.473 154.853 182.3 154.12C183.14 153.387 184.22 152.967 185.54 152.86V151.24H186.82V152.86C188.1 152.967 189.12 153.353 189.88 154.02C190.653 154.687 191.087 155.607 191.18 156.78H188.16C188.12 156.393 187.98 156.06 187.74 155.78C187.513 155.487 187.207 155.28 186.82 155.16V158.94C187.82 159.193 188.607 159.44 189.18 159.68C189.767 159.907 190.273 160.287 190.7 160.82C191.127 161.34 191.34 162.06 191.34 162.98ZM183.98 156.82C183.98 157.26 184.113 157.62 184.38 157.9C184.647 158.167 185.033 158.387 185.54 158.56V155.1C185.06 155.167 184.68 155.347 184.4 155.64C184.12 155.933 183.98 156.327 183.98 156.82ZM186.82 164.88C187.327 164.787 187.72 164.58 188 164.26C188.293 163.94 188.44 163.553 188.44 163.1C188.44 162.66 188.3 162.307 188.02 162.04C187.74 161.773 187.34 161.553 186.82 161.38V164.88Z" fill="white"/>
<rect x="120" y="161" width="35" height="5" rx="2.5" fill="#585858"/>
<rect x="120" y="175" width="73" height="1" rx="0.5" fill="#585858"/>
<rect x="124" y="251" width="65" height="12" rx="6" fill="#464646"/>
<rect x="213" y="143" width="86" height="127" fill="#686868"/>
<rect x="221" y="183" width="69" height="5" rx="2.5" fill="#585858"/>
<rect x="221" y="193" width="69" height="5" rx="2.5" fill="#585858"/>
<rect x="221" y="205" width="69" height="5" rx="2.5" fill="#585858"/>
<rect x="221" y="215" width="69" height="5" rx="2.5" fill="#585858"/>
<rect x="219" y="153" width="26" height="5" rx="2.5" fill="#989595"/>
<path d="M290.34 162.98C290.34 163.673 290.16 164.327 289.8 164.94C289.453 165.54 288.933 166.04 288.24 166.44C287.56 166.827 286.753 167.053 285.82 167.12V168.74H284.54V167.1C283.207 166.98 282.133 166.58 281.32 165.9C280.507 165.207 280.087 164.273 280.06 163.1H283.06C283.14 164.06 283.633 164.64 284.54 164.84V161.02C283.58 160.78 282.807 160.54 282.22 160.3C281.633 160.06 281.127 159.673 280.7 159.14C280.273 158.607 280.06 157.88 280.06 156.96C280.06 155.8 280.473 154.853 281.3 154.12C282.14 153.387 283.22 152.967 284.54 152.86V151.24H285.82V152.86C287.1 152.967 288.12 153.353 288.88 154.02C289.653 154.687 290.087 155.607 290.18 156.78H287.16C287.12 156.393 286.98 156.06 286.74 155.78C286.513 155.487 286.207 155.28 285.82 155.16V158.94C286.82 159.193 287.607 159.44 288.18 159.68C288.767 159.907 289.273 160.287 289.7 160.82C290.127 161.34 290.34 162.06 290.34 162.98ZM282.98 156.82C282.98 157.26 283.113 157.62 283.38 157.9C283.647 158.167 284.033 158.387 284.54 158.56V155.1C284.06 155.167 283.68 155.347 283.4 155.64C283.12 155.933 282.98 156.327 282.98 156.82ZM285.82 164.88C286.327 164.787 286.72 164.58 287 164.26C287.293 163.94 287.44 163.553 287.44 163.1C287.44 162.66 287.3 162.307 287.02 162.04C286.74 161.773 286.34 161.553 285.82 161.38V164.88Z" fill="white"/>
<rect x="219" y="161" width="35" height="5" rx="2.5" fill="#585858"/>
<rect x="219" y="175" width="73" height="1" rx="0.5" fill="#585858"/>
<rect x="223" y="251" width="65" height="12" rx="6" fill="#464646"/>
<rect x="312" y="143" width="86" height="127" fill="#686868"/>
<rect x="320" y="183" width="69" height="5" rx="2.5" fill="#585858"/>
<rect x="320" y="193" width="69" height="5" rx="2.5" fill="#585858"/>
<rect x="320" y="205" width="69" height="5" rx="2.5" fill="#585858"/>
<rect x="320" y="215" width="69" height="5" rx="2.5" fill="#585858"/>
<rect x="318" y="153" width="26" height="5" rx="2.5" fill="#989595"/>
<path d="M389.34 162.98C389.34 163.673 389.16 164.327 388.8 164.94C388.453 165.54 387.933 166.04 387.24 166.44C386.56 166.827 385.753 167.053 384.82 167.12V168.74H383.54V167.1C382.207 166.98 381.133 166.58 380.32 165.9C379.507 165.207 379.087 164.273 379.06 163.1H382.06C382.14 164.06 382.633 164.64 383.54 164.84V161.02C382.58 160.78 381.807 160.54 381.22 160.3C380.633 160.06 380.127 159.673 379.7 159.14C379.273 158.607 379.06 157.88 379.06 156.96C379.06 155.8 379.473 154.853 380.3 154.12C381.14 153.387 382.22 152.967 383.54 152.86V151.24H384.82V152.86C386.1 152.967 387.12 153.353 387.88 154.02C388.653 154.687 389.087 155.607 389.18 156.78H386.16C386.12 156.393 385.98 156.06 385.74 155.78C385.513 155.487 385.207 155.28 384.82 155.16V158.94C385.82 159.193 386.607 159.44 387.18 159.68C387.767 159.907 388.273 160.287 388.7 160.82C389.127 161.34 389.34 162.06 389.34 162.98ZM381.98 156.82C381.98 157.26 382.113 157.62 382.38 157.9C382.647 158.167 383.033 158.387 383.54 158.56V155.1C383.06 155.167 382.68 155.347 382.4 155.64C382.12 155.933 381.98 156.327 381.98 156.82ZM384.82 164.88C385.327 164.787 385.72 164.58 386 164.26C386.293 163.94 386.44 163.553 386.44 163.1C386.44 162.66 386.3 162.307 386.02 162.04C385.74 161.773 385.34 161.553 384.82 161.38V164.88Z" fill="white"/>
<rect x="318" y="161" width="35" height="5" rx="2.5" fill="#585858"/>
<rect x="318" y="175" width="73" height="1" rx="0.5" fill="#585858"/>
<rect x="322" y="251" width="65" height="12" rx="6" fill="#464646"/>
</svg>
