<svg width="400" height="320" viewBox="0 0 400 320" fill="none" xmlns="http://www.w3.org/2000/svg">
<rect width="400" height="320" fill="white"/>
<path d="M240.36 67.392C237.635 67.392 235.171 66.9253 232.968 65.992C230.803 65.0587 229.085 63.7147 227.816 61.96C226.547 60.2053 225.893 58.1333 225.856 55.744H234.256C234.368 57.3493 234.928 58.6187 235.936 59.552C236.981 60.4853 238.4 60.952 240.192 60.952C242.021 60.952 243.459 60.5227 244.504 59.664C245.549 58.768 246.072 57.6107 246.072 56.192C246.072 55.0347 245.717 54.0827 245.008 53.336C244.299 52.5893 243.403 52.0107 242.32 51.6C241.275 51.152 239.819 50.6667 237.952 50.144C235.413 49.3973 233.341 48.6693 231.736 47.96C230.168 47.2133 228.805 46.112 227.648 44.656C226.528 43.1627 225.968 41.184 225.968 38.72C225.968 36.4053 226.547 34.3893 227.704 32.672C228.861 30.9547 230.485 29.648 232.576 28.752C234.667 27.8187 237.056 27.352 239.744 27.352C243.776 27.352 247.043 28.3413 249.544 30.32C252.083 32.2613 253.483 34.9867 253.744 38.496H245.12C245.045 37.152 244.467 36.0507 243.384 35.192C242.339 34.296 240.939 33.848 239.184 33.848C237.653 33.848 236.421 34.24 235.488 35.024C234.592 35.808 234.144 36.9467 234.144 38.44C234.144 39.4853 234.48 40.3627 235.152 41.072C235.861 41.744 236.72 42.304 237.728 42.752C238.773 43.1627 240.229 43.648 242.096 44.208C244.635 44.9547 246.707 45.7013 248.312 46.448C249.917 47.1947 251.299 48.3147 252.456 49.808C253.613 51.3013 254.192 53.2613 254.192 55.688C254.192 57.7787 253.651 59.72 252.568 61.512C251.485 63.304 249.899 64.7413 247.808 65.824C245.717 66.8693 243.235 67.392 240.36 67.392ZM256.845 47.4C256.845 43.5547 257.704 40.12 259.421 37.096C261.176 34.0347 263.546 31.664 266.533 29.984C269.557 28.2667 272.936 27.408 276.669 27.408C281.037 27.408 284.864 28.528 288.149 30.768C291.434 33.008 293.73 36.1067 295.037 40.064H286.021C285.125 38.1973 283.856 36.7973 282.213 35.864C280.608 34.9307 278.741 34.464 276.613 34.464C274.336 34.464 272.301 35.0053 270.509 36.088C268.754 37.1333 267.373 38.6267 266.365 40.568C265.394 42.5093 264.909 44.7867 264.909 47.4C264.909 49.976 265.394 52.2533 266.365 54.232C267.373 56.1733 268.754 57.6853 270.509 58.768C272.301 59.8133 274.336 60.336 276.613 60.336C278.741 60.336 280.608 59.8693 282.213 58.936C283.856 57.9653 285.125 56.5467 286.021 54.68H295.037C293.73 58.6747 291.434 61.792 288.149 64.032C284.901 66.2347 281.074 67.336 276.669 67.336C272.936 67.336 269.557 66.496 266.533 64.816C263.546 63.0987 261.176 60.728 259.421 57.704C257.704 54.68 256.845 51.2453 256.845 47.4ZM307.333 27.912V67H299.493V27.912H307.333ZM339.439 27.912V34.24H329.023V67H321.183V34.24H310.767V27.912H339.439ZM366.888 59.552H351.32L348.744 67H340.512L354.568 27.856H363.696L377.752 67H369.464L366.888 59.552ZM364.76 53.28L359.104 36.928L353.448 53.28H364.76Z" fill="black"/>
<rect x="15" y="100" width="116" height="181" fill="#686868"/>
<rect x="25.6338" y="135.607" width="51.6518" height="6.9235" rx="3.46175" fill="#989595"/>
<path opacity="0.42" d="M35.0281 124.727C40.2677 124.727 44.5152 120.741 44.5152 115.825C44.5152 110.909 40.2677 106.924 35.0281 106.924C29.7885 106.924 25.541 110.909 25.541 115.825C25.541 120.741 29.7885 124.727 35.0281 124.727Z" fill="white"/>
<path d="M39.8732 163.477C39.8732 164.171 39.6932 164.824 39.3332 165.437C38.9865 166.037 38.4665 166.537 37.7732 166.937C37.0932 167.324 36.2865 167.551 35.3532 167.617V169.237H34.0732V167.597C32.7399 167.477 31.6665 167.077 30.8532 166.397C30.0399 165.704 29.6199 164.771 29.5932 163.597H32.5932C32.6732 164.557 33.1665 165.137 34.0732 165.337V161.517C33.1132 161.277 32.3399 161.037 31.7532 160.797C31.1665 160.557 30.6599 160.171 30.2332 159.637C29.8065 159.104 29.5932 158.377 29.5932 157.457C29.5932 156.297 30.0065 155.351 30.8332 154.617C31.6732 153.884 32.7532 153.464 34.0732 153.357V151.737H35.3532V153.357C36.6332 153.464 37.6532 153.851 38.4132 154.517C39.1865 155.184 39.6199 156.104 39.7132 157.277H36.6932C36.6532 156.891 36.5132 156.557 36.2732 156.277C36.0465 155.984 35.7399 155.777 35.3532 155.657V159.437C36.3532 159.691 37.1399 159.937 37.7132 160.177C38.2999 160.404 38.8065 160.784 39.2332 161.317C39.6599 161.837 39.8732 162.557 39.8732 163.477ZM32.5132 157.317C32.5132 157.757 32.6465 158.117 32.9132 158.397C33.1799 158.664 33.5665 158.884 34.0732 159.057V155.597C33.5932 155.664 33.2132 155.844 32.9332 156.137C32.6532 156.431 32.5132 156.824 32.5132 157.317ZM35.3532 165.377C35.8599 165.284 36.2532 165.077 36.5332 164.757C36.8265 164.437 36.9732 164.051 36.9732 163.597C36.9732 163.157 36.8332 162.804 36.5532 162.537C36.2732 162.271 35.8732 162.051 35.3532 161.877V165.377Z" fill="white"/>
<rect x="22.7334" y="185.06" width="100.533" height="55.388" fill="#CACACA"/>
<rect x="22.7334" y="253.306" width="54.8142" height="14.8361" rx="7.41803" fill="#302E2E"/>
<rect x="28.5332" y="196.929" width="68.5178" height="5.93443" rx="2.96721" fill="#585858"/>
<rect x="28.5332" y="209.787" width="68.5178" height="6.9235" rx="3.46175" fill="#585858"/>
<rect x="28.5332" y="222.645" width="68.5178" height="6.9235" rx="3.46175" fill="#585858"/>
<rect x="143" y="100" width="116" height="181" fill="#686868"/>
<rect x="153.634" y="135.607" width="51.6518" height="6.9235" rx="3.46175" fill="#989595"/>
<path opacity="0.42" d="M163.028 124.727C168.268 124.727 172.515 120.741 172.515 115.825C172.515 110.909 168.268 106.924 163.028 106.924C157.789 106.924 153.541 110.909 153.541 115.825C153.541 120.741 157.789 124.727 163.028 124.727Z" fill="white"/>
<path d="M167.873 163.477C167.873 164.171 167.693 164.824 167.333 165.437C166.987 166.037 166.467 166.537 165.773 166.937C165.093 167.324 164.287 167.551 163.353 167.617V169.237H162.073V167.597C160.74 167.477 159.667 167.077 158.853 166.397C158.04 165.704 157.62 164.771 157.593 163.597H160.593C160.673 164.557 161.167 165.137 162.073 165.337V161.517C161.113 161.277 160.34 161.037 159.753 160.797C159.167 160.557 158.66 160.171 158.233 159.637C157.807 159.104 157.593 158.377 157.593 157.457C157.593 156.297 158.007 155.351 158.833 154.617C159.673 153.884 160.753 153.464 162.073 153.357V151.737H163.353V153.357C164.633 153.464 165.653 153.851 166.413 154.517C167.187 155.184 167.62 156.104 167.713 157.277H164.693C164.653 156.891 164.513 156.557 164.273 156.277C164.047 155.984 163.74 155.777 163.353 155.657V159.437C164.353 159.691 165.14 159.937 165.713 160.177C166.3 160.404 166.807 160.784 167.233 161.317C167.66 161.837 167.873 162.557 167.873 163.477ZM160.513 157.317C160.513 157.757 160.647 158.117 160.913 158.397C161.18 158.664 161.567 158.884 162.073 159.057V155.597C161.593 155.664 161.213 155.844 160.933 156.137C160.653 156.431 160.513 156.824 160.513 157.317ZM163.353 165.377C163.86 165.284 164.253 165.077 164.533 164.757C164.827 164.437 164.973 164.051 164.973 163.597C164.973 163.157 164.833 162.804 164.553 162.537C164.273 162.271 163.873 162.051 163.353 161.877V165.377Z" fill="white"/>
<rect x="150.733" y="185.06" width="100.533" height="55.388" fill="#CACACA"/>
<rect x="150.733" y="253.306" width="54.8142" height="14.8361" rx="7.41803" fill="#302E2E"/>
<rect x="156.533" y="196.929" width="68.5178" height="5.93443" rx="2.96721" fill="#585858"/>
<rect x="156.533" y="209.787" width="68.5178" height="6.9235" rx="3.46175" fill="#585858"/>
<rect x="156.533" y="222.645" width="68.5178" height="6.9235" rx="3.46175" fill="#585858"/>
<rect x="271" y="100" width="116" height="181" fill="#686868"/>
<rect x="281.634" y="135.607" width="51.6518" height="6.9235" rx="3.46175" fill="#989595"/>
<path opacity="0.42" d="M291.028 124.727C296.268 124.727 300.515 120.741 300.515 115.825C300.515 110.909 296.268 106.924 291.028 106.924C285.789 106.924 281.541 110.909 281.541 115.825C281.541 120.741 285.789 124.727 291.028 124.727Z" fill="white"/>
<path d="M295.873 163.477C295.873 164.171 295.693 164.824 295.333 165.437C294.987 166.037 294.467 166.537 293.773 166.937C293.093 167.324 292.287 167.551 291.353 167.617V169.237H290.073V167.597C288.74 167.477 287.667 167.077 286.853 166.397C286.04 165.704 285.62 164.771 285.593 163.597H288.593C288.673 164.557 289.167 165.137 290.073 165.337V161.517C289.113 161.277 288.34 161.037 287.753 160.797C287.167 160.557 286.66 160.171 286.233 159.637C285.807 159.104 285.593 158.377 285.593 157.457C285.593 156.297 286.007 155.351 286.833 154.617C287.673 153.884 288.753 153.464 290.073 153.357V151.737H291.353V153.357C292.633 153.464 293.653 153.851 294.413 154.517C295.187 155.184 295.62 156.104 295.713 157.277H292.693C292.653 156.891 292.513 156.557 292.273 156.277C292.047 155.984 291.74 155.777 291.353 155.657V159.437C292.353 159.691 293.14 159.937 293.713 160.177C294.3 160.404 294.807 160.784 295.233 161.317C295.66 161.837 295.873 162.557 295.873 163.477ZM288.513 157.317C288.513 157.757 288.647 158.117 288.913 158.397C289.18 158.664 289.567 158.884 290.073 159.057V155.597C289.593 155.664 289.213 155.844 288.933 156.137C288.653 156.431 288.513 156.824 288.513 157.317ZM291.353 165.377C291.86 165.284 292.253 165.077 292.533 164.757C292.827 164.437 292.973 164.051 292.973 163.597C292.973 163.157 292.833 162.804 292.553 162.537C292.273 162.271 291.873 162.051 291.353 161.877V165.377Z" fill="white"/>
<rect x="278.733" y="185.06" width="100.533" height="55.388" fill="#CACACA"/>
<rect x="278.733" y="253.306" width="54.8142" height="14.8361" rx="7.41803" fill="#302E2E"/>
<rect x="284.533" y="196.929" width="68.5178" height="5.93443" rx="2.96721" fill="#585858"/>
<rect x="284.533" y="209.787" width="68.5178" height="6.9235" rx="3.46175" fill="#585858"/>
<rect x="284.533" y="222.645" width="68.5178" height="6.9235" rx="3.46175" fill="#585858"/>
</svg>
