<svg width="400" height="320" viewBox="0 0 400 320" fill="none" xmlns="http://www.w3.org/2000/svg">
<rect width="400" height="320" fill="white"/>
<path d="M240.36 67.392C237.635 67.392 235.171 66.9253 232.968 65.992C230.803 65.0587 229.085 63.7147 227.816 61.96C226.547 60.2053 225.893 58.1333 225.856 55.744H234.256C234.368 57.3493 234.928 58.6187 235.936 59.552C236.981 60.4853 238.4 60.952 240.192 60.952C242.021 60.952 243.459 60.5227 244.504 59.664C245.549 58.768 246.072 57.6107 246.072 56.192C246.072 55.0347 245.717 54.0827 245.008 53.336C244.299 52.5893 243.403 52.0107 242.32 51.6C241.275 51.152 239.819 50.6667 237.952 50.144C235.413 49.3973 233.341 48.6693 231.736 47.96C230.168 47.2133 228.805 46.112 227.648 44.656C226.528 43.1627 225.968 41.184 225.968 38.72C225.968 36.4053 226.547 34.3893 227.704 32.672C228.861 30.9547 230.485 29.648 232.576 28.752C234.667 27.8187 237.056 27.352 239.744 27.352C243.776 27.352 247.043 28.3413 249.544 30.32C252.083 32.2613 253.483 34.9867 253.744 38.496H245.12C245.045 37.152 244.467 36.0507 243.384 35.192C242.339 34.296 240.939 33.848 239.184 33.848C237.653 33.848 236.421 34.24 235.488 35.024C234.592 35.808 234.144 36.9467 234.144 38.44C234.144 39.4853 234.48 40.3627 235.152 41.072C235.861 41.744 236.72 42.304 237.728 42.752C238.773 43.1627 240.229 43.648 242.096 44.208C244.635 44.9547 246.707 45.7013 248.312 46.448C249.917 47.1947 251.299 48.3147 252.456 49.808C253.613 51.3013 254.192 53.2613 254.192 55.688C254.192 57.7787 253.651 59.72 252.568 61.512C251.485 63.304 249.899 64.7413 247.808 65.824C245.717 66.8693 243.235 67.392 240.36 67.392ZM256.845 47.4C256.845 43.5547 257.704 40.12 259.421 37.096C261.176 34.0347 263.546 31.664 266.533 29.984C269.557 28.2667 272.936 27.408 276.669 27.408C281.037 27.408 284.864 28.528 288.149 30.768C291.434 33.008 293.73 36.1067 295.037 40.064H286.021C285.125 38.1973 283.856 36.7973 282.213 35.864C280.608 34.9307 278.741 34.464 276.613 34.464C274.336 34.464 272.301 35.0053 270.509 36.088C268.754 37.1333 267.373 38.6267 266.365 40.568C265.394 42.5093 264.909 44.7867 264.909 47.4C264.909 49.976 265.394 52.2533 266.365 54.232C267.373 56.1733 268.754 57.6853 270.509 58.768C272.301 59.8133 274.336 60.336 276.613 60.336C278.741 60.336 280.608 59.8693 282.213 58.936C283.856 57.9653 285.125 56.5467 286.021 54.68H295.037C293.73 58.6747 291.434 61.792 288.149 64.032C284.901 66.2347 281.074 67.336 276.669 67.336C272.936 67.336 269.557 66.496 266.533 64.816C263.546 63.0987 261.176 60.728 259.421 57.704C257.704 54.68 256.845 51.2453 256.845 47.4ZM307.333 27.912V67H299.493V27.912H307.333ZM339.439 27.912V34.24H329.023V67H321.183V34.24H310.767V27.912H339.439ZM366.888 59.552H351.32L348.744 67H340.512L354.568 27.856H363.696L377.752 67H369.464L366.888 59.552ZM364.76 53.28L359.104 36.928L353.448 53.28H364.76Z" fill="black"/>
<rect x="16" y="108" width="86" height="66" fill="#686868"/>
<rect x="16.5" y="174.5" width="85" height="65" stroke="#D4D4D4"/>
<rect x="34" y="122" width="49" height="7" rx="3.5" fill="#989595"/>
<path d="M64.34 143.98C64.34 144.673 64.16 145.327 63.8 145.94C63.4533 146.54 62.9333 147.04 62.24 147.44C61.56 147.827 60.7533 148.053 59.82 148.12V149.74H58.54V148.1C57.2067 147.98 56.1333 147.58 55.32 146.9C54.5067 146.207 54.0867 145.273 54.06 144.1H57.06C57.14 145.06 57.6333 145.64 58.54 145.84V142.02C57.58 141.78 56.8067 141.54 56.22 141.3C55.6333 141.06 55.1267 140.673 54.7 140.14C54.2733 139.607 54.06 138.88 54.06 137.96C54.06 136.8 54.4733 135.853 55.3 135.12C56.14 134.387 57.22 133.967 58.54 133.86V132.24H59.82V133.86C61.1 133.967 62.12 134.353 62.88 135.02C63.6533 135.687 64.0867 136.607 64.18 137.78H61.16C61.12 137.393 60.98 137.06 60.74 136.78C60.5133 136.487 60.2067 136.28 59.82 136.16V139.94C60.82 140.193 61.6067 140.44 62.18 140.68C62.7667 140.907 63.2733 141.287 63.7 141.82C64.1267 142.34 64.34 143.06 64.34 143.98ZM56.98 137.82C56.98 138.26 57.1133 138.62 57.38 138.9C57.6467 139.167 58.0333 139.387 58.54 139.56V136.1C58.06 136.167 57.68 136.347 57.4 136.64C57.12 136.933 56.98 137.327 56.98 137.82ZM59.82 145.88C60.3267 145.787 60.72 145.58 61 145.26C61.2933 144.94 61.44 144.553 61.44 144.1C61.44 143.66 61.3 143.307 61.02 143.04C60.74 142.773 60.34 142.553 59.82 142.38V145.88Z" fill="white"/>
<rect x="44" y="155" width="29" height="10" rx="5" fill="#585858"/>
<rect x="26" y="182" width="65" height="7" rx="3.5" fill="#585858"/>
<rect x="26" y="195" width="65" height="7" rx="3.5" fill="#585858"/>
<rect x="26" y="208" width="65" height="7" rx="3.5" fill="#585858"/>
<rect x="26" y="221" width="65" height="7" rx="3.5" fill="#585858"/>
<rect x="111" y="108" width="86" height="66" fill="#686868"/>
<rect x="111.5" y="174.5" width="85" height="65" stroke="#D4D4D4"/>
<rect x="129" y="122" width="49" height="7" rx="3.5" fill="#989595"/>
<path d="M159.34 143.98C159.34 144.673 159.16 145.327 158.8 145.94C158.453 146.54 157.933 147.04 157.24 147.44C156.56 147.827 155.753 148.053 154.82 148.12V149.74H153.54V148.1C152.207 147.98 151.133 147.58 150.32 146.9C149.507 146.207 149.087 145.273 149.06 144.1H152.06C152.14 145.06 152.633 145.64 153.54 145.84V142.02C152.58 141.78 151.807 141.54 151.22 141.3C150.633 141.06 150.127 140.673 149.7 140.14C149.273 139.607 149.06 138.88 149.06 137.96C149.06 136.8 149.473 135.853 150.3 135.12C151.14 134.387 152.22 133.967 153.54 133.86V132.24H154.82V133.86C156.1 133.967 157.12 134.353 157.88 135.02C158.653 135.687 159.087 136.607 159.18 137.78H156.16C156.12 137.393 155.98 137.06 155.74 136.78C155.513 136.487 155.207 136.28 154.82 136.16V139.94C155.82 140.193 156.607 140.44 157.18 140.68C157.767 140.907 158.273 141.287 158.7 141.82C159.127 142.34 159.34 143.06 159.34 143.98ZM151.98 137.82C151.98 138.26 152.113 138.62 152.38 138.9C152.647 139.167 153.033 139.387 153.54 139.56V136.1C153.06 136.167 152.68 136.347 152.4 136.64C152.12 136.933 151.98 137.327 151.98 137.82ZM154.82 145.88C155.327 145.787 155.72 145.58 156 145.26C156.293 144.94 156.44 144.553 156.44 144.1C156.44 143.66 156.3 143.307 156.02 143.04C155.74 142.773 155.34 142.553 154.82 142.38V145.88Z" fill="white"/>
<rect x="139" y="155" width="29" height="10" rx="5" fill="#585858"/>
<rect x="121" y="182" width="65" height="7" rx="3.5" fill="#585858"/>
<rect x="121" y="195" width="65" height="7" rx="3.5" fill="#585858"/>
<rect x="121" y="208" width="65" height="7" rx="3.5" fill="#585858"/>
<rect x="121" y="221" width="65" height="7" rx="3.5" fill="#585858"/>
<rect x="206" y="108" width="86" height="66" fill="#686868"/>
<rect x="206.5" y="174.5" width="85" height="65" stroke="#D4D4D4"/>
<rect x="224" y="122" width="49" height="7" rx="3.5" fill="#989595"/>
<path d="M254.34 143.98C254.34 144.673 254.16 145.327 253.8 145.94C253.453 146.54 252.933 147.04 252.24 147.44C251.56 147.827 250.753 148.053 249.82 148.12V149.74H248.54V148.1C247.207 147.98 246.133 147.58 245.32 146.9C244.507 146.207 244.087 145.273 244.06 144.1H247.06C247.14 145.06 247.633 145.64 248.54 145.84V142.02C247.58 141.78 246.807 141.54 246.22 141.3C245.633 141.06 245.127 140.673 244.7 140.14C244.273 139.607 244.06 138.88 244.06 137.96C244.06 136.8 244.473 135.853 245.3 135.12C246.14 134.387 247.22 133.967 248.54 133.86V132.24H249.82V133.86C251.1 133.967 252.12 134.353 252.88 135.02C253.653 135.687 254.087 136.607 254.18 137.78H251.16C251.12 137.393 250.98 137.06 250.74 136.78C250.513 136.487 250.207 136.28 249.82 136.16V139.94C250.82 140.193 251.607 140.44 252.18 140.68C252.767 140.907 253.273 141.287 253.7 141.82C254.127 142.34 254.34 143.06 254.34 143.98ZM246.98 137.82C246.98 138.26 247.113 138.62 247.38 138.9C247.647 139.167 248.033 139.387 248.54 139.56V136.1C248.06 136.167 247.68 136.347 247.4 136.64C247.12 136.933 246.98 137.327 246.98 137.82ZM249.82 145.88C250.327 145.787 250.72 145.58 251 145.26C251.293 144.94 251.44 144.553 251.44 144.1C251.44 143.66 251.3 143.307 251.02 143.04C250.74 142.773 250.34 142.553 249.82 142.38V145.88Z" fill="white"/>
<rect x="234" y="155" width="29" height="10" rx="5" fill="#585858"/>
<rect x="216" y="182" width="65" height="7" rx="3.5" fill="#585858"/>
<rect x="216" y="195" width="65" height="7" rx="3.5" fill="#585858"/>
<rect x="216" y="208" width="65" height="7" rx="3.5" fill="#585858"/>
<rect x="216" y="221" width="65" height="7" rx="3.5" fill="#585858"/>
<rect x="301" y="108" width="86" height="66" fill="#686868"/>
<rect x="301.5" y="174.5" width="85" height="65" stroke="#D4D4D4"/>
<rect x="319" y="122" width="49" height="7" rx="3.5" fill="#989595"/>
<path d="M349.34 143.98C349.34 144.673 349.16 145.327 348.8 145.94C348.453 146.54 347.933 147.04 347.24 147.44C346.56 147.827 345.753 148.053 344.82 148.12V149.74H343.54V148.1C342.207 147.98 341.133 147.58 340.32 146.9C339.507 146.207 339.087 145.273 339.06 144.1H342.06C342.14 145.06 342.633 145.64 343.54 145.84V142.02C342.58 141.78 341.807 141.54 341.22 141.3C340.633 141.06 340.127 140.673 339.7 140.14C339.273 139.607 339.06 138.88 339.06 137.96C339.06 136.8 339.473 135.853 340.3 135.12C341.14 134.387 342.22 133.967 343.54 133.86V132.24H344.82V133.86C346.1 133.967 347.12 134.353 347.88 135.02C348.653 135.687 349.087 136.607 349.18 137.78H346.16C346.12 137.393 345.98 137.06 345.74 136.78C345.513 136.487 345.207 136.28 344.82 136.16V139.94C345.82 140.193 346.607 140.44 347.18 140.68C347.767 140.907 348.273 141.287 348.7 141.82C349.127 142.34 349.34 143.06 349.34 143.98ZM341.98 137.82C341.98 138.26 342.113 138.62 342.38 138.9C342.647 139.167 343.033 139.387 343.54 139.56V136.1C343.06 136.167 342.68 136.347 342.4 136.64C342.12 136.933 341.98 137.327 341.98 137.82ZM344.82 145.88C345.327 145.787 345.72 145.58 346 145.26C346.293 144.94 346.44 144.553 346.44 144.1C346.44 143.66 346.3 143.307 346.02 143.04C345.74 142.773 345.34 142.553 344.82 142.38V145.88Z" fill="white"/>
<rect x="329" y="155" width="29" height="10" rx="5" fill="#585858"/>
<rect x="311" y="182" width="65" height="7" rx="3.5" fill="#585858"/>
<rect x="311" y="195" width="65" height="7" rx="3.5" fill="#585858"/>
<rect x="311" y="208" width="65" height="7" rx="3.5" fill="#585858"/>
<rect x="311" y="221" width="65" height="7" rx="3.5" fill="#585858"/>
</svg>
