<svg width="400" height="320" viewBox="0 0 400 320" fill="none" xmlns="http://www.w3.org/2000/svg">
<rect width="400" height="320" fill="white"/>
<path d="M240.36 67.392C237.635 67.392 235.171 66.9253 232.968 65.992C230.803 65.0587 229.085 63.7147 227.816 61.96C226.547 60.2053 225.893 58.1333 225.856 55.744H234.256C234.368 57.3493 234.928 58.6187 235.936 59.552C236.981 60.4853 238.4 60.952 240.192 60.952C242.021 60.952 243.459 60.5227 244.504 59.664C245.549 58.768 246.072 57.6107 246.072 56.192C246.072 55.0347 245.717 54.0827 245.008 53.336C244.299 52.5893 243.403 52.0107 242.32 51.6C241.275 51.152 239.819 50.6667 237.952 50.144C235.413 49.3973 233.341 48.6693 231.736 47.96C230.168 47.2133 228.805 46.112 227.648 44.656C226.528 43.1627 225.968 41.184 225.968 38.72C225.968 36.4053 226.547 34.3893 227.704 32.672C228.861 30.9547 230.485 29.648 232.576 28.752C234.667 27.8187 237.056 27.352 239.744 27.352C243.776 27.352 247.043 28.3413 249.544 30.32C252.083 32.2613 253.483 34.9867 253.744 38.496H245.12C245.045 37.152 244.467 36.0507 243.384 35.192C242.339 34.296 240.939 33.848 239.184 33.848C237.653 33.848 236.421 34.24 235.488 35.024C234.592 35.808 234.144 36.9467 234.144 38.44C234.144 39.4853 234.48 40.3627 235.152 41.072C235.861 41.744 236.72 42.304 237.728 42.752C238.773 43.1627 240.229 43.648 242.096 44.208C244.635 44.9547 246.707 45.7013 248.312 46.448C249.917 47.1947 251.299 48.3147 252.456 49.808C253.613 51.3013 254.192 53.2613 254.192 55.688C254.192 57.7787 253.651 59.72 252.568 61.512C251.485 63.304 249.899 64.7413 247.808 65.824C245.717 66.8693 243.235 67.392 240.36 67.392ZM256.845 47.4C256.845 43.5547 257.704 40.12 259.421 37.096C261.176 34.0347 263.546 31.664 266.533 29.984C269.557 28.2667 272.936 27.408 276.669 27.408C281.037 27.408 284.864 28.528 288.149 30.768C291.434 33.008 293.73 36.1067 295.037 40.064H286.021C285.125 38.1973 283.856 36.7973 282.213 35.864C280.608 34.9307 278.741 34.464 276.613 34.464C274.336 34.464 272.301 35.0053 270.509 36.088C268.754 37.1333 267.373 38.6267 266.365 40.568C265.394 42.5093 264.909 44.7867 264.909 47.4C264.909 49.976 265.394 52.2533 266.365 54.232C267.373 56.1733 268.754 57.6853 270.509 58.768C272.301 59.8133 274.336 60.336 276.613 60.336C278.741 60.336 280.608 59.8693 282.213 58.936C283.856 57.9653 285.125 56.5467 286.021 54.68H295.037C293.73 58.6747 291.434 61.792 288.149 64.032C284.901 66.2347 281.074 67.336 276.669 67.336C272.936 67.336 269.557 66.496 266.533 64.816C263.546 63.0987 261.176 60.728 259.421 57.704C257.704 54.68 256.845 51.2453 256.845 47.4ZM307.333 27.912V67H299.493V27.912H307.333ZM339.439 27.912V34.24H329.023V67H321.183V34.24H310.767V27.912H339.439ZM366.888 59.552H351.32L348.744 67H340.512L354.568 27.856H363.696L377.752 67H369.464L366.888 59.552ZM364.76 53.28L359.104 36.928L353.448 53.28H364.76Z" fill="black"/>
<rect x="18" y="109" width="155" height="124" fill="#D9D9D9"/>
<g opacity="0.6">
<path opacity="0.42" d="M46.6805 211.042H145.281C148.707 211.042 151.448 208.141 151.448 204.462C151.448 202.694 150.832 200.996 149.598 199.722L124.931 173.263C122.533 170.716 118.627 170.716 116.229 173.263L108.212 181.894L87.9298 160.175C85.5316 157.628 81.626 157.628 79.2277 160.175L42.2267 199.864C39.8285 202.481 39.897 206.655 42.2952 209.202C43.5971 210.334 45.1045 210.971 46.6805 211.042Z" fill="#676363"/>
<path opacity="0.42" d="M126.523 158.265C133.276 158.265 138.751 152.296 138.751 144.934C138.751 137.572 133.276 131.604 126.523 131.604C119.77 131.604 114.296 137.572 114.296 144.934C114.296 152.296 119.77 158.265 126.523 158.265Z" fill="#676363"/>
</g>
<rect x="18" y="80" width="101" height="9" rx="4.5" fill="#989595"/>
<rect x="200" y="109" width="70.1579" height="93" fill="#686868"/>
<rect x="208.158" y="135.901" width="39.9737" height="5.38017" rx="2.69008" fill="#989595"/>
<rect x="208.158" y="146.661" width="53.0263" height="4.61157" rx="2.30579" fill="#585858"/>
<rect x="208.158" y="156.653" width="53.0263" height="5.38017" rx="2.69008" fill="#585858"/>
<rect x="208.158" y="166.645" width="53.0263" height="5.38017" rx="2.69008" fill="#585858"/>
<path opacity="0.42" d="M215.5 128.215C219.555 128.215 222.842 125.118 222.842 121.297C222.842 117.477 219.555 114.38 215.5 114.38C211.445 114.38 208.158 117.477 208.158 121.297C208.158 125.118 211.445 128.215 215.5 128.215Z" fill="white"/>
<rect x="283" y="89" width="70.1579" height="93" fill="#686868"/>
<rect x="291.158" y="115.901" width="39.9737" height="5.38017" rx="2.69008" fill="#989595"/>
<rect x="291.158" y="126.661" width="53.0263" height="4.61157" rx="2.30579" fill="#585858"/>
<rect x="291.158" y="136.653" width="53.0263" height="5.38017" rx="2.69008" fill="#585858"/>
<rect x="291.158" y="146.645" width="53.0263" height="5.38017" rx="2.69008" fill="#585858"/>
<path opacity="0.42" d="M298.5 108.215C302.555 108.215 305.842 105.118 305.842 101.297C305.842 97.4771 302.555 94.3801 298.5 94.3801C294.445 94.3801 291.158 97.4771 291.158 101.297C291.158 105.118 294.445 108.215 298.5 108.215Z" fill="white"/>
<rect x="200" y="214" width="70.1579" height="93" fill="#686868"/>
<rect x="208.158" y="240.901" width="39.9737" height="5.38017" rx="2.69008" fill="#989595"/>
<rect x="208.158" y="251.661" width="53.0263" height="4.61157" rx="2.30579" fill="#585858"/>
<rect x="208.158" y="261.653" width="53.0263" height="5.38017" rx="2.69008" fill="#585858"/>
<rect x="208.158" y="271.645" width="53.0263" height="5.38017" rx="2.69008" fill="#585858"/>
<path opacity="0.42" d="M215.5 233.215C219.555 233.215 222.842 230.118 222.842 226.297C222.842 222.477 219.555 219.38 215.5 219.38C211.445 219.38 208.158 222.477 208.158 226.297C208.158 230.118 211.445 233.215 215.5 233.215Z" fill="white"/>
<rect x="283" y="194" width="70.1579" height="93" fill="#686868"/>
<rect x="291.158" y="220.901" width="39.9737" height="5.38017" rx="2.69008" fill="#989595"/>
<rect x="291.158" y="231.661" width="53.0263" height="4.61157" rx="2.30579" fill="#585858"/>
<rect x="291.158" y="241.653" width="53.0263" height="5.38017" rx="2.69008" fill="#585858"/>
<rect x="291.158" y="251.645" width="53.0263" height="5.38017" rx="2.69008" fill="#585858"/>
<path opacity="0.42" d="M298.5 213.215C302.555 213.215 305.842 210.118 305.842 206.297C305.842 202.477 302.555 199.38 298.5 199.38C294.445 199.38 291.158 202.477 291.158 206.297C291.158 210.118 294.445 213.215 298.5 213.215Z" fill="white"/>
</svg>
