<svg width="400" height="320" viewBox="0 0 400 320" fill="none" xmlns="http://www.w3.org/2000/svg">
<rect width="400" height="320" fill="white"/>
<path d="M240.36 67.392C237.635 67.392 235.171 66.9253 232.968 65.992C230.803 65.0587 229.085 63.7147 227.816 61.96C226.547 60.2053 225.893 58.1333 225.856 55.744H234.256C234.368 57.3493 234.928 58.6187 235.936 59.552C236.981 60.4853 238.4 60.952 240.192 60.952C242.021 60.952 243.459 60.5227 244.504 59.664C245.549 58.768 246.072 57.6107 246.072 56.192C246.072 55.0347 245.717 54.0827 245.008 53.336C244.299 52.5893 243.403 52.0107 242.32 51.6C241.275 51.152 239.819 50.6667 237.952 50.144C235.413 49.3973 233.341 48.6693 231.736 47.96C230.168 47.2133 228.805 46.112 227.648 44.656C226.528 43.1627 225.968 41.184 225.968 38.72C225.968 36.4053 226.547 34.3893 227.704 32.672C228.861 30.9547 230.485 29.648 232.576 28.752C234.667 27.8187 237.056 27.352 239.744 27.352C243.776 27.352 247.043 28.3413 249.544 30.32C252.083 32.2613 253.483 34.9867 253.744 38.496H245.12C245.045 37.152 244.467 36.0507 243.384 35.192C242.339 34.296 240.939 33.848 239.184 33.848C237.653 33.848 236.421 34.24 235.488 35.024C234.592 35.808 234.144 36.9467 234.144 38.44C234.144 39.4853 234.48 40.3627 235.152 41.072C235.861 41.744 236.72 42.304 237.728 42.752C238.773 43.1627 240.229 43.648 242.096 44.208C244.635 44.9547 246.707 45.7013 248.312 46.448C249.917 47.1947 251.299 48.3147 252.456 49.808C253.613 51.3013 254.192 53.2613 254.192 55.688C254.192 57.7787 253.651 59.72 252.568 61.512C251.485 63.304 249.899 64.7413 247.808 65.824C245.717 66.8693 243.235 67.392 240.36 67.392ZM256.845 47.4C256.845 43.5547 257.704 40.12 259.421 37.096C261.176 34.0347 263.546 31.664 266.533 29.984C269.557 28.2667 272.936 27.408 276.669 27.408C281.037 27.408 284.864 28.528 288.149 30.768C291.434 33.008 293.73 36.1067 295.037 40.064H286.021C285.125 38.1973 283.856 36.7973 282.213 35.864C280.608 34.9307 278.741 34.464 276.613 34.464C274.336 34.464 272.301 35.0053 270.509 36.088C268.754 37.1333 267.373 38.6267 266.365 40.568C265.394 42.5093 264.909 44.7867 264.909 47.4C264.909 49.976 265.394 52.2533 266.365 54.232C267.373 56.1733 268.754 57.6853 270.509 58.768C272.301 59.8133 274.336 60.336 276.613 60.336C278.741 60.336 280.608 59.8693 282.213 58.936C283.856 57.9653 285.125 56.5467 286.021 54.68H295.037C293.73 58.6747 291.434 61.792 288.149 64.032C284.901 66.2347 281.074 67.336 276.669 67.336C272.936 67.336 269.557 66.496 266.533 64.816C263.546 63.0987 261.176 60.728 259.421 57.704C257.704 54.68 256.845 51.2453 256.845 47.4ZM307.333 27.912V67H299.493V27.912H307.333ZM339.439 27.912V34.24H329.023V67H321.183V34.24H310.767V27.912H339.439ZM366.888 59.552H351.32L348.744 67H340.512L354.568 27.856H363.696L377.752 67H369.464L366.888 59.552ZM364.76 53.28L359.104 36.928L353.448 53.28H364.76Z" fill="black"/>
<rect x="167" y="109" width="213" height="157" fill="#686868"/>
<path d="M180 230C180 228.895 180.895 228 182 228H365C366.105 228 367 228.895 367 230V254C367 255.105 366.105 256 365 256H182C180.895 256 180 255.105 180 254V230Z" fill="#504D4D"/>
<path opacity="0.42" d="M199 252C204.523 252 209 247.523 209 242C209 236.477 204.523 232 199 232C193.477 232 189 236.477 189 242C189 247.523 193.477 252 199 252Z" fill="black"/>
<path opacity="0.42" d="M241 252C246.523 252 251 247.523 251 242C251 236.477 246.523 232 241 232C235.477 232 231 236.477 231 242C231 247.523 235.477 252 241 252Z" fill="black"/>
<path opacity="0.42" d="M284 252C289.523 252 294 247.523 294 242C294 236.477 289.523 232 284 232C278.477 232 274 236.477 274 242C274 247.523 278.477 252 284 252Z" fill="black"/>
<path opacity="0.42" d="M327 252C332.523 252 337 247.523 337 242C337 236.477 332.523 232 327 232C321.477 232 317 236.477 317 242C317 247.523 321.477 252 327 252Z" fill="black"/>
<rect x="180" y="121" width="88" height="9" rx="4.5" fill="#989595"/>
<rect x="180" y="138" width="117" height="9" rx="4.5" fill="#585858"/>
<rect x="180" y="155" width="117" height="9" rx="4.5" fill="#585858"/>
<rect x="180" y="172" width="117" height="9" rx="4.5" fill="#585858"/>
<rect x="13" y="109" width="145" height="157" fill="#D9D9D9"/>
<g opacity="0.6">
<path opacity="0.42" d="M39.6758 238.525H132.24C135.456 238.525 138.03 234.858 138.03 230.207C138.03 227.971 137.451 225.824 136.293 224.214L113.136 190.762C110.884 187.542 107.218 187.542 104.966 190.762L97.4401 201.674L78.3997 174.215C76.1484 170.995 72.4818 170.995 70.2304 174.215L35.4946 224.393C33.2432 227.702 33.3075 232.98 35.5589 236.2C36.7811 237.631 38.1963 238.436 39.6758 238.525Z" fill="#676363"/>
<path opacity="0.42" d="M114.152 171.8C120.626 171.8 125.874 164.112 125.874 154.628C125.874 145.144 120.626 137.456 114.152 137.456C107.679 137.456 102.431 145.144 102.431 154.628C102.431 164.112 107.679 171.8 114.152 171.8Z" fill="#676363"/>
</g>
</svg>
