<svg width="400" height="320" viewBox="0 0 400 320" fill="none" xmlns="http://www.w3.org/2000/svg">
<rect width="400" height="320" fill="white"/>
<path d="M240.36 67.392C237.635 67.392 235.171 66.9253 232.968 65.992C230.803 65.0587 229.085 63.7147 227.816 61.96C226.547 60.2053 225.893 58.1333 225.856 55.744H234.256C234.368 57.3493 234.928 58.6187 235.936 59.552C236.981 60.4853 238.4 60.952 240.192 60.952C242.021 60.952 243.459 60.5227 244.504 59.664C245.549 58.768 246.072 57.6107 246.072 56.192C246.072 55.0347 245.717 54.0827 245.008 53.336C244.299 52.5893 243.403 52.0107 242.32 51.6C241.275 51.152 239.819 50.6667 237.952 50.144C235.413 49.3973 233.341 48.6693 231.736 47.96C230.168 47.2133 228.805 46.112 227.648 44.656C226.528 43.1627 225.968 41.184 225.968 38.72C225.968 36.4053 226.547 34.3893 227.704 32.672C228.861 30.9547 230.485 29.648 232.576 28.752C234.667 27.8187 237.056 27.352 239.744 27.352C243.776 27.352 247.043 28.3413 249.544 30.32C252.083 32.2613 253.483 34.9867 253.744 38.496H245.12C245.045 37.152 244.467 36.0507 243.384 35.192C242.339 34.296 240.939 33.848 239.184 33.848C237.653 33.848 236.421 34.24 235.488 35.024C234.592 35.808 234.144 36.9467 234.144 38.44C234.144 39.4853 234.48 40.3627 235.152 41.072C235.861 41.744 236.72 42.304 237.728 42.752C238.773 43.1627 240.229 43.648 242.096 44.208C244.635 44.9547 246.707 45.7013 248.312 46.448C249.917 47.1947 251.299 48.3147 252.456 49.808C253.613 51.3013 254.192 53.2613 254.192 55.688C254.192 57.7787 253.651 59.72 252.568 61.512C251.485 63.304 249.899 64.7413 247.808 65.824C245.717 66.8693 243.235 67.392 240.36 67.392ZM256.845 47.4C256.845 43.5547 257.704 40.12 259.421 37.096C261.176 34.0347 263.546 31.664 266.533 29.984C269.557 28.2667 272.936 27.408 276.669 27.408C281.037 27.408 284.864 28.528 288.149 30.768C291.434 33.008 293.73 36.1067 295.037 40.064H286.021C285.125 38.1973 283.856 36.7973 282.213 35.864C280.608 34.9307 278.741 34.464 276.613 34.464C274.336 34.464 272.301 35.0053 270.509 36.088C268.754 37.1333 267.373 38.6267 266.365 40.568C265.394 42.5093 264.909 44.7867 264.909 47.4C264.909 49.976 265.394 52.2533 266.365 54.232C267.373 56.1733 268.754 57.6853 270.509 58.768C272.301 59.8133 274.336 60.336 276.613 60.336C278.741 60.336 280.608 59.8693 282.213 58.936C283.856 57.9653 285.125 56.5467 286.021 54.68H295.037C293.73 58.6747 291.434 61.792 288.149 64.032C284.901 66.2347 281.074 67.336 276.669 67.336C272.936 67.336 269.557 66.496 266.533 64.816C263.546 63.0987 261.176 60.728 259.421 57.704C257.704 54.68 256.845 51.2453 256.845 47.4ZM307.333 27.912V67H299.493V27.912H307.333ZM339.439 27.912V34.24H329.023V67H321.183V34.24H310.767V27.912H339.439ZM366.888 59.552H351.32L348.744 67H340.512L354.568 27.856H363.696L377.752 67H369.464L366.888 59.552ZM364.76 53.28L359.104 36.928L353.448 53.28H364.76Z" fill="black"/>
<rect x="32" y="139" width="100" height="53" fill="#D9D9D9"/>
<rect x="40" y="148" width="44" height="5" rx="2.5" fill="#989595"/>
<rect x="40" y="157" width="81" height="3" rx="1.5" fill="#585858"/>
<rect x="40" y="162" width="81" height="3" rx="1.5" fill="#585858"/>
<rect x="40" y="168" width="81" height="3" rx="1.5" fill="#585858"/>
<rect x="32" y="180" width="100" height="12" fill="#585858"/>
<rect x="53" y="183" width="19" height="2" rx="1" fill="#989595"/>
<rect x="120" y="184" width="8" height="4" rx="2" fill="#989595"/>
<rect x="53" y="186" width="19" height="3" rx="1.5" fill="#989595"/>
<path d="M46 191C48.7614 191 51 188.761 51 186C51 183.239 48.7614 181 46 181C43.2386 181 41 183.239 41 186C41 188.761 43.2386 191 46 191Z" fill="#919191"/>
<g opacity="0.6">
<path opacity="0.42" d="M42.6795 188.687H49.1646C49.39 188.687 49.5702 188.486 49.5702 188.23C49.5702 188.107 49.5297 187.989 49.4486 187.901L47.8262 186.062C47.6684 185.885 47.4115 185.885 47.2538 186.062L46.7265 186.662L45.3925 185.152C45.2348 184.975 44.9779 184.975 44.8202 185.152L42.3866 187.911C42.2288 188.093 42.2334 188.383 42.3911 188.56C42.4767 188.638 42.5759 188.683 42.6795 188.687Z" fill="#676363"/>
<path opacity="0.42" d="M47.9312 185.02C48.3753 185.02 48.7354 184.605 48.7354 184.093C48.7354 183.582 48.3753 183.167 47.9312 183.167C47.487 183.167 47.127 183.582 47.127 184.093C47.127 184.605 47.487 185.02 47.9312 185.02Z" fill="#676363"/>
</g>
<rect x="150" y="139" width="100" height="53" fill="#D9D9D9"/>
<rect x="158" y="148" width="44" height="5" rx="2.5" fill="#989595"/>
<rect x="158" y="157" width="81" height="3" rx="1.5" fill="#585858"/>
<rect x="158" y="162" width="81" height="3" rx="1.5" fill="#585858"/>
<rect x="158" y="168" width="81" height="3" rx="1.5" fill="#585858"/>
<rect x="150" y="180" width="100" height="12" fill="#585858"/>
<rect x="171" y="183" width="19" height="2" rx="1" fill="#989595"/>
<rect x="238" y="184" width="9" height="4" rx="2" fill="#989595"/>
<rect x="171" y="186" width="19" height="3" rx="1.5" fill="#989595"/>
<path d="M164 191C166.761 191 169 188.761 169 186C169 183.239 166.761 181 164 181C161.239 181 159 183.239 159 186C159 188.761 161.239 191 164 191Z" fill="#919191"/>
<g opacity="0.6">
<path opacity="0.42" d="M160.826 188.687H167.311C167.536 188.687 167.717 188.486 167.717 188.23C167.717 188.107 167.676 187.989 167.595 187.901L165.973 186.062C165.815 185.885 165.558 185.885 165.4 186.062L164.873 186.662L163.539 185.152C163.381 184.975 163.124 184.975 162.967 185.152L160.533 187.911C160.375 188.093 160.38 188.383 160.538 188.56C160.623 188.638 160.722 188.683 160.826 188.687Z" fill="#676363"/>
<path opacity="0.42" d="M166.078 185.02C166.522 185.02 166.882 184.605 166.882 184.093C166.882 183.582 166.522 183.167 166.078 183.167C165.633 183.167 165.273 183.582 165.273 184.093C165.273 184.605 165.633 185.02 166.078 185.02Z" fill="#676363"/>
</g>
<rect x="269" y="139" width="99" height="53" fill="#D9D9D9"/>
<rect x="276" y="148" width="45" height="5" rx="2.5" fill="#989595"/>
<rect x="276" y="157" width="81" height="3" rx="1.5" fill="#585858"/>
<rect x="276" y="162" width="81" height="3" rx="1.5" fill="#585858"/>
<rect x="276" y="168" width="81" height="3" rx="1.5" fill="#585858"/>
<rect x="269" y="180" width="99" height="12" fill="#585858"/>
<rect x="290" y="183" width="18" height="2" rx="1" fill="#989595"/>
<rect x="356" y="184" width="9" height="4" rx="2" fill="#989595"/>
<rect x="290" y="186" width="18" height="3" rx="1.5" fill="#989595"/>
<path d="M282 191C284.761 191 287 188.761 287 186C287 183.239 284.761 181 282 181C279.239 181 277 183.239 277 186C277 188.761 279.239 191 282 191Z" fill="#919191"/>
<g opacity="0.6">
<path opacity="0.42" d="M278.972 188.687H285.457C285.682 188.687 285.862 188.486 285.862 188.23C285.862 188.107 285.822 187.989 285.741 187.901L284.118 186.062C283.96 185.885 283.704 185.885 283.546 186.062L283.019 186.662L281.685 185.152C281.527 184.975 281.27 184.975 281.112 185.152L278.679 187.911C278.521 188.093 278.525 188.383 278.683 188.56C278.769 188.638 278.868 188.683 278.972 188.687Z" fill="#676363"/>
<path opacity="0.42" d="M284.223 185.02C284.667 185.02 285.027 184.605 285.027 184.093C285.027 183.582 284.667 183.167 284.223 183.167C283.779 183.167 283.419 183.582 283.419 184.093C283.419 184.605 283.779 185.02 284.223 185.02Z" fill="#676363"/>
</g>
</svg>
