<svg width="400" height="320" viewBox="0 0 400 320" fill="none" xmlns="http://www.w3.org/2000/svg">
<rect width="400" height="320" fill="white"/>
<path d="M240.36 67.392C237.635 67.392 235.171 66.9253 232.968 65.992C230.803 65.0587 229.085 63.7147 227.816 61.96C226.547 60.2053 225.893 58.1333 225.856 55.744H234.256C234.368 57.3493 234.928 58.6187 235.936 59.552C236.981 60.4853 238.4 60.952 240.192 60.952C242.021 60.952 243.459 60.5227 244.504 59.664C245.549 58.768 246.072 57.6107 246.072 56.192C246.072 55.0347 245.717 54.0827 245.008 53.336C244.299 52.5893 243.403 52.0107 242.32 51.6C241.275 51.152 239.819 50.6667 237.952 50.144C235.413 49.3973 233.341 48.6693 231.736 47.96C230.168 47.2133 228.805 46.112 227.648 44.656C226.528 43.1627 225.968 41.184 225.968 38.72C225.968 36.4053 226.547 34.3893 227.704 32.672C228.861 30.9547 230.485 29.648 232.576 28.752C234.667 27.8187 237.056 27.352 239.744 27.352C243.776 27.352 247.043 28.3413 249.544 30.32C252.083 32.2613 253.483 34.9867 253.744 38.496H245.12C245.045 37.152 244.467 36.0507 243.384 35.192C242.339 34.296 240.939 33.848 239.184 33.848C237.653 33.848 236.421 34.24 235.488 35.024C234.592 35.808 234.144 36.9467 234.144 38.44C234.144 39.4853 234.48 40.3627 235.152 41.072C235.861 41.744 236.72 42.304 237.728 42.752C238.773 43.1627 240.229 43.648 242.096 44.208C244.635 44.9547 246.707 45.7013 248.312 46.448C249.917 47.1947 251.299 48.3147 252.456 49.808C253.613 51.3013 254.192 53.2613 254.192 55.688C254.192 57.7787 253.651 59.72 252.568 61.512C251.485 63.304 249.899 64.7413 247.808 65.824C245.717 66.8693 243.235 67.392 240.36 67.392ZM256.845 47.4C256.845 43.5547 257.704 40.12 259.421 37.096C261.176 34.0347 263.546 31.664 266.533 29.984C269.557 28.2667 272.936 27.408 276.669 27.408C281.037 27.408 284.864 28.528 288.149 30.768C291.434 33.008 293.73 36.1067 295.037 40.064H286.021C285.125 38.1973 283.856 36.7973 282.213 35.864C280.608 34.9307 278.741 34.464 276.613 34.464C274.336 34.464 272.301 35.0053 270.509 36.088C268.754 37.1333 267.373 38.6267 266.365 40.568C265.394 42.5093 264.909 44.7867 264.909 47.4C264.909 49.976 265.394 52.2533 266.365 54.232C267.373 56.1733 268.754 57.6853 270.509 58.768C272.301 59.8133 274.336 60.336 276.613 60.336C278.741 60.336 280.608 59.8693 282.213 58.936C283.856 57.9653 285.125 56.5467 286.021 54.68H295.037C293.73 58.6747 291.434 61.792 288.149 64.032C284.901 66.2347 281.074 67.336 276.669 67.336C272.936 67.336 269.557 66.496 266.533 64.816C263.546 63.0987 261.176 60.728 259.421 57.704C257.704 54.68 256.845 51.2453 256.845 47.4ZM307.333 27.912V67H299.493V27.912H307.333ZM339.439 27.912V34.24H329.023V67H321.183V34.24H310.767V27.912H339.439ZM366.888 59.552H351.32L348.744 67H340.512L354.568 27.856H363.696L377.752 67H369.464L366.888 59.552ZM364.76 53.28L359.104 36.928L353.448 53.28H364.76Z" fill="black"/>
<rect x="12" y="134" width="183" height="95" fill="#D9D9D9"/>
<path d="M42.5 182C52.165 182 60 174.165 60 164.5C60 154.835 52.165 147 42.5 147C32.835 147 25 154.835 25 164.5C25 174.165 32.835 182 42.5 182Z" fill="#919191"/>
<rect x="68" y="153" width="67" height="9" rx="4.5" fill="#989595"/>
<rect x="68" y="169" width="99" height="7" rx="3.5" fill="#585858"/>
<rect x="68" y="181" width="99" height="7" rx="3.5" fill="#585858"/>
<rect x="68" y="193" width="99" height="7" rx="3.5" fill="#585858"/>
<rect x="68" y="205" width="99" height="7" rx="3.5" fill="#585858"/>
<rect x="205" y="134" width="183" height="95" fill="#D9D9D9"/>
<path d="M230.5 183C240.165 183 248 175.165 248 165.5C248 155.835 240.165 148 230.5 148C220.835 148 213 155.835 213 165.5C213 175.165 220.835 183 230.5 183Z" fill="#919191"/>
<rect x="261" y="153" width="67" height="9" rx="4.5" fill="#989595"/>
<rect x="261" y="169" width="99" height="7" rx="3.5" fill="#585858"/>
<rect x="261" y="181" width="99" height="7" rx="3.5" fill="#585858"/>
<rect x="261" y="193" width="99" height="7" rx="3.5" fill="#585858"/>
<rect x="261" y="205" width="99" height="7" rx="3.5" fill="#585858"/>
<path d="M188 252C188 249.239 190.239 247 193 247C195.761 247 198 249.239 198 252C198 254.761 195.761 257 193 257C190.239 257 188 254.761 188 252Z" fill="#302E2E"/>
<path d="M202 252C202 249.239 204.239 247 207 247C209.761 247 212 249.239 212 252C212 254.761 209.761 257 207 257C204.239 257 202 254.761 202 252Z" fill="#302E2E"/>
</svg>
