<svg width="400" height="320" viewBox="0 0 400 320" fill="none" xmlns="http://www.w3.org/2000/svg">
<rect width="400" height="320" fill="white"/>
<path d="M240.36 67.392C237.635 67.392 235.171 66.9253 232.968 65.992C230.803 65.0587 229.085 63.7147 227.816 61.96C226.547 60.2053 225.893 58.1333 225.856 55.744H234.256C234.368 57.3493 234.928 58.6187 235.936 59.552C236.981 60.4853 238.4 60.952 240.192 60.952C242.021 60.952 243.459 60.5227 244.504 59.664C245.549 58.768 246.072 57.6107 246.072 56.192C246.072 55.0347 245.717 54.0827 245.008 53.336C244.299 52.5893 243.403 52.0107 242.32 51.6C241.275 51.152 239.819 50.6667 237.952 50.144C235.413 49.3973 233.341 48.6693 231.736 47.96C230.168 47.2133 228.805 46.112 227.648 44.656C226.528 43.1627 225.968 41.184 225.968 38.72C225.968 36.4053 226.547 34.3893 227.704 32.672C228.861 30.9547 230.485 29.648 232.576 28.752C234.667 27.8187 237.056 27.352 239.744 27.352C243.776 27.352 247.043 28.3413 249.544 30.32C252.083 32.2613 253.483 34.9867 253.744 38.496H245.12C245.045 37.152 244.467 36.0507 243.384 35.192C242.339 34.296 240.939 33.848 239.184 33.848C237.653 33.848 236.421 34.24 235.488 35.024C234.592 35.808 234.144 36.9467 234.144 38.44C234.144 39.4853 234.48 40.3627 235.152 41.072C235.861 41.744 236.72 42.304 237.728 42.752C238.773 43.1627 240.229 43.648 242.096 44.208C244.635 44.9547 246.707 45.7013 248.312 46.448C249.917 47.1947 251.299 48.3147 252.456 49.808C253.613 51.3013 254.192 53.2613 254.192 55.688C254.192 57.7787 253.651 59.72 252.568 61.512C251.485 63.304 249.899 64.7413 247.808 65.824C245.717 66.8693 243.235 67.392 240.36 67.392ZM256.845 47.4C256.845 43.5547 257.704 40.12 259.421 37.096C261.176 34.0347 263.546 31.664 266.533 29.984C269.557 28.2667 272.936 27.408 276.669 27.408C281.037 27.408 284.864 28.528 288.149 30.768C291.434 33.008 293.73 36.1067 295.037 40.064H286.021C285.125 38.1973 283.856 36.7973 282.213 35.864C280.608 34.9307 278.741 34.464 276.613 34.464C274.336 34.464 272.301 35.0053 270.509 36.088C268.754 37.1333 267.373 38.6267 266.365 40.568C265.394 42.5093 264.909 44.7867 264.909 47.4C264.909 49.976 265.394 52.2533 266.365 54.232C267.373 56.1733 268.754 57.6853 270.509 58.768C272.301 59.8133 274.336 60.336 276.613 60.336C278.741 60.336 280.608 59.8693 282.213 58.936C283.856 57.9653 285.125 56.5467 286.021 54.68H295.037C293.73 58.6747 291.434 61.792 288.149 64.032C284.901 66.2347 281.074 67.336 276.669 67.336C272.936 67.336 269.557 66.496 266.533 64.816C263.546 63.0987 261.176 60.728 259.421 57.704C257.704 54.68 256.845 51.2453 256.845 47.4ZM307.333 27.912V67H299.493V27.912H307.333ZM339.439 27.912V34.24H329.023V67H321.183V34.24H310.767V27.912H339.439ZM366.888 59.552H351.32L348.744 67H340.512L354.568 27.856H363.696L377.752 67H369.464L366.888 59.552ZM364.76 53.28L359.104 36.928L353.448 53.28H364.76Z" fill="black"/>
<rect x="33.5" y="117.5" width="99" height="62" stroke="#D9D9D9"/>
<rect x="41" y="126" width="44" height="5" rx="2.5" fill="#989595"/>
<rect x="41" y="135" width="81" height="3" rx="1.5" fill="#585858"/>
<rect x="41" y="140" width="81" height="3" rx="1.5" fill="#585858"/>
<rect x="41" y="145" width="81" height="3" rx="1.5" fill="#585858"/>
<rect x="41" y="150" width="81" height="3" rx="1.5" fill="#585858"/>
<rect x="54" y="167" width="19" height="3" rx="1.5" fill="#989595"/>
<rect x="54" y="171" width="19" height="2" rx="1" fill="#989595"/>
<path d="M46 175C48.7614 175 51 172.761 51 170C51 167.239 48.7614 165 46 165C43.2386 165 41 167.239 41 170C41 172.761 43.2386 175 46 175Z" fill="#919191"/>
<g opacity="0.6">
<path opacity="0.42" d="M42.6795 172.687H49.1646C49.39 172.687 49.5702 172.486 49.5702 172.23C49.5702 172.107 49.5297 171.989 49.4486 171.901L47.8262 170.062C47.6684 169.885 47.4115 169.885 47.2538 170.062L46.7265 170.662L45.3925 169.152C45.2348 168.975 44.9779 168.975 44.8202 169.152L42.3866 171.911C42.2288 172.093 42.2334 172.383 42.3911 172.56C42.4767 172.638 42.5759 172.683 42.6795 172.687Z" fill="#676363"/>
<path opacity="0.42" d="M47.9312 169.02C48.3753 169.02 48.7354 168.605 48.7354 168.093C48.7354 167.582 48.3753 167.167 47.9312 167.167C47.487 167.167 47.127 167.582 47.127 168.093C47.127 168.605 47.487 169.02 47.9312 169.02Z" fill="#676363"/>
</g>
<rect x="146.5" y="117.5" width="99" height="62" stroke="#D9D9D9"/>
<rect x="154" y="126" width="44" height="5" rx="2.5" fill="#989595"/>
<rect x="154" y="135" width="81" height="3" rx="1.5" fill="#585858"/>
<rect x="154" y="140" width="81" height="3" rx="1.5" fill="#585858"/>
<rect x="154" y="145" width="81" height="3" rx="1.5" fill="#585858"/>
<rect x="154" y="150" width="81" height="3" rx="1.5" fill="#585858"/>
<rect x="167" y="167" width="19" height="3" rx="1.5" fill="#989595"/>
<rect x="167" y="171" width="19" height="2" rx="1" fill="#989595"/>
<path d="M159 175C161.761 175 164 172.761 164 170C164 167.239 161.761 165 159 165C156.239 165 154 167.239 154 170C154 172.761 156.239 175 159 175Z" fill="#919191"/>
<g opacity="0.6">
<path opacity="0.42" d="M155.68 172.687H162.165C162.39 172.687 162.57 172.486 162.57 172.23C162.57 172.107 162.53 171.989 162.449 171.901L160.826 170.062C160.668 169.885 160.412 169.885 160.254 170.062L159.727 170.662L158.393 169.152C158.235 168.975 157.978 168.975 157.82 169.152L155.387 171.911C155.229 172.093 155.233 172.383 155.391 172.56C155.477 172.638 155.576 172.683 155.68 172.687Z" fill="#676363"/>
<path opacity="0.42" d="M160.931 169.02C161.375 169.02 161.735 168.605 161.735 168.093C161.735 167.582 161.375 167.167 160.931 167.167C160.487 167.167 160.127 167.582 160.127 168.093C160.127 168.605 160.487 169.02 160.931 169.02Z" fill="#676363"/>
</g>
<rect x="260.5" y="117.5" width="99" height="62" stroke="#D9D9D9"/>
<rect x="268" y="126" width="44" height="5" rx="2.5" fill="#989595"/>
<rect x="268" y="135" width="81" height="3" rx="1.5" fill="#585858"/>
<rect x="268" y="140" width="81" height="3" rx="1.5" fill="#585858"/>
<rect x="268" y="145" width="81" height="3" rx="1.5" fill="#585858"/>
<rect x="268" y="150" width="81" height="3" rx="1.5" fill="#585858"/>
<rect x="281" y="167" width="19" height="3" rx="1.5" fill="#989595"/>
<rect x="281" y="171" width="19" height="2" rx="1" fill="#989595"/>
<path d="M273 175C275.761 175 278 172.761 278 170C278 167.239 275.761 165 273 165C270.239 165 268 167.239 268 170C268 172.761 270.239 175 273 175Z" fill="#919191"/>
<g opacity="0.6">
<path opacity="0.42" d="M269.68 172.687H276.165C276.39 172.687 276.57 172.486 276.57 172.23C276.57 172.107 276.53 171.989 276.449 171.901L274.826 170.062C274.668 169.885 274.412 169.885 274.254 170.062L273.727 170.662L272.393 169.152C272.235 168.975 271.978 168.975 271.82 169.152L269.387 171.911C269.229 172.093 269.233 172.383 269.391 172.56C269.477 172.638 269.576 172.683 269.68 172.687Z" fill="#676363"/>
<path opacity="0.42" d="M274.931 169.02C275.375 169.02 275.735 168.605 275.735 168.093C275.735 167.582 275.375 167.167 274.931 167.167C274.487 167.167 274.127 167.582 274.127 168.093C274.127 168.605 274.487 169.02 274.931 169.02Z" fill="#676363"/>
</g>
<rect x="33.5" y="117.5" width="99" height="62" stroke="#D9D9D9"/>
<rect x="41" y="135" width="81" height="3" rx="1.5" fill="#585858"/>
<rect x="41" y="140" width="81" height="3" rx="1.5" fill="#585858"/>
<rect x="41" y="145" width="81" height="3" rx="1.5" fill="#585858"/>
<rect x="41" y="150" width="81" height="3" rx="1.5" fill="#585858"/>
<rect x="146.5" y="117.5" width="99" height="62" stroke="#D9D9D9"/>
<rect x="154" y="126" width="44" height="5" rx="2.5" fill="#989595"/>
<rect x="154" y="135" width="81" height="3" rx="1.5" fill="#585858"/>
<rect x="154" y="140" width="81" height="3" rx="1.5" fill="#585858"/>
<rect x="154" y="145" width="81" height="3" rx="1.5" fill="#585858"/>
<rect x="154" y="150" width="81" height="3" rx="1.5" fill="#585858"/>
<rect x="167" y="167" width="19" height="3" rx="1.5" fill="#989595"/>
<rect x="167" y="171" width="19" height="2" rx="1" fill="#989595"/>
<path d="M159 175C161.761 175 164 172.761 164 170C164 167.239 161.761 165 159 165C156.239 165 154 167.239 154 170C154 172.761 156.239 175 159 175Z" fill="#919191"/>
<g opacity="0.6">
<path opacity="0.42" d="M155.68 172.687H162.165C162.39 172.687 162.57 172.486 162.57 172.23C162.57 172.107 162.53 171.989 162.449 171.901L160.826 170.062C160.668 169.885 160.412 169.885 160.254 170.062L159.727 170.662L158.393 169.152C158.235 168.975 157.978 168.975 157.82 169.152L155.387 171.911C155.229 172.093 155.233 172.383 155.391 172.56C155.477 172.638 155.576 172.683 155.68 172.687Z" fill="#676363"/>
<path opacity="0.42" d="M160.931 169.02C161.375 169.02 161.735 168.605 161.735 168.093C161.735 167.582 161.375 167.167 160.931 167.167C160.487 167.167 160.127 167.582 160.127 168.093C160.127 168.605 160.487 169.02 160.931 169.02Z" fill="#676363"/>
</g>
<rect x="260.5" y="117.5" width="99" height="62" stroke="#D9D9D9"/>
<rect x="268" y="126" width="44" height="5" rx="2.5" fill="#989595"/>
<rect x="268" y="135" width="81" height="3" rx="1.5" fill="#585858"/>
<rect x="268" y="140" width="81" height="3" rx="1.5" fill="#585858"/>
<rect x="268" y="145" width="81" height="3" rx="1.5" fill="#585858"/>
<rect x="268" y="150" width="81" height="3" rx="1.5" fill="#585858"/>
<rect x="281" y="167" width="19" height="3" rx="1.5" fill="#989595"/>
<rect x="281" y="171" width="19" height="2" rx="1" fill="#989595"/>
<path d="M273 175C275.761 175 278 172.761 278 170C278 167.239 275.761 165 273 165C270.239 165 268 167.239 268 170C268 172.761 270.239 175 273 175Z" fill="#919191"/>
<g opacity="0.6">
<path opacity="0.42" d="M269.68 172.687H276.165C276.39 172.687 276.57 172.486 276.57 172.23C276.57 172.107 276.53 171.989 276.449 171.901L274.826 170.062C274.668 169.885 274.412 169.885 274.254 170.062L273.727 170.662L272.393 169.152C272.235 168.975 271.978 168.975 271.82 169.152L269.387 171.911C269.229 172.093 269.233 172.383 269.391 172.56C269.477 172.638 269.576 172.683 269.68 172.687Z" fill="#676363"/>
<path opacity="0.42" d="M274.931 169.02C275.375 169.02 275.735 168.605 275.735 168.093C275.735 167.582 275.375 167.167 274.931 167.167C274.487 167.167 274.127 167.582 274.127 168.093C274.127 168.605 274.487 169.02 274.931 169.02Z" fill="#676363"/>
</g>
<rect x="54" y="241" width="19" height="3" rx="1.5" fill="#989595"/>
<rect x="54" y="245" width="19" height="2" rx="1" fill="#989595"/>
<path d="M46 249C48.7614 249 51 246.761 51 244C51 241.239 48.7614 239 46 239C43.2386 239 41 241.239 41 244C41 246.761 43.2386 249 46 249Z" fill="#919191"/>
<g opacity="0.6">
<path opacity="0.42" d="M42.6795 246.687H49.1646C49.39 246.687 49.5702 246.486 49.5702 246.23C49.5702 246.107 49.5297 245.989 49.4486 245.901L47.8262 244.062C47.6684 243.885 47.4115 243.885 47.2538 244.062L46.7265 244.662L45.3925 243.152C45.2348 242.975 44.9779 242.975 44.8202 243.152L42.3866 245.911C42.2288 246.093 42.2334 246.383 42.3911 246.56C42.4767 246.638 42.5759 246.683 42.6795 246.687Z" fill="#676363"/>
<path opacity="0.42" d="M47.9312 243.02C48.3753 243.02 48.7354 242.605 48.7354 242.093C48.7354 241.582 48.3753 241.167 47.9312 241.167C47.487 241.167 47.127 241.582 47.127 242.093C47.127 242.605 47.487 243.02 47.9312 243.02Z" fill="#676363"/>
</g>
<rect x="33.5" y="191.5" width="99" height="62" stroke="#D9D9D9"/>
<rect x="41" y="209" width="81" height="3" rx="1.5" fill="#585858"/>
<rect x="41" y="214" width="81" height="3" rx="1.5" fill="#585858"/>
<rect x="41" y="219" width="81" height="3" rx="1.5" fill="#585858"/>
<rect x="41" y="224" width="81" height="3" rx="1.5" fill="#585858"/>
<rect x="146.5" y="191.5" width="99" height="81" stroke="#D9D9D9"/>
<rect x="154" y="200" width="44" height="5" rx="2.5" fill="#989595"/>
<rect x="154" y="209" width="81" height="3" rx="1.5" fill="#585858"/>
<rect x="154" y="214" width="81" height="3" rx="1.5" fill="#585858"/>
<rect x="154" y="219" width="81" height="3" rx="1.5" fill="#585858"/>
<rect x="154" y="229" width="81" height="3" rx="1.5" fill="#585858"/>
<rect x="154" y="234" width="81" height="3" rx="1.5" fill="#585858"/>
<rect x="154" y="239" width="81" height="3" rx="1.5" fill="#585858"/>
<rect x="154" y="224" width="81" height="3" rx="1.5" fill="#585858"/>
<rect x="168" y="259" width="19" height="3" rx="1.5" fill="#989595"/>
<rect x="168" y="263" width="19" height="2" rx="1" fill="#989595"/>
<path d="M160 267C162.761 267 165 264.761 165 262C165 259.239 162.761 257 160 257C157.239 257 155 259.239 155 262C155 264.761 157.239 267 160 267Z" fill="#919191"/>
<g opacity="0.6">
<path opacity="0.42" d="M156.68 264.687H163.165C163.39 264.687 163.57 264.486 163.57 264.23C163.57 264.107 163.53 263.989 163.449 263.901L161.826 262.062C161.668 261.885 161.412 261.885 161.254 262.062L160.727 262.662L159.393 261.152C159.235 260.975 158.978 260.975 158.82 261.152L156.387 263.911C156.229 264.093 156.233 264.383 156.391 264.56C156.477 264.638 156.576 264.683 156.68 264.687Z" fill="#676363"/>
<path opacity="0.42" d="M161.931 261.02C162.375 261.02 162.735 260.605 162.735 260.093C162.735 259.582 162.375 259.167 161.931 259.167C161.487 259.167 161.127 259.582 161.127 260.093C161.127 260.605 161.487 261.02 161.931 261.02Z" fill="#676363"/>
</g>
<rect x="260.5" y="191.5" width="99" height="62" stroke="#D9D9D9"/>
<rect x="268" y="200" width="44" height="5" rx="2.5" fill="#989595"/>
<rect x="268" y="209" width="81" height="3" rx="1.5" fill="#585858"/>
<rect x="268" y="214" width="81" height="3" rx="1.5" fill="#585858"/>
<rect x="268" y="219" width="81" height="3" rx="1.5" fill="#585858"/>
<rect x="268" y="224" width="81" height="3" rx="1.5" fill="#585858"/>
<rect x="281" y="241" width="19" height="3" rx="1.5" fill="#989595"/>
<rect x="281" y="245" width="19" height="2" rx="1" fill="#989595"/>
<path d="M273 249C275.761 249 278 246.761 278 244C278 241.239 275.761 239 273 239C270.239 239 268 241.239 268 244C268 246.761 270.239 249 273 249Z" fill="#919191"/>
<g opacity="0.6">
<path opacity="0.42" d="M269.68 246.687H276.165C276.39 246.687 276.57 246.486 276.57 246.23C276.57 246.107 276.53 245.989 276.449 245.901L274.826 244.062C274.668 243.885 274.412 243.885 274.254 244.062L273.727 244.662L272.393 243.152C272.235 242.975 271.978 242.975 271.82 243.152L269.387 245.911C269.229 246.093 269.233 246.383 269.391 246.56C269.477 246.638 269.576 246.683 269.68 246.687Z" fill="#676363"/>
<path opacity="0.42" d="M274.931 243.02C275.375 243.02 275.735 242.605 275.735 242.093C275.735 241.582 275.375 241.167 274.931 241.167C274.487 241.167 274.127 241.582 274.127 242.093C274.127 242.605 274.487 243.02 274.931 243.02Z" fill="#676363"/>
</g>
</svg>
