<svg width="400" height="320" viewBox="0 0 400 320" fill="none" xmlns="http://www.w3.org/2000/svg">
<rect width="400" height="320" fill="white"/>
<path d="M240.36 67.392C237.635 67.392 235.171 66.9253 232.968 65.992C230.803 65.0587 229.085 63.7147 227.816 61.96C226.547 60.2053 225.893 58.1333 225.856 55.744H234.256C234.368 57.3493 234.928 58.6187 235.936 59.552C236.981 60.4853 238.4 60.952 240.192 60.952C242.021 60.952 243.459 60.5227 244.504 59.664C245.549 58.768 246.072 57.6107 246.072 56.192C246.072 55.0347 245.717 54.0827 245.008 53.336C244.299 52.5893 243.403 52.0107 242.32 51.6C241.275 51.152 239.819 50.6667 237.952 50.144C235.413 49.3973 233.341 48.6693 231.736 47.96C230.168 47.2133 228.805 46.112 227.648 44.656C226.528 43.1627 225.968 41.184 225.968 38.72C225.968 36.4053 226.547 34.3893 227.704 32.672C228.861 30.9547 230.485 29.648 232.576 28.752C234.667 27.8187 237.056 27.352 239.744 27.352C243.776 27.352 247.043 28.3413 249.544 30.32C252.083 32.2613 253.483 34.9867 253.744 38.496H245.12C245.045 37.152 244.467 36.0507 243.384 35.192C242.339 34.296 240.939 33.848 239.184 33.848C237.653 33.848 236.421 34.24 235.488 35.024C234.592 35.808 234.144 36.9467 234.144 38.44C234.144 39.4853 234.48 40.3627 235.152 41.072C235.861 41.744 236.72 42.304 237.728 42.752C238.773 43.1627 240.229 43.648 242.096 44.208C244.635 44.9547 246.707 45.7013 248.312 46.448C249.917 47.1947 251.299 48.3147 252.456 49.808C253.613 51.3013 254.192 53.2613 254.192 55.688C254.192 57.7787 253.651 59.72 252.568 61.512C251.485 63.304 249.899 64.7413 247.808 65.824C245.717 66.8693 243.235 67.392 240.36 67.392ZM256.845 47.4C256.845 43.5547 257.704 40.12 259.421 37.096C261.176 34.0347 263.546 31.664 266.533 29.984C269.557 28.2667 272.936 27.408 276.669 27.408C281.037 27.408 284.864 28.528 288.149 30.768C291.434 33.008 293.73 36.1067 295.037 40.064H286.021C285.125 38.1973 283.856 36.7973 282.213 35.864C280.608 34.9307 278.741 34.464 276.613 34.464C274.336 34.464 272.301 35.0053 270.509 36.088C268.754 37.1333 267.373 38.6267 266.365 40.568C265.394 42.5093 264.909 44.7867 264.909 47.4C264.909 49.976 265.394 52.2533 266.365 54.232C267.373 56.1733 268.754 57.6853 270.509 58.768C272.301 59.8133 274.336 60.336 276.613 60.336C278.741 60.336 280.608 59.8693 282.213 58.936C283.856 57.9653 285.125 56.5467 286.021 54.68H295.037C293.73 58.6747 291.434 61.792 288.149 64.032C284.901 66.2347 281.074 67.336 276.669 67.336C272.936 67.336 269.557 66.496 266.533 64.816C263.546 63.0987 261.176 60.728 259.421 57.704C257.704 54.68 256.845 51.2453 256.845 47.4ZM307.333 27.912V67H299.493V27.912H307.333ZM339.439 27.912V34.24H329.023V67H321.183V34.24H310.767V27.912H339.439ZM366.888 59.552H351.32L348.744 67H340.512L354.568 27.856H363.696L377.752 67H369.464L366.888 59.552ZM364.76 53.28L359.104 36.928L353.448 53.28H364.76Z" fill="black"/>
<path d="M12 139C12 137.895 12.8954 137 14 137H388C389.105 137 390 137.895 390 139V213C390 214.105 389.105 215 388 215H14C12.8954 215 12 214.105 12 213V139Z" fill="#F2F2F2"/>
<path opacity="0.42" d="M29.2033 192H79.9938C81.7586 192 83.1704 190.576 83.1704 188.77C83.1704 187.902 82.8527 187.068 82.2174 186.443L69.511 173.453C68.2756 172.202 66.2638 172.202 65.0284 173.453L60.8988 177.69L50.4513 167.027C49.2159 165.777 47.2041 165.777 45.9687 167.027L26.9091 186.512C25.6737 187.797 25.709 189.847 26.9443 191.097C27.615 191.653 28.3915 191.965 29.2033 192Z" fill="#676363"/>
<path opacity="0.42" d="M70.3307 166.089C73.8092 166.089 76.6291 163.159 76.6291 159.545C76.6291 155.93 73.8092 153 70.3307 153C66.8521 153 64.0322 155.93 64.0322 159.545C64.0322 163.159 66.8521 166.089 70.3307 166.089Z" fill="#676363"/>
<path opacity="0.42" d="M105.203 192H155.994C157.759 192 159.17 190.576 159.17 188.77C159.17 187.902 158.853 187.068 158.217 186.443L145.511 173.453C144.276 172.202 142.264 172.202 141.028 173.453L136.899 177.69L126.451 167.027C125.216 165.777 123.204 165.777 121.969 167.027L102.909 186.512C101.674 187.797 101.709 189.847 102.944 191.097C103.615 191.653 104.391 191.965 105.203 192Z" fill="#676363"/>
<path opacity="0.42" d="M146.331 166.089C149.809 166.089 152.629 163.159 152.629 159.545C152.629 155.93 149.809 153 146.331 153C142.852 153 140.032 155.93 140.032 159.545C140.032 163.159 142.852 166.089 146.331 166.089Z" fill="#676363"/>
<path opacity="0.42" d="M181.203 192H231.994C233.759 192 235.17 190.576 235.17 188.77C235.17 187.902 234.853 187.068 234.217 186.443L221.511 173.453C220.276 172.202 218.264 172.202 217.028 173.453L212.899 177.69L202.451 167.027C201.216 165.777 199.204 165.777 197.969 167.027L178.909 186.512C177.674 187.797 177.709 189.847 178.944 191.097C179.615 191.653 180.391 191.965 181.203 192Z" fill="#676363"/>
<path opacity="0.42" d="M222.331 166.089C225.809 166.089 228.629 163.159 228.629 159.545C228.629 155.93 225.809 153 222.331 153C218.852 153 216.032 155.93 216.032 159.545C216.032 163.159 218.852 166.089 222.331 166.089Z" fill="#676363"/>
<path opacity="0.42" d="M257.203 192H307.994C309.759 192 311.17 190.576 311.17 188.77C311.17 187.902 310.853 187.068 310.217 186.443L297.511 173.453C296.276 172.202 294.264 172.202 293.028 173.453L288.899 177.69L278.451 167.027C277.216 165.777 275.204 165.777 273.969 167.027L254.909 186.512C253.674 187.797 253.709 189.847 254.944 191.097C255.615 191.653 256.391 191.965 257.203 192Z" fill="#676363"/>
<path opacity="0.42" d="M298.331 166.089C301.809 166.089 304.629 163.159 304.629 159.545C304.629 155.93 301.809 153 298.331 153C294.852 153 292.032 155.93 292.032 159.545C292.032 163.159 294.852 166.089 298.331 166.089Z" fill="#676363"/>
<path opacity="0.42" d="M326.203 192H376.994C378.759 192 380.17 190.576 380.17 188.77C380.17 187.902 379.853 187.068 379.217 186.443L366.511 173.453C365.276 172.202 363.264 172.202 362.028 173.453L357.899 177.69L347.451 167.027C346.216 165.777 344.204 165.777 342.969 167.027L323.909 186.512C322.674 187.797 322.709 189.847 323.944 191.097C324.615 191.653 325.391 191.965 326.203 192Z" fill="#676363"/>
<path opacity="0.42" d="M367.331 166.089C370.809 166.089 373.629 163.159 373.629 159.545C373.629 155.93 370.809 153 367.331 153C363.852 153 361.032 155.93 361.032 159.545C361.032 163.159 363.852 166.089 367.331 166.089Z" fill="#676363"/>
</svg>
