<svg width="175" height="41" viewBox="0 0 175 41" fill="none" xmlns="http://www.w3.org/2000/svg">
<path d="M17.1062 40.784C13.8955 40.784 10.7968 40.392 7.81016 39.608C4.86082 38.7867 2.45282 37.7413 0.586156 36.472L4.22616 28.296C5.98082 29.416 7.99682 30.3493 10.2742 31.096C12.5888 31.8053 14.8848 32.16 17.1622 32.16C18.6928 32.16 19.9248 32.0293 20.8582 31.768C21.7915 31.4693 22.4635 31.096 22.8742 30.648C23.3222 30.1627 23.5462 29.6027 23.5462 28.968C23.5462 28.072 23.1355 27.3627 22.3142 26.84C21.4928 26.3173 20.4288 25.888 19.1222 25.552C17.8155 25.216 16.3595 24.88 14.7542 24.544C13.1862 24.208 11.5995 23.7787 9.99416 23.256C8.42616 22.7333 6.98882 22.0613 5.68216 21.24C4.37549 20.3813 3.31149 19.28 2.49016 17.936C1.66882 16.5547 1.25816 14.8187 1.25816 12.728C1.25816 10.376 1.89282 8.248 3.16216 6.344C4.46882 4.44 6.41016 2.90933 8.98616 1.752C11.5622 0.594664 14.7728 0.0159974 18.6182 0.0159974C21.1942 0.0159974 23.7142 0.314665 26.1782 0.911999C28.6795 1.472 30.9008 2.312 32.8422 3.432L29.4262 11.664C27.5595 10.656 25.7115 9.90933 23.8822 9.424C22.0528 8.90133 20.2795 8.64 18.5622 8.64C17.0315 8.64 15.7995 8.808 14.8662 9.144C13.9328 9.44267 13.2608 9.85333 12.8502 10.376C12.4395 10.8987 12.2342 11.496 12.2342 12.168C12.2342 13.0267 12.6262 13.7173 13.4102 14.24C14.2315 14.7253 15.2955 15.136 16.6022 15.472C17.9462 15.7707 19.4022 16.088 20.9702 16.424C22.5755 16.76 24.1622 17.1893 25.7302 17.712C27.3355 18.1973 28.7915 18.8693 30.0982 19.728C31.4048 20.5493 32.4502 21.6507 33.2342 23.032C34.0555 24.376 34.4662 26.0747 34.4662 28.128C34.4662 30.4053 33.8128 32.5147 32.5062 34.456C31.2368 36.36 29.3142 37.8907 26.7382 39.048C24.1995 40.2053 20.9888 40.784 17.1062 40.784ZM59.132 40.784C56.0333 40.784 53.1586 40.2987 50.508 39.328C47.8946 38.32 45.6173 36.9013 43.676 35.072C41.772 33.2427 40.2786 31.096 39.196 28.632C38.1133 26.1307 37.572 23.3867 37.572 20.4C37.572 17.4133 38.1133 14.688 39.196 12.224C40.2786 9.72267 41.772 7.55733 43.676 5.728C45.6173 3.89867 47.8946 2.49867 50.508 1.528C53.1586 0.519998 56.0333 0.0159974 59.132 0.0159974C62.7533 0.0159974 65.9826 0.650665 68.82 1.92C71.6946 3.18933 74.084 5.01867 75.988 7.408L68.932 13.792C67.6626 12.2987 66.2626 11.16 64.732 10.376C63.2386 9.592 61.5586 9.2 59.692 9.2C58.0866 9.2 56.612 9.46133 55.268 9.984C53.924 10.5067 52.7666 11.272 51.796 12.28C50.8626 13.2507 50.116 14.4267 49.556 15.808C49.0333 17.1893 48.772 18.72 48.772 20.4C48.772 22.08 49.0333 23.6107 49.556 24.992C50.116 26.3733 50.8626 27.568 51.796 28.576C52.7666 29.5467 53.924 30.2933 55.268 30.816C56.612 31.3387 58.0866 31.6 59.692 31.6C61.5586 31.6 63.2386 31.208 64.732 30.424C66.2626 29.64 67.6626 28.5013 68.932 27.008L75.988 33.392C74.084 35.744 71.6946 37.5733 68.82 38.88C65.9826 40.1493 62.7533 40.784 59.132 40.784ZM80.9317 40V0.799997H92.0197V40H80.9317ZM108.252 40V9.592H96.2123V0.799997H131.324V9.592H119.34V40H108.252ZM128.782 40L146.086 0.799997H157.006L174.366 40H162.83L149.278 6.232H153.646L140.094 40H128.782ZM138.246 32.384L141.102 24.208H160.254L163.11 32.384H138.246Z" fill="white"/>
<path d="M17.1062 40.784C13.8955 40.784 10.7968 40.392 7.81016 39.608C4.86082 38.7867 2.45282 37.7413 0.586156 36.472L4.22616 28.296C5.98082 29.416 7.99682 30.3493 10.2742 31.096C12.5888 31.8053 14.8848 32.16 17.1622 32.16C18.6928 32.16 19.9248 32.0293 20.8582 31.768C21.7915 31.4693 22.4635 31.096 22.8742 30.648C23.3222 30.1627 23.5462 29.6027 23.5462 28.968C23.5462 28.072 23.1355 27.3627 22.3142 26.84C21.4928 26.3173 20.4288 25.888 19.1222 25.552C17.8155 25.216 16.3595 24.88 14.7542 24.544C13.1862 24.208 11.5995 23.7787 9.99416 23.256C8.42616 22.7333 6.98882 22.0613 5.68216 21.24C4.37549 20.3813 3.31149 19.28 2.49016 17.936C1.66882 16.5547 1.25816 14.8187 1.25816 12.728C1.25816 10.376 1.89282 8.248 3.16216 6.344C4.46882 4.44 6.41016 2.90933 8.98616 1.752C11.5622 0.594664 14.7728 0.0159974 18.6182 0.0159974C21.1942 0.0159974 23.7142 0.314665 26.1782 0.911999C28.6795 1.472 30.9008 2.312 32.8422 3.432L29.4262 11.664C27.5595 10.656 25.7115 9.90933 23.8822 9.424C22.0528 8.90133 20.2795 8.64 18.5622 8.64C17.0315 8.64 15.7995 8.808 14.8662 9.144C13.9328 9.44267 13.2608 9.85333 12.8502 10.376C12.4395 10.8987 12.2342 11.496 12.2342 12.168C12.2342 13.0267 12.6262 13.7173 13.4102 14.24C14.2315 14.7253 15.2955 15.136 16.6022 15.472C17.9462 15.7707 19.4022 16.088 20.9702 16.424C22.5755 16.76 24.1622 17.1893 25.7302 17.712C27.3355 18.1973 28.7915 18.8693 30.0982 19.728C31.4048 20.5493 32.4502 21.6507 33.2342 23.032C34.0555 24.376 34.4662 26.0747 34.4662 28.128C34.4662 30.4053 33.8128 32.5147 32.5062 34.456C31.2368 36.36 29.3142 37.8907 26.7382 39.048C24.1995 40.2053 20.9888 40.784 17.1062 40.784ZM59.132 40.784C56.0333 40.784 53.1586 40.2987 50.508 39.328C47.8946 38.32 45.6173 36.9013 43.676 35.072C41.772 33.2427 40.2786 31.096 39.196 28.632C38.1133 26.1307 37.572 23.3867 37.572 20.4C37.572 17.4133 38.1133 14.688 39.196 12.224C40.2786 9.72267 41.772 7.55733 43.676 5.728C45.6173 3.89867 47.8946 2.49867 50.508 1.528C53.1586 0.519998 56.0333 0.0159974 59.132 0.0159974C62.7533 0.0159974 65.9826 0.650665 68.82 1.92C71.6946 3.18933 74.084 5.01867 75.988 7.408L68.932 13.792C67.6626 12.2987 66.2626 11.16 64.732 10.376C63.2386 9.592 61.5586 9.2 59.692 9.2C58.0866 9.2 56.612 9.46133 55.268 9.984C53.924 10.5067 52.7666 11.272 51.796 12.28C50.8626 13.2507 50.116 14.4267 49.556 15.808C49.0333 17.1893 48.772 18.72 48.772 20.4C48.772 22.08 49.0333 23.6107 49.556 24.992C50.116 26.3733 50.8626 27.568 51.796 28.576C52.7666 29.5467 53.924 30.2933 55.268 30.816C56.612 31.3387 58.0866 31.6 59.692 31.6C61.5586 31.6 63.2386 31.208 64.732 30.424C66.2626 29.64 67.6626 28.5013 68.932 27.008L75.988 33.392C74.084 35.744 71.6946 37.5733 68.82 38.88C65.9826 40.1493 62.7533 40.784 59.132 40.784ZM80.9317 40V0.799997H92.0197V40H80.9317ZM108.252 40V9.592H96.2123V0.799997H131.324V9.592H119.34V40H108.252ZM128.782 40L146.086 0.799997H157.006L174.366 40H162.83L149.278 6.232H153.646L140.094 40H128.782ZM138.246 32.384L141.102 24.208H160.254L163.11 32.384H138.246Z" fill="url(#paint0_linear_177_6435)"/>
<path d="M17.1062 40.784C13.8955 40.784 10.7968 40.392 7.81016 39.608C4.86082 38.7867 2.45282 37.7413 0.586156 36.472L4.22616 28.296C5.98082 29.416 7.99682 30.3493 10.2742 31.096C12.5888 31.8053 14.8848 32.16 17.1622 32.16C18.6928 32.16 19.9248 32.0293 20.8582 31.768C21.7915 31.4693 22.4635 31.096 22.8742 30.648C23.3222 30.1627 23.5462 29.6027 23.5462 28.968C23.5462 28.072 23.1355 27.3627 22.3142 26.84C21.4928 26.3173 20.4288 25.888 19.1222 25.552C17.8155 25.216 16.3595 24.88 14.7542 24.544C13.1862 24.208 11.5995 23.7787 9.99416 23.256C8.42616 22.7333 6.98882 22.0613 5.68216 21.24C4.37549 20.3813 3.31149 19.28 2.49016 17.936C1.66882 16.5547 1.25816 14.8187 1.25816 12.728C1.25816 10.376 1.89282 8.248 3.16216 6.344C4.46882 4.44 6.41016 2.90933 8.98616 1.752C11.5622 0.594664 14.7728 0.0159974 18.6182 0.0159974C21.1942 0.0159974 23.7142 0.314665 26.1782 0.911999C28.6795 1.472 30.9008 2.312 32.8422 3.432L29.4262 11.664C27.5595 10.656 25.7115 9.90933 23.8822 9.424C22.0528 8.90133 20.2795 8.64 18.5622 8.64C17.0315 8.64 15.7995 8.808 14.8662 9.144C13.9328 9.44267 13.2608 9.85333 12.8502 10.376C12.4395 10.8987 12.2342 11.496 12.2342 12.168C12.2342 13.0267 12.6262 13.7173 13.4102 14.24C14.2315 14.7253 15.2955 15.136 16.6022 15.472C17.9462 15.7707 19.4022 16.088 20.9702 16.424C22.5755 16.76 24.1622 17.1893 25.7302 17.712C27.3355 18.1973 28.7915 18.8693 30.0982 19.728C31.4048 20.5493 32.4502 21.6507 33.2342 23.032C34.0555 24.376 34.4662 26.0747 34.4662 28.128C34.4662 30.4053 33.8128 32.5147 32.5062 34.456C31.2368 36.36 29.3142 37.8907 26.7382 39.048C24.1995 40.2053 20.9888 40.784 17.1062 40.784ZM59.132 40.784C56.0333 40.784 53.1586 40.2987 50.508 39.328C47.8946 38.32 45.6173 36.9013 43.676 35.072C41.772 33.2427 40.2786 31.096 39.196 28.632C38.1133 26.1307 37.572 23.3867 37.572 20.4C37.572 17.4133 38.1133 14.688 39.196 12.224C40.2786 9.72267 41.772 7.55733 43.676 5.728C45.6173 3.89867 47.8946 2.49867 50.508 1.528C53.1586 0.519998 56.0333 0.0159974 59.132 0.0159974C62.7533 0.0159974 65.9826 0.650665 68.82 1.92C71.6946 3.18933 74.084 5.01867 75.988 7.408L68.932 13.792C67.6626 12.2987 66.2626 11.16 64.732 10.376C63.2386 9.592 61.5586 9.2 59.692 9.2C58.0866 9.2 56.612 9.46133 55.268 9.984C53.924 10.5067 52.7666 11.272 51.796 12.28C50.8626 13.2507 50.116 14.4267 49.556 15.808C49.0333 17.1893 48.772 18.72 48.772 20.4C48.772 22.08 49.0333 23.6107 49.556 24.992C50.116 26.3733 50.8626 27.568 51.796 28.576C52.7666 29.5467 53.924 30.2933 55.268 30.816C56.612 31.3387 58.0866 31.6 59.692 31.6C61.5586 31.6 63.2386 31.208 64.732 30.424C66.2626 29.64 67.6626 28.5013 68.932 27.008L75.988 33.392C74.084 35.744 71.6946 37.5733 68.82 38.88C65.9826 40.1493 62.7533 40.784 59.132 40.784ZM80.9317 40V0.799997H92.0197V40H80.9317ZM108.252 40V9.592H96.2123V0.799997H131.324V9.592H119.34V40H108.252ZM128.782 40L146.086 0.799997H157.006L174.366 40H162.83L149.278 6.232H153.646L140.094 40H128.782ZM138.246 32.384L141.102 24.208H160.254L163.11 32.384H138.246Z" fill="url(#paint1_linear_177_6435)"/>
<defs>
<linearGradient id="paint0_linear_177_6435" x1="-0.999992" y1="20" x2="91.9938" y2="-57.898" gradientUnits="userSpaceOnUse">
<stop stop-color="#F1E52E"/>
<stop offset="1" stop-color="#E95F4D"/>
</linearGradient>
<linearGradient id="paint1_linear_177_6435" x1="167.962" y1="12.2367" x2="37.2994" y2="87.2078" gradientUnits="userSpaceOnUse">
<stop stop-color="#B338FF"/>
<stop offset="1" stop-color="#E82E6F"/>
</linearGradient>
</defs>
</svg>
