<svg width="20" height="21" viewBox="0 0 20 21" fill="none" xmlns="http://www.w3.org/2000/svg">
<g clip-path="url(#clip0_75_70248)">
<path d="M4.13793 18.431C4.13793 19.5717 5.06621 20.5 6.2069 20.5C7.34759 20.5 8.27586 19.5717 8.27586 18.431C8.27586 17.2903 7.34759 16.3621 6.2069 16.3621C5.06621 16.3621 4.13793 17.2903 4.13793 18.431ZM6.89655 18.431C6.89655 18.811 6.5869 19.1207 6.2069 19.1207C5.8269 19.1207 5.51724 18.811 5.51724 18.431C5.51724 18.051 5.8269 17.7414 6.2069 17.7414C6.5869 17.7414 6.89655 18.051 6.89655 18.431Z" fill="#26282C"/>
<path d="M16.5517 18.431C16.5517 17.2903 15.6234 16.3621 14.4828 16.3621C13.3421 16.3621 12.4138 17.2903 12.4138 18.431C12.4138 19.5717 13.3421 20.5 14.4828 20.5C15.6234 20.5 16.5517 19.5717 16.5517 18.431ZM13.7931 18.431C13.7931 18.051 14.1028 17.7414 14.4828 17.7414C14.8628 17.7414 15.1724 18.051 15.1724 18.431C15.1724 18.811 14.8628 19.1207 14.4828 19.1207C14.1028 19.1207 13.7931 18.811 13.7931 18.431Z" fill="#26282C"/>
<path d="M2.13793 1.87931C2.22345 2.69379 3.17517 11.7338 3.32207 13.1303C3.4331 14.1862 4.31793 14.9828 5.38 14.9828H16.1269C17.0959 14.9828 17.9469 14.2945 18.1503 13.3469L19.8069 5.61655C19.8945 5.2069 19.7938 4.78552 19.5303 4.46069C19.2669 4.13517 18.8759 3.94828 18.4572 3.94828H3.74276L3.44483 1.11793C3.40759 0.766207 3.11172 0.5 2.75862 0.5H0.689655C0.308966 0.5 0 0.808966 0 1.18966C0 1.57034 0.308966 1.87931 0.689655 1.87931H2.13793ZM18.4572 5.32759L16.8014 13.0579C16.7331 13.3738 16.4497 13.6034 16.1262 13.6034H5.38C5.02552 13.6034 4.73103 13.3379 4.69379 12.9862L3.88759 5.32759H18.4572Z" fill="#26282C"/>
</g>
<defs>
<clipPath id="clip0_75_70248">
<rect width="19.8707" height="20" fill="white" transform="translate(0 0.5)"/>
</clipPath>
</defs>
</svg>
