<svg width="17" height="14" viewBox="0 0 17 14" fill="none" xmlns="http://www.w3.org/2000/svg">
<g clip-path="url(#clip0_28_5582)">
<path d="M16.1617 9.50805L11.9704 13.6994C11.9128 13.7612 11.8434 13.8107 11.7663 13.8451C11.6892 13.8794 11.6059 13.8979 11.5215 13.8994C11.4371 13.9009 11.3533 13.8854 11.275 13.8537C11.1967 13.8221 11.1256 13.775 11.0659 13.7153C11.0062 13.6556 10.9591 13.5845 10.9275 13.5063C10.8959 13.428 10.8803 13.3441 10.8818 13.2597C10.8833 13.1753 10.9018 13.092 10.9362 13.0149C10.9705 12.9378 11.0201 12.8684 11.0818 12.8108L14.1993 9.69247H3.14344C2.9767 9.69247 2.81678 9.62623 2.69888 9.50833C2.58098 9.39042 2.51474 9.23051 2.51474 9.06377C2.51474 8.89703 2.58098 8.73712 2.69888 8.61921C2.81678 8.50131 2.9767 8.43507 3.14344 8.43507H15.7174C15.8417 8.43518 15.9632 8.47211 16.0664 8.5412C16.1697 8.61029 16.2502 8.70844 16.2978 8.82325C16.3453 8.93806 16.3578 9.06439 16.3335 9.18627C16.3093 9.30815 16.2495 9.42013 16.1617 9.50805ZM13.8313 4.87243C13.8313 4.70569 13.7651 4.54578 13.6472 4.42788C13.5293 4.30997 13.3694 4.24373 13.2026 4.24373H2.14674L5.26425 1.12538C5.32602 1.06782 5.37557 0.998411 5.40993 0.921291C5.44429 0.844171 5.46277 0.76092 5.46426 0.676504C5.46575 0.592088 5.45022 0.508237 5.4186 0.429953C5.38698 0.351669 5.33991 0.280555 5.28021 0.220855C5.22051 0.161154 5.1494 0.11409 5.07112 0.08247C4.99283 0.0508497 4.90898 0.0353211 4.82456 0.0368105C4.74015 0.0382999 4.6569 0.056777 4.57978 0.0911392C4.50266 0.125501 4.43325 0.175045 4.37569 0.236814L0.184354 4.42815C0.0965406 4.51607 0.0367515 4.62805 0.0125387 4.74993C-0.0116742 4.87181 0.000775247 4.99814 0.0483145 5.11295C0.0958538 5.22776 0.176351 5.32591 0.279638 5.395C0.382926 5.46409 0.504371 5.50102 0.628636 5.50113H13.2026C13.3694 5.50113 13.5293 5.4349 13.6472 5.31699C13.7651 5.19909 13.8313 5.03917 13.8313 4.87243Z" fill="#26282C"/>
</g>
<defs>
<clipPath id="clip0_28_5582">
<rect width="16.3462" height="13.91" fill="white"/>
</clipPath>
</defs>
</svg>
