<svg width="40" height="40" viewBox="0 0 40 40" fill="none" xmlns="http://www.w3.org/2000/svg">
<g clip-path="url(#clip0_103_1597)">
<path d="M37.6952 19.8224L37.6265 20.0014L37.6952 20.1804L39.4497 24.7567C39.5658 25.0614 39.4753 25.4023 39.2221 25.6076L35.4175 28.6898L35.2685 28.8104L35.2384 28.9998L34.4685 33.8419L34.4684 33.842C34.4174 34.1632 34.1651 34.4155 33.8439 34.4666L33.8438 34.4666L29.0016 35.2365L28.8123 35.2666L28.6916 35.4156L25.6094 39.2203L25.6077 39.2223C25.4639 39.4018 25.2473 39.5 25.0254 39.5C24.9342 39.5 24.8444 39.4838 24.7558 39.4502C24.7556 39.4502 24.7554 39.4501 24.7553 39.45L20.1798 37.6958L20.0009 37.6272L19.8219 37.6958L15.2472 39.4481L15.246 39.4486C14.9423 39.5659 14.6005 39.4757 14.3955 39.2213L14.3946 39.2202L11.3098 35.4154L11.1891 35.2666L10.9999 35.2365L6.15774 34.4666L6.15768 34.4666C5.83787 34.4158 5.58686 34.1646 5.5356 33.842L5.53559 33.8419L4.76565 28.9998L4.73553 28.8104L4.58646 28.6897L0.779222 25.6074L0.779208 25.6074C0.526783 25.403 0.43477 25.0599 0.551071 24.7587L0.551498 24.7576L2.30638 20.1804L2.375 20.0014L2.30638 19.8224L0.551842 15.2461C0.551789 15.246 0.551736 15.2458 0.551683 15.2457C0.435987 14.9417 0.528413 14.5985 0.779208 14.3954L0.779377 14.3953L4.58662 11.3105L4.73555 11.1898L4.76565 11.0005L5.53554 6.15867C5.53555 6.15865 5.53555 6.15862 5.53556 6.1586C5.58649 5.83969 5.83898 5.58718 6.15787 5.5362C6.15793 5.53619 6.15798 5.53618 6.15804 5.53617L10.9999 4.76627L11.1892 4.73617L11.3099 4.58725L14.3937 0.781228C14.3938 0.781061 14.3939 0.780894 14.3941 0.780726C14.6018 0.526429 14.9412 0.435558 15.2443 0.551996L15.2446 0.552127L19.8218 2.30701L20.0009 2.37566L20.1799 2.30695L24.7596 0.549584L24.7625 0.548455C25.0528 0.434972 25.406 0.524804 25.6083 0.77621L25.6093 0.777352L28.6915 4.58459L28.8122 4.73366L29.0016 4.76377L33.8438 5.53372L33.8439 5.53373C34.1665 5.58499 34.4176 5.83599 34.4684 6.15581L34.4685 6.15587L35.2384 10.998L35.2685 11.1873L35.4173 11.3079L39.222 14.3927L39.2221 14.3927C39.4749 14.5977 39.566 14.941 39.4497 15.2461L37.6952 19.8224Z" fill="#E0475B" stroke="white"/>
<path d="M16.2506 17.5017C14.1832 17.5017 12.5009 15.8193 12.5009 13.7519C12.5009 11.6846 14.1832 10.0022 16.2506 10.0022C18.318 10.0022 20.0003 11.6846 20.0003 13.7519C20.0003 15.8193 18.318 17.5017 16.2506 17.5017ZM16.2506 12.502C15.5606 12.502 15.0007 13.062 15.0007 13.7519C15.0007 14.4419 15.5606 15.0019 16.2506 15.0019C16.9406 15.0019 17.5005 14.4419 17.5005 13.7519C17.5005 13.062 16.9406 12.502 16.2506 12.502Z" fill="#FAFAFA"/>
<path d="M23.7501 30.0007C21.6828 30.0007 20.0004 28.3183 20.0004 26.251C20.0004 24.1836 21.6828 22.5012 23.7501 22.5012C25.8175 22.5012 27.4999 24.1836 27.4999 26.251C27.4999 28.3183 25.8175 30.0007 23.7501 30.0007ZM23.7501 25.001C23.0627 25.001 22.5002 25.5635 22.5002 26.251C22.5002 26.9384 23.0627 27.5009 23.7501 27.5009C24.4376 27.5009 25 26.9384 25 26.251C25 25.5635 24.4376 25.001 23.7501 25.001Z" fill="#FAFAFA"/>
<path d="M13.7508 30.0008C13.4983 30.0008 13.2458 29.9258 13.0258 29.7683C12.4633 29.3658 12.3334 28.5858 12.7358 28.0234L25.235 10.5246C25.6374 9.96212 26.4174 9.83213 26.9798 10.2346C27.5423 10.6346 27.6698 11.417 27.2698 11.977L14.7707 29.4758C14.5232 29.8183 14.1407 30.0008 13.7508 30.0008Z" fill="#FAFAFA"/>
</g>
<defs>
<clipPath id="clip0_103_1597">
<rect width="40" height="40" fill="white"/>
</clipPath>
</defs>
</svg>
