<svg width="19" height="16" viewBox="0 0 19 16" fill="none" xmlns="http://www.w3.org/2000/svg">
<g clip-path="url(#clip0_28_5588)">
<path d="M17.4374 1.49854C16.4868 0.547948 15.2283 0.0283914 13.8852 0.0283914C12.542 0.0283914 11.2797 0.551796 10.3291 1.50239L9.83264 1.99886L9.32847 1.49469C8.37788 0.544099 7.1117 0.0168457 5.76855 0.0168457C4.42925 0.0168457 3.16692 0.54025 2.22017 1.487C1.26958 2.43759 0.746173 3.69992 0.750021 5.04307C0.750021 6.38622 1.27727 7.6447 2.22787 8.5953L9.45548 15.8229C9.55554 15.923 9.69024 15.9768 9.82109 15.9768C9.95194 15.9768 10.0866 15.9268 10.1867 15.8268L17.4297 8.61069C18.3803 7.6601 18.9037 6.39777 18.9037 5.05462C18.9076 3.71147 18.388 2.44914 17.4374 1.49854ZM16.6985 7.87562L9.82109 14.7261L2.9591 7.86407C2.20478 7.10975 1.78913 6.10913 1.78913 5.04307C1.78913 3.97702 2.20093 2.97639 2.95525 2.22592C3.70572 1.47545 4.70635 1.05981 5.76855 1.05981C6.8346 1.05981 7.83908 1.47545 8.5934 2.22977L9.46317 3.09955C9.66715 3.30352 9.99428 3.30352 10.1983 3.09955L11.0603 2.23747C11.8146 1.48315 12.8191 1.0675 13.8813 1.0675C14.9435 1.0675 15.9442 1.48315 16.6985 2.23362C17.4528 2.98794 17.8646 3.98856 17.8646 5.05462C17.8684 6.12067 17.4528 7.1213 16.6985 7.87562Z" fill="#26282C"/>
</g>
<defs>
<clipPath id="clip0_28_5588">
<rect width="19" height="16" fill="white"/>
</clipPath>
</defs>
</svg>
