<svg width="16" height="22" viewBox="0 0 16 22" fill="none" xmlns="http://www.w3.org/2000/svg">
<path d="M8 1C3.92612 1 0.611908 4.31421 0.611908 8.38809C0.611908 9.72925 1.21339 11.1717 1.23859 11.2325C1.43286 11.6936 1.81617 12.4098 2.09257 12.8296L7.15819 20.505C7.36549 20.8196 7.67232 21 8 21C8.32768 21 8.63451 20.8196 8.84181 20.5054L13.9079 12.8296C14.1847 12.4098 14.5676 11.6936 14.7618 11.2325C14.787 11.1721 15.3881 9.72968 15.3881 8.38809C15.3881 4.31421 12.0739 1 8 1ZM13.9605 10.8953C13.787 11.3086 13.4302 11.9748 13.1821 12.3512L8.11604 20.0269C8.01608 20.1786 7.98435 20.1786 7.8844 20.0269L2.81834 12.3512C2.57019 11.9748 2.21339 11.3081 2.03998 10.8948C2.03259 10.877 1.4811 9.54933 1.4811 8.38809C1.4811 4.79357 4.40548 1.86919 8 1.86919C11.5945 1.86919 14.5189 4.79357 14.5189 8.38809C14.5189 9.55106 13.9661 10.8822 13.9605 10.8953Z" fill="black" stroke="black" stroke-width="0.2"/>
<path d="M8 4.47729C5.84311 4.47729 4.08865 6.23218 4.08865 8.38864C4.08865 10.5451 5.84311 12.3 8 12.3C10.1569 12.3 11.9113 10.5451 11.9113 8.38864C11.9113 6.23218 10.1569 4.47729 8 4.47729ZM8 11.4308C6.3229 11.4308 4.95784 10.0662 4.95784 8.38864C4.95784 6.71111 6.3229 5.34648 8 5.34648C9.67709 5.34648 11.0422 6.71111 11.0422 8.38864C11.0422 10.0662 9.67709 11.4308 8 11.4308Z" fill="black" stroke="black" stroke-width="0.2"/>
</svg>
