<svg width="18" height="14" viewBox="0 0 18 14" fill="none" xmlns="http://www.w3.org/2000/svg">
<path d="M0.0273438 0.886966C0.0273438 0.404034 0.41858 0.0136719 0.900638 0.0136719H12.2535C12.7355 0.0136719 13.1268 0.404034 13.1268 0.886966C13.1268 1.3699 12.7355 1.76026 12.2535 1.76026H0.900638C0.41858 1.76026 0.0273438 1.3699 0.0273438 0.886966ZM16.6199 6.12673H0.900638C0.41858 6.12673 0.0273438 6.5171 0.0273438 7.00003C0.0273438 7.48296 0.41858 7.87332 0.900638 7.87332H16.6199C17.102 7.87332 17.4932 7.48296 17.4932 7.00003C17.4932 6.5171 17.102 6.12673 16.6199 6.12673ZM8.76029 12.2398H0.900638C0.41858 12.2398 0.0273438 12.6302 0.0273438 13.1131C0.0273438 13.596 0.41858 13.9864 0.900638 13.9864H8.76029C9.24235 13.9864 9.63358 13.596 9.63358 13.1131C9.63358 12.6302 9.24235 12.2398 8.76029 12.2398Z" fill="white"/>
</svg>
