<svg width="35" height="36" viewBox="0 0 35 36" fill="none" xmlns="http://www.w3.org/2000/svg">
<rect y="0.5" width="35" height="35" rx="17.5" fill="#E0475B"/>
<g clip-path="url(#clip0_75_41184)">
<path fill-rule="evenodd" clip-rule="evenodd" d="M7.67799 16.529C7.32286 16.162 7.21488 15.6219 7.40001 15.146C7.58514 14.67 8.03056 14.3457 8.53996 14.3151L22.6277 13.4695C23.1219 13.4396 23.5908 13.6918 23.8385 14.1208C24.0862 14.5499 24.0702 15.0821 23.7971 15.4951L16.021 27.2726C15.7398 27.6985 15.2363 27.9221 14.7315 27.8444C14.2267 27.7668 13.813 27.4032 13.6727 26.9122L12.1745 21.6735L18.4677 17.2217L11.4657 20.4458L7.67799 16.529Z" fill="white"/>
</g>
<defs>
<clipPath id="clip0_75_41184">
<rect width="16" height="16" fill="white" transform="translate(6.5718 15.0718) rotate(-30)"/>
</clipPath>
</defs>
</svg>
