<svg width="20" height="20" viewBox="0 0 20 20" fill="none" xmlns="http://www.w3.org/2000/svg">
<g clip-path="url(#clip0_75_41110)">
<path d="M15.8333 6.66667H15V2.5H4.99996V6.66667H4.16663C2.78329 6.66667 1.66663 7.78333 1.66663 9.16667V14.1667H4.99996V17.5H15V14.1667H18.3333V9.16667C18.3333 7.78333 17.2166 6.66667 15.8333 6.66667ZM6.66663 4.16667H13.3333V6.66667H6.66663V4.16667ZM13.3333 14.1667V15.8333H6.66663V12.5H13.3333V14.1667ZM15 12.5V10.8333H4.99996V12.5H3.33329V9.16667C3.33329 8.70833 3.70829 8.33333 4.16663 8.33333H15.8333C16.2916 8.33333 16.6666 8.70833 16.6666 9.16667V12.5H15Z" fill="#ED4A4B"/>
<path d="M15 10.4167C15.4602 10.4167 15.8333 10.0436 15.8333 9.58333C15.8333 9.1231 15.4602 8.75 15 8.75C14.5397 8.75 14.1666 9.1231 14.1666 9.58333C14.1666 10.0436 14.5397 10.4167 15 10.4167Z" fill="#ED4A4B"/>
</g>
<defs>
<clipPath id="clip0_75_41110">
<rect width="20" height="20" fill="white"/>
</clipPath>
</defs>
</svg>
