<svg width="30" height="31" viewBox="0 0 30 31" fill="none" xmlns="http://www.w3.org/2000/svg">
<circle cx="15" cy="15.5" r="15" fill="#78B33D"/>
<path d="M21.9112 14.8051H18.39C17.7417 14.8051 17.2162 14.2796 17.2162 13.6313V11.2838C17.2162 10.6355 17.7417 10.1101 18.39 10.1101H20.7375C21.3858 10.1101 21.9112 10.6355 21.9112 11.2838V14.8051Z" fill="#78B33D" stroke="white" stroke-width="1.5" stroke-miterlimit="10" stroke-linecap="round" stroke-linejoin="round"/>
<path d="M21.9112 14.805C21.9112 17.398 19.8092 19.5 17.2162 19.5L21.9112 14.805Z" fill="#78B33D"/>
<path d="M21.9112 14.805C21.9112 17.398 19.8092 19.5 17.2162 19.5" stroke="white" stroke-width="1.5" stroke-miterlimit="10" stroke-linecap="round" stroke-linejoin="round"/>
<path d="M13.695 14.8051H10.1738C9.52549 14.8051 9 14.2796 9 13.6313V11.2838C9 10.6355 9.52549 10.1101 10.1738 10.1101H12.5213C13.1695 10.1101 13.695 10.6355 13.695 11.2838V14.8051Z" fill="#78B33D" stroke="white" stroke-width="1.5" stroke-miterlimit="10" stroke-linecap="round" stroke-linejoin="round"/>
<path d="M13.695 14.805C13.695 17.398 11.593 19.5 9 19.5L13.695 14.805Z" fill="#78B33D"/>
<path d="M13.695 14.805C13.695 17.398 11.593 19.5 9 19.5" stroke="white" stroke-width="1.5" stroke-miterlimit="10" stroke-linecap="round" stroke-linejoin="round"/>
</svg>
