<svg width="144" height="45" viewBox="0 0 144 45" fill="none" xmlns="http://www.w3.org/2000/svg">
<path d="M10.9185 34.1213C9.88789 34.1214 8.86221 33.9786 7.87077 33.6971C6.84728 33.4117 5.87525 32.9666 4.99054 32.3782C3.44146 31.3639 2.17657 29.9715 1.3154 28.3323C0.433775 26.6597 -0.0182286 24.7941 4.45378e-05 22.9034H7.41093C7.36435 23.6398 7.56371 24.3708 7.97771 24.9816C8.25363 25.3722 8.59491 25.7123 8.9865 25.9868C9.48946 26.3376 10.0814 26.5391 10.694 26.5678C11.314 26.5968 11.9319 26.4745 12.4941 26.2114C12.8647 26.0582 13.1997 25.83 13.4779 25.5412C13.7024 25.3066 13.8942 25.0428 14.0483 24.757C14.1734 24.5279 14.2556 24.2778 14.2907 24.0191C14.3477 23.6339 14.3477 23.2423 14.2907 22.857C14.2557 22.592 14.1749 22.3351 14.0519 22.0978C13.9053 21.8083 13.7127 21.5447 13.4815 21.3171C13.1938 21.0284 12.8616 20.7877 12.4977 20.6042C12.1612 20.45 11.816 20.3155 11.4639 20.2014C11.1075 20.0838 10.7118 19.9483 10.3019 19.7986C9.58892 19.5633 8.81183 19.2924 8.02405 18.9965C7.19473 18.6889 6.40017 18.2946 5.65356 17.8202C4.64094 17.1754 3.76323 16.3401 3.0692 15.3606C2.37702 14.4031 1.86376 13.3283 1.55423 12.1881C1.24774 11.0446 1.14399 9.85622 1.24767 8.67691C1.3495 7.46555 1.6848 6.28534 2.23507 5.20139C2.73958 4.21779 3.40596 3.32607 4.20632 2.56355C4.97881 1.82663 5.8692 1.2242 6.84059 0.781234C7.82699 0.353057 8.8796 0.0974417 9.95252 0.0255307C11.0882 -0.0551483 12.2293 0.0557129 13.3282 0.353477C15.4394 0.843447 17.3234 2.03162 18.6752 3.72563C19.3303 4.55015 19.8391 5.48095 20.1795 6.47753C20.5277 7.48912 20.7048 8.55169 20.7035 9.62154H13.3282C13.3282 8.93713 13.1179 8.45947 12.6937 8.19568C12.3473 7.96541 11.9706 7.78427 11.5744 7.65742C11.4337 7.64705 11.2941 7.62438 11.1574 7.58969C10.9109 7.54691 10.6588 7.54691 10.4124 7.58969C10.1116 7.64534 9.82231 7.75139 9.55684 7.90338C9.24371 8.08464 8.9946 8.35867 8.84391 8.6876C8.6121 9.15212 8.56621 9.68756 8.71559 10.1848C8.84859 10.6877 9.16035 11.1249 9.59249 11.4146C10.0269 11.6672 10.4811 11.8841 10.9506 12.0633C11.4461 12.2558 11.9737 12.4412 12.5298 12.6194C13.0252 12.7691 13.5278 12.9331 14.0412 13.1113C14.5545 13.2896 15.0678 13.4999 15.5918 13.7387C17.4459 14.5783 19.0144 15.9411 20.1046 17.6598C21.1723 19.3856 21.7379 21.3748 21.7379 23.4042C21.7379 25.4336 21.1723 27.4228 20.1046 29.1486C19.335 30.3479 18.3366 31.3839 17.1666 32.1974C15.9965 33.0108 14.6777 33.5858 13.2855 33.8896C12.5067 34.0487 11.7134 34.1264 10.9185 34.1213Z" fill="white"/>
<path d="M45.8128 33.4512C43.7355 33.4508 41.6778 33.049 39.7529 32.2678C37.7366 31.4583 35.9143 30.2314 34.406 28.6675C32.1663 26.3243 30.6481 23.3861 30.0325 20.2037C29.4168 17.0213 29.7298 13.729 30.934 10.7195C31.7333 8.74354 32.913 6.94378 34.406 5.42248C35.9204 3.86051 37.7406 2.62761 39.7529 1.8008C41.6765 1.0128 43.7341 0.603697 45.8128 0.595957C47.9408 0.59365 50.0474 1.01981 52.0071 1.84902C53.9669 2.67824 55.7396 3.89354 57.2197 5.42248L52.001 10.7445C51.1837 9.89948 50.1974 9.23629 49.1065 8.79819C48.0626 8.37368 46.9469 8.15344 45.8199 8.14943C44.6988 8.15351 43.5889 8.37378 42.5512 8.79819C41.4696 9.2402 40.4923 9.9031 39.6816 10.7445C38.8731 11.5856 38.2299 12.5711 37.7852 13.6497C37.3469 14.7285 37.1229 15.8823 37.1258 17.0468C37.1187 18.2047 37.3429 19.3524 37.7852 20.4225C38.2297 21.4923 38.8691 22.4702 39.6709 23.3063C40.4815 24.1469 41.4589 24.8087 42.5405 25.249C43.5772 25.6768 44.6877 25.8972 45.8092 25.8978C46.9362 25.8937 48.0519 25.6735 49.0958 25.249C50.1873 24.8136 51.1739 24.1514 51.9903 23.3063L57.209 28.6532C55.7119 30.2107 53.905 31.4372 51.9048 32.2535C49.9708 33.0434 47.9019 33.4502 45.8128 33.4512Z" fill="white"/>
<path d="M73.8451 33.5046H66.4342V0.638672H73.8451V33.5046Z" fill="white"/>
<path d="M103.706 0.549561V8.1066H97.5215V33.5046H90.1106V8.1066H83.9723V0.549561H103.706Z" fill="white"/>
<path d="M132.298 33.5046L131.025 29.5265H120.895L119.579 33.5046H111.737L122.702 0.709961H129.717L140.108 33.5046H132.298ZM123.44 21.9623H128.659L126.113 14.0061L123.44 21.9623Z" fill="white"/>
<path d="M86.5245 42.2986C86.5314 42.4778 86.4959 42.6561 86.421 42.8189C86.346 42.9818 86.2337 43.1248 86.0932 43.2361C85.7491 43.4882 85.3286 43.614 84.9026 43.5926C84.4734 43.5994 84.0481 43.5093 83.6586 43.3288V42.4626C83.9023 42.5742 84.1536 42.6683 84.4107 42.7442C84.5944 42.7939 84.7836 42.8202 84.9739 42.8226C85.1387 42.8331 85.3028 42.7933 85.4445 42.7086C85.5002 42.6683 85.5445 42.6143 85.5733 42.5519C85.602 42.4894 85.6141 42.4206 85.6084 42.3521C85.6105 42.2692 85.5855 42.1878 85.5371 42.1204C85.4791 42.0441 85.4079 41.9789 85.3268 41.9279C85.2341 41.8673 85.0416 41.7675 84.7565 41.6285C84.541 41.5364 84.3385 41.4166 84.1541 41.272C84.0219 41.1576 83.912 41.0198 83.8297 40.8656C83.7484 40.6968 83.7081 40.5112 83.712 40.3238C83.7037 40.151 83.7351 39.9787 83.8036 39.8199C83.8722 39.6611 83.9762 39.5201 84.1077 39.4077C84.42 39.1703 84.8069 39.0527 85.1985 39.0762C85.4184 39.0746 85.6376 39.1009 85.8508 39.1546C86.0735 39.2148 86.2915 39.2911 86.5031 39.3828L86.2002 40.0957C86.0114 40.0156 85.8172 39.9489 85.6191 39.8961C85.4712 39.858 85.3191 39.8389 85.1664 39.839C85.0218 39.8287 84.8785 39.8719 84.7636 39.9602C84.7173 40.0004 84.6805 40.0503 84.6558 40.1064C84.6311 40.1625 84.6193 40.2233 84.621 40.2846C84.6187 40.3599 84.6385 40.4343 84.6781 40.4985C84.7266 40.569 84.7884 40.6295 84.8599 40.6767C85.0513 40.7897 85.2489 40.892 85.4516 40.9833C85.7733 41.114 86.061 41.3164 86.2928 41.575C86.4505 41.7826 86.5323 42.038 86.5245 42.2986Z" fill="white"/>
<path d="M87.9397 39.2936C87.9397 38.9942 88.1072 38.8445 88.4387 38.8445C88.7703 38.8445 88.9378 38.9942 88.9378 39.2936C88.9406 39.3545 88.9309 39.4152 88.9095 39.4722C88.888 39.5292 88.8552 39.5812 88.813 39.6251C88.7082 39.7113 88.574 39.7535 88.4387 39.7428C88.1072 39.7428 87.9397 39.5931 87.9397 39.2936ZM88.895 43.5177H87.9789V40.1598H88.895V43.5177Z" fill="white"/>
<path d="M93.5968 43.5177H92.6807V41.5572C92.6923 41.3676 92.6503 41.1786 92.5595 41.0118C92.5165 40.9508 92.4585 40.902 92.391 40.8701C92.3235 40.8382 92.2489 40.8244 92.1745 40.83C92.0742 40.8223 91.9738 40.8422 91.8839 40.8874C91.7941 40.9327 91.7183 41.0015 91.6648 41.0867C91.5383 41.3519 91.483 41.6455 91.5044 41.9386V43.5177H90.5883V40.1599H91.3012L91.4224 40.5912H91.4723C91.5653 40.4366 91.7017 40.3127 91.8644 40.2347C92.0463 40.1456 92.2465 40.1004 92.449 40.1028C92.6489 40.0809 92.8509 40.1157 93.0318 40.2034C93.2128 40.291 93.3653 40.4279 93.472 40.5983H93.554C93.6465 40.4419 93.7846 40.3176 93.9497 40.2418C94.1348 40.1511 94.3389 40.1059 94.545 40.1099C94.7013 40.0992 94.8581 40.1198 95.0063 40.1706C95.1544 40.2214 95.2909 40.3014 95.4076 40.4058C95.516 40.5349 95.5977 40.6843 95.6479 40.8452C95.6981 41.0062 95.7158 41.1755 95.6999 41.3433V43.532H94.7803V41.5714C94.7936 41.3817 94.7515 41.1923 94.6591 41.0261C94.6169 40.9651 94.5595 40.9162 94.4926 40.8843C94.4257 40.8524 94.3516 40.8386 94.2777 40.8443C94.1804 40.8375 94.0831 40.8559 93.995 40.8977C93.907 40.9396 93.8312 41.0034 93.775 41.0831C93.6446 41.3164 93.5863 41.5831 93.6075 41.8495L93.5968 43.5177Z" fill="white"/>
<path d="M99.2076 43.5783C99.0296 43.5862 98.8524 43.5515 98.6906 43.4771C98.5288 43.4027 98.3871 43.2907 98.2772 43.1505H98.2309C98.2629 43.4286 98.2772 43.5926 98.2772 43.6353V44.997H97.3611V40.1598H98.1061L98.238 40.5947H98.2772C98.378 40.4344 98.5195 40.3037 98.6874 40.216C98.8552 40.1283 99.0434 40.0868 99.2325 40.0957C99.4136 40.089 99.5935 40.1276 99.7559 40.2078C99.9183 40.2881 100.058 40.4076 100.163 40.5555C100.407 40.9359 100.524 41.3839 100.498 41.8352C100.504 42.1535 100.451 42.4702 100.341 42.7691C100.252 43.0087 100.096 43.2177 99.892 43.3716C99.6916 43.5114 99.4519 43.5838 99.2076 43.5783ZM98.9366 40.83C98.8432 40.8222 98.7492 40.8372 98.6629 40.8739C98.5766 40.9105 98.5005 40.9676 98.4412 41.0403C98.3199 41.2484 98.2629 41.4878 98.2772 41.7283V41.8281C98.2567 42.0959 98.3123 42.364 98.4376 42.6016C98.4955 42.6809 98.5728 42.7442 98.662 42.7853C98.7512 42.8265 98.8494 42.8442 98.9473 42.8369C99.3608 42.8369 99.564 42.4804 99.564 41.8209C99.5806 41.5649 99.5289 41.3091 99.4143 41.0795C99.3654 40.998 99.2949 40.9316 99.2106 40.8876C99.1263 40.8435 99.0315 40.8236 98.9366 40.83Z" fill="white"/>
<path d="M102.904 43.5177H101.988V38.8516H102.904V43.5177Z" fill="white"/>
<path d="M104.116 40.1599H105.121L105.756 42.0492C105.814 42.2395 105.851 42.4355 105.866 42.6338H105.87C105.889 42.4345 105.933 42.2383 105.998 42.0492L106.622 40.1599H107.602L106.176 43.9491C106.075 44.2618 105.881 44.5364 105.62 44.7369C105.374 44.9123 105.078 45.0036 104.776 44.9971C104.619 44.9968 104.462 44.9801 104.309 44.9472V44.2343C104.426 44.2604 104.545 44.2735 104.665 44.2735C104.821 44.2763 104.973 44.2232 105.093 44.1238C105.227 44.0033 105.324 43.8477 105.374 43.6746L105.428 43.5107L104.116 40.1599Z" fill="white"/>
<path d="M113.737 39.126H114.678L113.185 43.5176H112.169L110.679 39.126H111.62L112.447 41.7389C112.493 41.8957 112.539 42.0739 112.589 42.2807C112.639 42.4874 112.668 42.6371 112.678 42.7084C112.735 42.3811 112.812 42.0573 112.906 41.7389L113.737 39.126Z" fill="white"/>
<path d="M117.412 43.5783C117.182 43.5917 116.951 43.5593 116.733 43.4828C116.515 43.4063 116.315 43.2873 116.143 43.1327C115.985 42.9632 115.863 42.7633 115.784 42.5451C115.706 42.327 115.673 42.0951 115.687 41.8637C115.656 41.3911 115.806 40.9243 116.107 40.559C116.257 40.4022 116.44 40.2796 116.641 40.1996C116.843 40.1196 117.06 40.0841 117.277 40.0956C117.479 40.0836 117.682 40.1135 117.873 40.1834C118.064 40.2533 118.238 40.3618 118.385 40.502C118.522 40.6531 118.627 40.8298 118.695 41.022C118.763 41.2141 118.792 41.4178 118.781 41.6213V42.0597H116.614C116.611 42.2849 116.694 42.5027 116.845 42.6693C116.926 42.7453 117.021 42.8042 117.126 42.8422C117.23 42.8802 117.341 42.8965 117.451 42.8903C117.644 42.8915 117.837 42.8699 118.025 42.8261C118.221 42.7797 118.411 42.7128 118.592 42.6265V43.3394C118.429 43.4194 118.256 43.4793 118.079 43.5177C117.859 43.5608 117.636 43.5811 117.412 43.5783ZM117.28 40.7479C117.195 40.7443 117.111 40.7589 117.032 40.7909C116.953 40.8229 116.882 40.8714 116.824 40.9333C116.705 41.0825 116.639 41.2666 116.635 41.4573H117.922C117.93 41.2665 117.866 41.0797 117.744 40.9333C117.684 40.8708 117.611 40.8219 117.53 40.7899C117.45 40.758 117.363 40.7436 117.277 40.7479H117.28Z" fill="white"/>
<path d="M122.132 40.0956C122.236 40.0942 122.34 40.1037 122.442 40.1241L122.374 40.9903C122.286 40.9685 122.194 40.9589 122.103 40.9618C121.855 40.9467 121.61 41.0271 121.419 41.1864C121.335 41.2677 121.269 41.3661 121.227 41.475C121.185 41.5839 121.166 41.7006 121.173 41.8173V43.5248H120.257V40.1669H120.952L121.087 40.7337H121.134C121.233 40.5482 121.377 40.3911 121.554 40.2774C121.725 40.1624 121.926 40.0993 122.132 40.0956Z" fill="white"/>
<path d="M126.128 42.5231C126.137 42.673 126.109 42.8227 126.047 42.9594C125.984 43.096 125.89 43.2155 125.771 43.3074C125.453 43.5101 125.078 43.6051 124.702 43.5783C124.493 43.5825 124.284 43.5658 124.078 43.5284C123.911 43.498 123.749 43.4489 123.593 43.3822V42.6265C123.778 42.7107 123.97 42.7775 124.167 42.8261C124.351 42.8776 124.54 42.9052 124.73 42.9081C125.065 42.9081 125.229 42.8119 125.229 42.6194C125.232 42.555 125.209 42.4923 125.165 42.4447C125.097 42.3833 125.02 42.3317 124.937 42.2914C124.827 42.2344 124.684 42.1667 124.502 42.0918C124.302 42.0153 124.112 41.9147 123.935 41.7924C123.823 41.7091 123.731 41.6004 123.668 41.4751C123.61 41.3353 123.582 41.1846 123.586 41.0331C123.582 40.8971 123.613 40.7622 123.675 40.6412C123.737 40.5203 123.829 40.4171 123.943 40.3416C124.237 40.1597 124.581 40.0738 124.926 40.0956C125.335 40.0969 125.737 40.1882 126.106 40.363L125.828 41.0224C125.661 40.9511 125.504 40.8905 125.358 40.8442C125.212 40.7986 125.061 40.7757 124.909 40.7765C124.638 40.7765 124.506 40.8478 124.506 40.9939C124.508 41.0375 124.52 41.0799 124.543 41.1172C124.565 41.1546 124.597 41.1857 124.634 41.2078C124.817 41.3139 125.009 41.4034 125.208 41.4751C125.412 41.5521 125.605 41.6526 125.786 41.7746C125.899 41.857 125.991 41.9659 126.053 42.0918C126.111 42.2278 126.137 42.3755 126.128 42.5231Z" fill="white"/>
<path d="M129.707 43.5178L129.532 43.0615H129.507C129.386 43.2373 129.227 43.3826 129.04 43.4857C128.838 43.5672 128.62 43.6049 128.402 43.5962C128.263 43.6034 128.124 43.5828 127.993 43.5357C127.862 43.4886 127.742 43.4158 127.639 43.3217C127.542 43.2158 127.468 43.0915 127.42 42.9561C127.372 42.8208 127.352 42.6772 127.361 42.5339C127.35 42.3815 127.379 42.2288 127.444 42.0907C127.51 41.9526 127.61 41.8339 127.735 41.7462C128.079 41.5496 128.47 41.4521 128.865 41.4646H129.446V41.3148C129.455 41.2448 129.448 41.1736 129.425 41.1069C129.402 41.0402 129.364 40.9797 129.313 40.9303C129.263 40.8809 129.201 40.8439 129.134 40.8221C129.067 40.8004 128.996 40.7946 128.926 40.8051C128.597 40.8203 128.274 40.9028 127.978 41.0475L127.675 40.4308C128.072 40.2259 128.514 40.1219 128.962 40.1278C129.331 40.1033 129.697 40.2065 129.999 40.4201C130.123 40.5322 130.219 40.6711 130.281 40.8262C130.343 40.9812 130.368 41.1484 130.355 41.3148V43.5534L129.707 43.5178ZM129.436 41.9636H129.079C128.871 41.956 128.665 42.0066 128.484 42.1098C128.419 42.1541 128.367 42.2146 128.333 42.2852C128.298 42.3558 128.283 42.4342 128.288 42.5126C128.288 42.7692 128.438 42.8975 128.733 42.8975C128.921 42.9063 129.104 42.841 129.243 42.7157C129.307 42.6523 129.357 42.576 129.39 42.4918C129.423 42.4077 129.437 42.3175 129.432 42.2274L129.436 41.9636Z" fill="white"/>
<path d="M133.439 42.8475C133.635 42.8425 133.83 42.8076 134.016 42.7441V43.425C133.75 43.5346 133.463 43.5869 133.175 43.5782C133.029 43.5913 132.882 43.5733 132.744 43.5253C132.606 43.4774 132.479 43.4007 132.373 43.3002C132.189 43.0628 132.1 42.7655 132.123 42.4661V40.8477H131.685V40.4592L132.188 40.1526L132.451 39.4397H133.039V40.1526H133.977V40.8406H133.039V42.4589C133.035 42.512 133.042 42.5655 133.06 42.6155C133.079 42.6654 133.108 42.7106 133.146 42.7477C133.228 42.8159 133.332 42.8514 133.439 42.8475Z" fill="white"/>
<path d="M135.385 39.2936C135.385 38.9942 135.553 38.8445 135.884 38.8445C136.216 38.8445 136.383 38.9942 136.383 39.2936C136.387 39.3545 136.378 39.4155 136.356 39.4727C136.335 39.5298 136.301 39.5817 136.258 39.6251C136.154 39.7113 136.019 39.7535 135.884 39.7428C135.553 39.7428 135.385 39.5931 135.385 39.2936ZM136.34 43.5177H135.424V40.1598H136.34V43.5177Z" fill="white"/>
<path d="M138.953 43.5177H138.037V38.8516H138.953V43.5177Z" fill="white"/>
<path d="M142.165 43.5783C141.935 43.5915 141.704 43.559 141.486 43.4825C141.268 43.406 141.068 43.2871 140.896 43.1327C140.738 42.9632 140.616 42.7633 140.537 42.5451C140.459 42.327 140.426 42.0951 140.44 41.8637C140.41 41.3906 140.562 40.924 140.864 40.559C141.014 40.4026 141.195 40.2803 141.396 40.2003C141.597 40.1204 141.813 40.0847 142.03 40.0956C142.232 40.0836 142.435 40.1135 142.626 40.1834C142.817 40.2533 142.991 40.3618 143.138 40.502C143.275 40.6531 143.38 40.8298 143.448 41.022C143.516 41.2141 143.545 41.4178 143.534 41.6213V42.0597H141.37C141.366 42.2851 141.449 42.5034 141.602 42.6693C141.682 42.7457 141.778 42.8048 141.882 42.8428C141.986 42.8808 142.097 42.897 142.208 42.8903C142.401 42.8912 142.594 42.8696 142.782 42.8261C142.976 42.7792 143.165 42.7123 143.345 42.6265V43.3394C143.182 43.4194 143.009 43.4793 142.832 43.5177C142.612 43.561 142.389 43.5814 142.165 43.5783ZM142.037 40.7479C141.952 40.7438 141.867 40.7582 141.788 40.7902C141.709 40.8222 141.638 40.8711 141.58 40.9333C141.46 41.0817 141.394 41.2663 141.392 41.4573H142.675C142.684 41.267 142.621 41.0802 142.5 40.9333C142.44 40.8716 142.368 40.8233 142.288 40.7913C142.208 40.7594 142.123 40.7446 142.037 40.7479Z" fill="white"/>
<path d="M78.2153 41.7817H0.142578" stroke="white" stroke-miterlimit="10"/>
</svg>
