<svg width="17" height="14" viewBox="0 0 17 14" fill="none" xmlns="http://www.w3.org/2000/svg">
<path d="M10.7245 0.570068H0.541303C0.241113 0.570068 0.00534439 0.805836 0.00534439 1.10603V7.53753C0.00534439 7.83225 0.241113 8.07349 0.541303 8.07349H10.7245C11.0193 8.07349 11.2605 7.83225 11.2605 7.53753V1.10603C11.2605 0.805836 11.0193 0.570068 10.7245 0.570068Z" fill="white"/>
<path d="M0 10.753C0 11.0477 0.241181 11.2889 0.535959 11.2889H1.11479C1.3399 10.1687 2.26175 9.28982 3.4087 9.14511H0.541318C0.34832 9.14511 0.17156 9.1129 0 9.04858V10.753Z" fill="white"/>
<path d="M15.5106 11.2891H16.1752C16.47 11.2891 16.7112 11.0479 16.7112 10.7532V6.05818C16.7112 5.21667 14.6585 3.24976 13.533 3.24976H12.3325V7.53742C12.3325 8.4217 11.6089 9.1453 10.7246 9.1453H4.10539C5.2524 9.29001 6.17425 10.1689 6.39929 11.2891H10.226C10.4726 10.0564 11.5606 9.1185 12.8684 9.1185C14.1707 9.11845 15.2641 10.0564 15.5106 11.2891ZM13.2113 4.56816C15.9555 4.43417 15.843 7.26939 15.843 7.26939H13.2113V4.56816Z" fill="white"/>
<path d="M12.8662 13.4301C13.7602 13.4301 14.4848 12.7054 14.4848 11.8115C14.4848 10.9175 13.7602 10.1929 12.8662 10.1929C11.9723 10.1929 11.2476 10.9175 11.2476 11.8115C11.2476 12.7054 11.9723 13.4301 12.8662 13.4301Z" fill="white"/>
<path d="M3.75492 13.4301C4.64884 13.4301 5.37351 12.7054 5.37351 11.8115C5.37351 10.9175 4.64884 10.1929 3.75492 10.1929C2.86099 10.1929 2.13632 10.9175 2.13632 11.8115C2.13632 12.7054 2.86099 13.4301 3.75492 13.4301Z" fill="white"/>
</svg>
