<svg width="18" height="20" viewBox="0 0 18 20" fill="none" xmlns="http://www.w3.org/2000/svg">
<path d="M8.69565 10.6957C5.75536 10.6957 3.36232 8.30268 3.36232 5.36239C3.36232 2.4221 5.75536 0.0290527 8.69565 0.0290527C11.6359 0.0290527 14.029 2.4221 14.029 5.36239C14.029 8.30268 11.6359 10.6957 8.69565 10.6957ZM8.69565 1.42036C6.52522 1.42036 4.75362 3.19195 4.75362 5.36239C4.75362 7.53282 6.52522 9.30441 8.69565 9.30441C10.8661 9.30441 12.6377 7.53282 12.6377 5.36239C12.6377 3.19195 10.8661 1.42036 8.69565 1.42036Z" fill="#26282C"/>
<path d="M16.6633 19.971C16.283 19.971 15.9676 19.6556 15.9676 19.2753C15.9676 16.0753 12.7028 13.4782 8.69583 13.4782C4.68883 13.4782 1.42391 16.0753 1.42391 19.2753C1.42391 19.6556 1.10855 19.971 0.72826 19.971C0.34797 19.971 0.032608 19.6556 0.032608 19.2753C0.032608 15.3147 3.91897 12.0869 8.69583 12.0869C13.4726 12.0869 17.3589 15.3147 17.3589 19.2753C17.3589 19.6556 17.0436 19.971 16.6633 19.971Z" fill="#26282C"/>
</svg>
