<svg width="21" height="13" viewBox="0 0 21 13" fill="none" xmlns="http://www.w3.org/2000/svg">
<g clip-path="url(#clip0_28_5572)">
<path d="M19.9931 6.05362C19.8133 5.80772 15.5304 0.0328064 10.0604 0.0328064C4.59033 0.0328064 0.307238 5.80772 0.127682 6.05338C-0.0425606 6.28666 -0.0425606 6.60305 0.127682 6.83633C0.307238 7.08222 4.59033 12.8571 10.0604 12.8571C15.5304 12.8571 19.8133 7.08218 19.9931 6.83653C20.1635 6.60329 20.1635 6.28666 19.9931 6.05362ZM10.0604 11.5305C6.03111 11.5305 2.54133 7.69756 1.50829 6.44452C2.54 5.19038 6.02246 1.35945 10.0604 1.35945C14.0894 1.35945 17.579 5.19171 18.6125 6.44542C17.5807 7.69953 14.0983 11.5305 10.0604 11.5305Z" fill="#26282C"/>
<path d="M10.0603 2.46503C7.86578 2.46503 6.08032 4.25049 6.08032 6.44501C6.08032 8.63953 7.86578 10.425 10.0603 10.425C12.2548 10.425 14.0403 8.63953 14.0403 6.44501C14.0403 4.25049 12.2548 2.46503 10.0603 2.46503ZM10.0603 9.09831C8.59721 9.09831 7.40701 7.90806 7.40701 6.44501C7.40701 4.98196 8.59725 3.79171 10.0603 3.79171C11.5234 3.79171 12.7136 4.98196 12.7136 6.44501C12.7136 7.90806 11.5234 9.09831 10.0603 9.09831Z" fill="#26282C"/>
</g>
<defs>
<clipPath id="clip0_28_5572">
<rect width="20.121" height="12.89" fill="white"/>
</clipPath>
</defs>
</svg>
