<svg width="23" height="20" viewBox="0 0 23 20" fill="none" xmlns="http://www.w3.org/2000/svg">
<path d="M20.8462 1.87513C19.6587 0.687631 18.0866 0.0385931 16.4087 0.0385931C14.7308 0.0385931 13.1539 0.692439 11.9664 1.87994L11.3462 2.50013L10.7164 1.87032C9.5289 0.682824 7.94717 0.0241699 6.26928 0.0241699C4.5962 0.0241699 3.01928 0.678016 1.83659 1.86071C0.649088 3.04821 -0.00475848 4.62513 4.92138e-05 6.30302C4.92138e-05 7.9809 0.658703 9.55301 1.8462 10.7405L10.8751 19.7694C11.0001 19.8944 11.1683 19.9617 11.3318 19.9617C11.4952 19.9617 11.6635 19.8992 11.7885 19.7742L20.8366 10.7597C22.0241 9.57224 22.6779 7.99532 22.6779 6.31744C22.6827 4.63955 22.0337 3.06263 20.8462 1.87513ZM19.9231 9.84148L11.3318 18.3992L2.75967 9.82705C1.81736 8.88475 1.29813 7.63475 1.29813 6.30302C1.29813 4.97128 1.81255 3.72128 2.75486 2.78379C3.69236 1.84629 4.94236 1.32705 6.26928 1.32705C7.60101 1.32705 8.85582 1.84628 9.79813 2.78859L10.8847 3.87513C11.1395 4.12994 11.5481 4.12994 11.8029 3.87513L12.8799 2.79821C13.8222 1.8559 15.077 1.33667 16.4039 1.33667C17.7308 1.33667 18.9808 1.8559 19.9231 2.7934C20.8654 3.73571 21.3799 4.98571 21.3799 6.31744C21.3847 7.64917 20.8654 8.89917 19.9231 9.84148Z" fill="#26282C"/>
</svg>
