<svg width="67" height="50" viewBox="0 0 67 50" fill="none" xmlns="http://www.w3.org/2000/svg">
<g id="fi_9400969" clip-path="url(#clip0_439_11843)">
<path id="Vector" d="M51.3323 49.9999C53.3657 50.0021 55.3797 49.6035 57.259 48.8269C59.1384 48.0504 60.8462 46.911 62.285 45.4741C63.7238 44.0372 64.8654 42.3308 65.6443 40.4524C66.4233 38.5741 66.8245 36.5607 66.825 34.5272C66.8254 32.4937 66.4251 30.4801 65.647 28.6014C64.8688 26.7228 63.728 25.0159 62.2899 23.5783C60.8517 22.1407 59.1443 21.0006 57.2654 20.2233C55.3864 19.4459 53.3726 19.0464 51.3391 19.0477C51.0274 19.0537 50.7304 19.1818 50.5121 19.4044C50.2938 19.627 50.1715 19.9264 50.1715 20.2382C50.1715 20.55 50.2939 20.8493 50.5122 21.0719C50.7306 21.2945 51.0276 21.4225 51.3393 21.4285C53.0996 21.4369 54.8403 21.7985 56.4583 22.4918C58.0763 23.1851 59.5388 24.1961 60.759 25.4649C61.9792 26.7336 62.9324 28.2344 63.5621 29.8782C64.1918 31.522 64.4853 33.2755 64.425 35.0348C64.25 38.3129 62.8691 41.4105 60.5478 43.7318C58.2265 46.0531 55.1289 47.434 51.8508 47.609C50.0913 47.6703 48.3373 47.3776 46.6931 46.7483C45.0488 46.119 43.5476 45.1659 42.2786 43.9455C41.0096 42.7251 39.9986 41.2623 39.3056 39.6438C38.6126 38.0254 38.2516 36.2842 38.2441 34.5236C38.2629 25.5113 41.185 16.7449 46.5774 9.52374L52.2914 1.90482C52.473 1.65182 52.5482 1.33776 52.5009 1.02996C52.4537 0.722166 52.2877 0.44513 52.0386 0.258251C51.7895 0.071371 51.4771 -0.0104777 51.1684 0.0302512C50.8597 0.0709801 50.5792 0.231044 50.3871 0.47613L44.6731 8.09496C37.8224 17.0661 30.9431 36.7247 40.6062 45.6739C43.4807 48.4593 47.3296 50.0116 51.3323 49.9999Z" fill="#B58362"/>
<path id="Vector_2" d="M15.618 49.9999C17.6515 50.0021 19.6655 49.6035 21.5448 48.827C23.4241 48.0504 25.132 46.9111 26.5708 45.4742C28.0096 44.0372 29.1511 42.3308 29.9301 40.4525C30.7091 38.5741 31.1103 36.5607 31.1107 34.5273C31.1112 32.4938 30.7109 30.4802 29.9327 28.6015C29.1546 26.7228 28.0138 25.0159 26.5756 23.5783C25.1375 22.1408 23.4301 21.0007 21.5511 20.2233C19.6721 19.4459 17.6583 19.0464 15.6249 19.0477C15.3131 19.0537 15.0162 19.1818 14.7979 19.4044C14.5795 19.627 14.4572 19.9264 14.4573 20.2382C14.4573 20.55 14.5796 20.8494 14.798 21.072C15.0164 21.2945 15.3133 21.4226 15.6251 21.4285C17.3854 21.4369 19.1261 21.7985 20.7441 22.4919C22.3621 23.1852 23.8245 24.1962 25.0448 25.4649C26.265 26.7337 27.2182 28.2344 27.8479 29.8782C28.4776 31.5221 28.771 33.2755 28.7108 35.0348C28.5358 38.3129 27.1549 41.4106 24.8336 43.7318C22.5123 46.0531 19.4147 47.4341 16.1366 47.6091C14.3771 47.6703 12.6232 47.3775 10.979 46.7481C9.33472 46.1187 7.83361 45.1656 6.56464 43.9453C5.29566 42.7249 4.28466 41.2621 3.59159 39.6437C2.89852 38.0253 2.53749 36.2842 2.52991 34.5237C2.54866 25.5113 5.47077 16.7449 10.8631 9.52379L16.5772 1.90487C16.7586 1.65187 16.8336 1.33788 16.7863 1.03019C16.739 0.722491 16.5731 0.445565 16.3241 0.258741C16.075 0.0719175 15.7627 -0.00994136 15.4541 0.0307032C15.1455 0.0713478 14.865 0.231262 14.6728 0.476184L8.95883 8.09502C2.10815 17.0662 -4.77115 36.7247 4.89193 45.674C7.76649 48.4594 11.6154 50.0117 15.618 49.9999Z" fill="#B58362"/>
</g>
<defs>
<clipPath id="clip0_439_11843">
<rect width="66.9642" height="50" fill="white" transform="matrix(-1 0 0 1 66.9642 0)"/>
</clipPath>
</defs>
</svg>
